ISO-10303-21;
HEADER;
/*Generated by software containing ST-Developer
 * from STEP Tools, Inc. (www.steptools.com) 
 */
/*OPTION: using custom renumber hook */
/*description */
/*implementation_level */
FILE_DESCRIPTION(('STEP AP242 Edition 2','STEP AP242 Edition 2''CAx-IF Rec.Pracs.---Representation and Presentation of Product Manufa
cturing Information (PMI)---4.0---2014-10-13','STEP AP242 Edition 2''CAx-IF Rec.Pracs.---Representation and Presentation of Product Manufa
cturing Information (PMI)---4.0---2014-10-13''CAx-IF Rec.Pracs.---3D Tessellated Geometry---0.4---2014-09-14','STEP AP242 Edition 2''CAx-IF Rec.Pracs.---Representation and Presentation of Product Manufa
cturing Information (PMI)---4.0---2014-10-13''CAx-IF Rec.Pracs.---3D Tessellated Geometry---0.4---2014-09-14''2;1','STEP AP242 Edition 2''CAx-IF Rec.Pracs.---Representation and Presentation of Product Manufa
cturing Information (PMI)---4.0---2014-10-13''CAx-IF Rec.Pracs.---3D Tessellated Geometry---0.4---2014-09-14''2;1''CAx-IF Rec.Pracs.---User Defined Attributes---1.5---2016-08-15'),'2;1');
/*name */
/*time_stamp */
/*author */
/*organization */
/*preprocessor_version */
/*originating_system */
/*authorisation */
FILE_NAME('/vol/tmp/translate-9117541299961969712/dual-axis-solar-panel-tracker-OKOK parts - base.step','2026-04-14T16:17:44',(''),(''),'ST-DEVELOPER v20','ONSHAPE BY PTC INC, 1.213','  ');
FILE_SCHEMA(('AP242_MANAGED_MODEL_BASED_3D_ENGINEERING_MIM_LF { 1 0 10303 442 3 1 4 }'));
ENDSEC;
DATA;
#10=SHAPE_REPRESENTATION_RELATIONSHIP('','',#243,#11);
#11=ADVANCED_BREP_SHAPE_REPRESENTATION('',(#241),#379);
#12=CYLINDRICAL_SURFACE('',#255,0.75);
#13=CIRCLE('',#252,0.75);
#14=CIRCLE('',#254,0.75);
#15=ORIENTED_EDGE('',*,*,#75,.T.);
#16=ORIENTED_EDGE('',*,*,#76,.F.);
#17=ORIENTED_EDGE('',*,*,#77,.F.);
#18=ORIENTED_EDGE('',*,*,#78,.F.);
#19=ORIENTED_EDGE('',*,*,#79,.T.);
#20=ORIENTED_EDGE('',*,*,#80,.T.);
#21=ORIENTED_EDGE('',*,*,#81,.T.);
#22=ORIENTED_EDGE('',*,*,#82,.F.);
#23=ORIENTED_EDGE('',*,*,#83,.F.);
#24=ORIENTED_EDGE('',*,*,#84,.T.);
#25=ORIENTED_EDGE('',*,*,#85,.T.);
#26=ORIENTED_EDGE('',*,*,#86,.F.);
#27=ORIENTED_EDGE('',*,*,#87,.F.);
#28=ORIENTED_EDGE('',*,*,#77,.T.);
#29=ORIENTED_EDGE('',*,*,#76,.T.);
#30=ORIENTED_EDGE('',*,*,#88,.T.);
#31=ORIENTED_EDGE('',*,*,#84,.F.);
#32=ORIENTED_EDGE('',*,*,#89,.F.);
#33=ORIENTED_EDGE('',*,*,#90,.F.);
#34=ORIENTED_EDGE('',*,*,#91,.F.);
#35=ORIENTED_EDGE('',*,*,#92,.T.);
#36=ORIENTED_EDGE('',*,*,#93,.F.);
#37=ORIENTED_EDGE('',*,*,#94,.F.);
#38=ORIENTED_EDGE('',*,*,#86,.T.);
#39=ORIENTED_EDGE('',*,*,#85,.F.);
#40=ORIENTED_EDGE('',*,*,#95,.F.);
#41=ORIENTED_EDGE('',*,*,#96,.T.);
#42=ORIENTED_EDGE('',*,*,#97,.F.);
#43=ORIENTED_EDGE('',*,*,#82,.T.);
#44=ORIENTED_EDGE('',*,*,#98,.T.);
#45=ORIENTED_EDGE('',*,*,#80,.F.);
#46=ORIENTED_EDGE('',*,*,#79,.F.);
#47=ORIENTED_EDGE('',*,*,#99,.F.);
#48=ORIENTED_EDGE('',*,*,#93,.T.);
#49=ORIENTED_EDGE('',*,*,#92,.F.);
#50=ORIENTED_EDGE('',*,*,#100,.F.);
#51=ORIENTED_EDGE('',*,*,#90,.T.);
#52=ORIENTED_EDGE('',*,*,#101,.F.);
#53=ORIENTED_EDGE('',*,*,#96,.F.);
#54=ORIENTED_EDGE('',*,*,#102,.F.);
#55=ORIENTED_EDGE('',*,*,#103,.T.);
#56=ORIENTED_EDGE('',*,*,#102,.T.);
#57=ORIENTED_EDGE('',*,*,#100,.T.);
#58=ORIENTED_EDGE('',*,*,#95,.T.);
#59=ORIENTED_EDGE('',*,*,#91,.T.);
#60=ORIENTED_EDGE('',*,*,#104,.T.);
#61=ORIENTED_EDGE('',*,*,#88,.F.);
#62=ORIENTED_EDGE('',*,*,#75,.F.);
#63=ORIENTED_EDGE('',*,*,#98,.F.);
#64=ORIENTED_EDGE('',*,*,#81,.F.);
#65=ORIENTED_EDGE('',*,*,#104,.F.);
#66=ORIENTED_EDGE('',*,*,#103,.F.);
#67=ORIENTED_EDGE('',*,*,#101,.T.);
#68=ORIENTED_EDGE('',*,*,#89,.T.);
#69=ORIENTED_EDGE('',*,*,#83,.T.);
#70=ORIENTED_EDGE('',*,*,#97,.T.);
#71=ORIENTED_EDGE('',*,*,#94,.T.);
#72=ORIENTED_EDGE('',*,*,#99,.T.);
#73=ORIENTED_EDGE('',*,*,#78,.T.);
#74=ORIENTED_EDGE('',*,*,#87,.T.);
#75=EDGE_CURVE('',#105,#106,#127,.T.);
#76=EDGE_CURVE('',#107,#106,#128,.T.);
#77=EDGE_CURVE('',#108,#107,#129,.T.);
#78=EDGE_CURVE('',#109,#108,#130,.T.);
#79=EDGE_CURVE('',#109,#110,#131,.T.);
#80=EDGE_CURVE('',#110,#105,#132,.T.);
#81=EDGE_CURVE('',#111,#112,#133,.T.);
#82=EDGE_CURVE('',#113,#112,#134,.T.);
#83=EDGE_CURVE('',#114,#113,#135,.T.);
#84=EDGE_CURVE('',#114,#111,#136,.T.);
#85=EDGE_CURVE('',#115,#116,#137,.T.);
#86=EDGE_CURVE('',#117,#116,#138,.T.);
#87=EDGE_CURVE('',#108,#117,#139,.T.);
#88=EDGE_CURVE('',#106,#111,#140,.T.);
#89=EDGE_CURVE('',#118,#114,#141,.T.);
#90=EDGE_CURVE('',#119,#118,#142,.T.);
#91=EDGE_CURVE('',#115,#119,#143,.T.);
#92=EDGE_CURVE('',#120,#121,#144,.T.);
#93=EDGE_CURVE('',#122,#121,#145,.T.);
#94=EDGE_CURVE('',#117,#122,#146,.T.);
#95=EDGE_CURVE('',#120,#115,#147,.T.);
#96=EDGE_CURVE('',#123,#124,#148,.T.);
#97=EDGE_CURVE('',#113,#124,#149,.T.);
#98=EDGE_CURVE('',#112,#105,#150,.T.);
#99=EDGE_CURVE('',#122,#109,#151,.T.);
#100=EDGE_CURVE('',#123,#120,#152,.T.);
#101=EDGE_CURVE('',#124,#118,#153,.T.);
#102=EDGE_CURVE('',#119,#123,#154,.T.);
#103=EDGE_CURVE('',#125,#125,#13,.T.);
#104=EDGE_CURVE('',#126,#126,#14,.F.);
#105=VERTEX_POINT('',#317);
#106=VERTEX_POINT('',#318);
#107=VERTEX_POINT('',#320);
#108=VERTEX_POINT('',#322);
#109=VERTEX_POINT('',#324);
#110=VERTEX_POINT('',#326);
#111=VERTEX_POINT('',#330);
#112=VERTEX_POINT('',#331);
#113=VERTEX_POINT('',#333);
#114=VERTEX_POINT('',#335);
#115=VERTEX_POINT('',#339);
#116=VERTEX_POINT('',#340);
#117=VERTEX_POINT('',#342);
#118=VERTEX_POINT('',#346);
#119=VERTEX_POINT('',#348);
#120=VERTEX_POINT('',#352);
#121=VERTEX_POINT('',#353);
#122=VERTEX_POINT('',#355);
#123=VERTEX_POINT('',#360);
#124=VERTEX_POINT('',#361);
#125=VERTEX_POINT('',#371);
#126=VERTEX_POINT('',#374);
#127=LINE('',#316,#155);
#128=LINE('',#319,#156);
#129=LINE('',#321,#157);
#130=LINE('',#323,#158);
#131=LINE('',#325,#159);
#132=LINE('',#327,#160);
#133=LINE('',#329,#161);
#134=LINE('',#332,#162);
#135=LINE('',#334,#163);
#136=LINE('',#336,#164);
#137=LINE('',#338,#165);
#138=LINE('',#341,#166);
#139=LINE('',#343,#167);
#140=LINE('',#344,#168);
#141=LINE('',#345,#169);
#142=LINE('',#347,#170);
#143=LINE('',#349,#171);
#144=LINE('',#351,#172);
#145=LINE('',#354,#173);
#146=LINE('',#356,#174);
#147=LINE('',#357,#175);
#148=LINE('',#359,#176);
#149=LINE('',#362,#177);
#150=LINE('',#363,#178);
#151=LINE('',#364,#179);
#152=LINE('',#365,#180);
#153=LINE('',#367,#181);
#154=LINE('',#368,#182);
#155=VECTOR('',#262,100.);
#156=VECTOR('',#263,100.);
#157=VECTOR('',#264,100.);
#158=VECTOR('',#265,100.);
#159=VECTOR('',#266,100.);
#160=VECTOR('',#267,100.);
#161=VECTOR('',#270,100.);
#162=VECTOR('',#271,100.);
#163=VECTOR('',#272,100.);
#164=VECTOR('',#273,100.);
#165=VECTOR('',#276,100.);
#166=VECTOR('',#277,100.);
#167=VECTOR('',#278,100.);
#168=VECTOR('',#279,100.);
#169=VECTOR('',#280,100.);
#170=VECTOR('',#281,100.);
#171=VECTOR('',#282,100.);
#172=VECTOR('',#285,100.);
#173=VECTOR('',#286,100.);
#174=VECTOR('',#287,100.);
#175=VECTOR('',#288,100.);
#176=VECTOR('',#291,100.);
#177=VECTOR('',#292,100.);
#178=VECTOR('',#293,100.);
#179=VECTOR('',#294,100.);
#180=VECTOR('',#295,100.);
#181=VECTOR('',#298,100.);
#182=VECTOR('',#299,100.);
#183=EDGE_LOOP('',(#15,#16,#17,#18,#19,#20));
#184=EDGE_LOOP('',(#21,#22,#23,#24));
#185=EDGE_LOOP('',(#25,#26,#27,#28,#29,#30,#31,#32,#33,#34));
#186=EDGE_LOOP('',(#35,#36,#37,#38,#39,#40));
#187=EDGE_LOOP('',(#41,#42,#43,#44,#45,#46,#47,#48,#49,#50));
#188=EDGE_LOOP('',(#51,#52,#53,#54));
#189=EDGE_LOOP('',(#55));
#190=EDGE_LOOP('',(#56,#57,#58,#59));
#191=EDGE_LOOP('',(#60));
#192=EDGE_LOOP('',(#61,#62,#63,#64));
#193=EDGE_LOOP('',(#65));
#194=EDGE_LOOP('',(#66));
#195=EDGE_LOOP('',(#67,#68,#69,#70));
#196=EDGE_LOOP('',(#71,#72,#73,#74));
#197=FACE_BOUND('',#183,.T.);
#198=FACE_BOUND('',#184,.T.);
#199=FACE_BOUND('',#185,.T.);
#200=FACE_BOUND('',#186,.T.);
#201=FACE_BOUND('',#187,.T.);
#202=FACE_BOUND('',#188,.T.);
#203=FACE_BOUND('',#189,.T.);
#204=FACE_BOUND('',#190,.T.);
#205=FACE_BOUND('',#191,.T.);
#206=FACE_BOUND('',#192,.T.);
#207=FACE_BOUND('',#193,.T.);
#208=FACE_BOUND('',#194,.T.);
#209=FACE_BOUND('',#195,.T.);
#210=FACE_BOUND('',#196,.T.);
#211=PLANE('',#245);
#212=PLANE('',#246);
#213=PLANE('',#247);
#214=PLANE('',#248);
#215=PLANE('',#249);
#216=PLANE('',#250);
#217=PLANE('',#251);
#218=PLANE('',#253);
#219=PLANE('',#256);
#220=PLANE('',#257);
#221=ADVANCED_FACE('',(#197),#211,.F.);
#222=ADVANCED_FACE('',(#198),#212,.F.);
#223=ADVANCED_FACE('',(#199),#213,.F.);
#224=ADVANCED_FACE('',(#200),#214,.F.);
#225=ADVANCED_FACE('',(#201),#215,.F.);
#226=ADVANCED_FACE('',(#202),#216,.F.);
#227=ADVANCED_FACE('',(#203,#204),#217,.F.);
#228=ADVANCED_FACE('',(#205,#206),#218,.T.);
#229=ADVANCED_FACE('',(#207,#208),#12,.F.);
#230=ADVANCED_FACE('',(#209),#219,.T.);
#231=ADVANCED_FACE('',(#210),#220,.T.);
#232=CLOSED_SHELL('',(#221,#222,#223,#224,#225,#226,#227,#228,#229,#230,#231));
#233=STYLED_ITEM('',(#234),#241);
#234=PRESENTATION_STYLE_ASSIGNMENT((#235));
#235=SURFACE_STYLE_USAGE(.BOTH.,#236);
#236=SURFACE_SIDE_STYLE('',(#237));
#237=SURFACE_STYLE_FILL_AREA(#238);
#238=FILL_AREA_STYLE('',(#239));
#239=FILL_AREA_STYLE_COLOUR('',#240);
#240=COLOUR_RGB('',0.796078431372549,0.823529411764706,0.937254901960784);
#241=MANIFOLD_SOLID_BREP('base',#232);
#242=SHAPE_DEFINITION_REPRESENTATION(#384,#243);
#243=SHAPE_REPRESENTATION('base',(#244),#379);
#244=AXIS2_PLACEMENT_3D('',#314,#258,#259);
#245=AXIS2_PLACEMENT_3D('',#315,#260,#261);
#246=AXIS2_PLACEMENT_3D('',#328,#268,#269);
#247=AXIS2_PLACEMENT_3D('',#337,#274,#275);
#248=AXIS2_PLACEMENT_3D('',#350,#283,#284);
#249=AXIS2_PLACEMENT_3D('',#358,#289,#290);
#250=AXIS2_PLACEMENT_3D('',#366,#296,#297);
#251=AXIS2_PLACEMENT_3D('',#369,#300,#301);
#252=AXIS2_PLACEMENT_3D('',#370,#302,#303);
#253=AXIS2_PLACEMENT_3D('',#372,#304,#305);
#254=AXIS2_PLACEMENT_3D('',#373,#306,#307);
#255=AXIS2_PLACEMENT_3D('',#375,#308,#309);
#256=AXIS2_PLACEMENT_3D('',#376,#310,#311);
#257=AXIS2_PLACEMENT_3D('',#377,#312,#313);
#258=DIRECTION('',(0.,0.,1.));
#259=DIRECTION('',(1.,0.,0.));
#260=DIRECTION('',(-1.,0.,9.25185853854297E-17));
#261=DIRECTION('',(9.25185853854297E-17,0.,1.));
#262=DIRECTION('',(9.25185853854297E-17,0.,1.));
#263=DIRECTION('',(0.,1.,0.));
#264=DIRECTION('',(0.,1.,0.));
#265=DIRECTION('',(9.25185853854297E-17,0.,1.));
#266=DIRECTION('',(0.,1.,0.));
#267=DIRECTION('',(0.,1.,0.));
#268=DIRECTION('',(1.,0.,9.25185853854297E-17));
#269=DIRECTION('',(9.25185853854297E-17,0.,-1.));
#270=DIRECTION('',(9.25185853854297E-17,0.,-1.));
#271=DIRECTION('',(0.,1.,0.));
#272=DIRECTION('',(9.25185853854297E-17,0.,-1.));
#273=DIRECTION('',(0.,1.,0.));
#274=DIRECTION('',(0.,0.,-1.));
#275=DIRECTION('',(-1.,0.,0.));
#276=DIRECTION('',(0.,-1.,0.));
#277=DIRECTION('',(0.,1.,0.));
#278=DIRECTION('',(-1.,0.,0.));
#279=DIRECTION('',(1.,0.,0.));
#280=DIRECTION('',(-1.,0.,0.));
#281=DIRECTION('',(0.,-1.,0.));
#282=DIRECTION('',(1.,0.,0.));
#283=DIRECTION('',(1.,0.,0.));
#284=DIRECTION('',(0.,0.,-1.));
#285=DIRECTION('',(0.,-1.,0.));
#286=DIRECTION('',(0.,1.,0.));
#287=DIRECTION('',(-9.25185853854297E-17,0.,-1.));
#288=DIRECTION('',(0.,0.,1.));
#289=DIRECTION('',(0.,0.,1.));
#290=DIRECTION('',(1.,0.,0.));
#291=DIRECTION('',(0.,-1.,0.));
#292=DIRECTION('',(1.,0.,0.));
#293=DIRECTION('',(-1.,0.,0.));
#294=DIRECTION('',(1.,0.,0.));
#295=DIRECTION('',(-1.,0.,0.));
#296=DIRECTION('',(-1.,0.,0.));
#297=DIRECTION('',(0.,0.,1.));
#298=DIRECTION('',(-9.25185853854297E-17,0.,1.));
#299=DIRECTION('',(0.,0.,-1.));
#300=DIRECTION('',(0.,-1.,0.));
#301=DIRECTION('',(0.,0.,-1.));
#302=DIRECTION('',(0.,-1.,0.));
#303=DIRECTION('',(0.,0.,-1.));
#304=DIRECTION('',(0.,-1.,0.));
#305=DIRECTION('',(0.,0.,-1.));
#306=DIRECTION('',(0.,-1.,0.));
#307=DIRECTION('',(0.,0.,-1.));
#308=DIRECTION('',(0.,-1.,0.));
#309=DIRECTION('',(0.,0.,-1.));
#310=DIRECTION('',(0.,-1.,0.));
#311=DIRECTION('',(0.,0.,-1.));
#312=DIRECTION('',(0.,-1.,0.));
#313=DIRECTION('',(0.,0.,-1.));
#314=CARTESIAN_POINT('',(0.,0.,0.));
#315=CARTESIAN_POINT('',(-11.5,-5.,15.));
#316=CARTESIAN_POINT('',(-11.5,0.,15.));
#317=CARTESIAN_POINT('',(-11.5,0.,-15.));
#318=CARTESIAN_POINT('',(-11.5,0.,15.));
#319=CARTESIAN_POINT('',(-11.5,-5.,15.));
#320=CARTESIAN_POINT('',(-11.5,-5.,15.));
#321=CARTESIAN_POINT('',(-11.5,-10.,15.));
#322=CARTESIAN_POINT('',(-11.5,-10.,15.));
#323=CARTESIAN_POINT('',(-11.5,-10.,15.));
#324=CARTESIAN_POINT('',(-11.5,-10.,-15.));
#325=CARTESIAN_POINT('',(-11.5,-10.,-15.));
#326=CARTESIAN_POINT('',(-11.5,-5.,-15.));
#327=CARTESIAN_POINT('',(-11.5,-5.,-15.));
#328=CARTESIAN_POINT('',(11.5,-5.,15.));
#329=CARTESIAN_POINT('',(11.5,0.,15.));
#330=CARTESIAN_POINT('',(11.5,0.,15.));
#331=CARTESIAN_POINT('',(11.5,0.,-15.));
#332=CARTESIAN_POINT('',(11.5,-5.,-15.));
#333=CARTESIAN_POINT('',(11.5,-10.,-15.));
#334=CARTESIAN_POINT('',(11.5,-10.,15.));
#335=CARTESIAN_POINT('',(11.5,-10.,15.));
#336=CARTESIAN_POINT('',(11.5,-5.,15.));
#337=CARTESIAN_POINT('',(-12.5,1.,15.));
#338=CARTESIAN_POINT('',(-12.5,1.,15.));
#339=CARTESIAN_POINT('',(-12.5,1.,15.));
#340=CARTESIAN_POINT('',(-12.5,-5.,15.));
#341=CARTESIAN_POINT('',(-12.5,-10.,15.));
#342=CARTESIAN_POINT('',(-12.5,-10.,15.));
#343=CARTESIAN_POINT('',(-12.5,-10.,15.));
#344=CARTESIAN_POINT('',(-12.5,0.,15.));
#345=CARTESIAN_POINT('',(12.5,-10.,15.));
#346=CARTESIAN_POINT('',(12.5,-10.,15.));
#347=CARTESIAN_POINT('',(12.5,1.,15.));
#348=CARTESIAN_POINT('',(12.5,1.,15.));
#349=CARTESIAN_POINT('',(-12.5,1.,15.));
#350=CARTESIAN_POINT('',(-12.5,1.,15.));
#351=CARTESIAN_POINT('',(-12.5,1.,-15.));
#352=CARTESIAN_POINT('',(-12.5,1.,-15.));
#353=CARTESIAN_POINT('',(-12.5,-5.,-15.));
#354=CARTESIAN_POINT('',(-12.5,-10.,-15.));
#355=CARTESIAN_POINT('',(-12.5,-10.,-15.));
#356=CARTESIAN_POINT('',(-12.5,-10.,15.));
#357=CARTESIAN_POINT('',(-12.5,1.,15.));
#358=CARTESIAN_POINT('',(-12.5,1.,-15.));
#359=CARTESIAN_POINT('',(12.5,1.,-15.));
#360=CARTESIAN_POINT('',(12.5,1.,-15.));
#361=CARTESIAN_POINT('',(12.5,-10.,-15.));
#362=CARTESIAN_POINT('',(12.5,-10.,-15.));
#363=CARTESIAN_POINT('',(-12.5,0.,-15.));
#364=CARTESIAN_POINT('',(-12.5,-10.,-15.));
#365=CARTESIAN_POINT('',(-12.5,1.,-15.));
#366=CARTESIAN_POINT('',(12.5,1.,15.));
#367=CARTESIAN_POINT('',(12.5,-10.,15.));
#368=CARTESIAN_POINT('',(12.5,1.,15.));
#369=CARTESIAN_POINT('',(0.,1.,0.));
#370=CARTESIAN_POINT('',(0.,1.,-2.31296463463575E-15));
#371=CARTESIAN_POINT('',(0.,1.,-0.750000000000002));
#372=CARTESIAN_POINT('',(0.,0.,0.));
#373=CARTESIAN_POINT('',(0.,0.,-2.31296463463575E-15));
#374=CARTESIAN_POINT('',(0.,0.,-0.750000000000002));
#375=CARTESIAN_POINT('',(0.,1.,-2.31296463463575E-15));
#376=CARTESIAN_POINT('',(0.,-10.,0.));
#377=CARTESIAN_POINT('',(0.,-10.,0.));
#378=MECHANICAL_DESIGN_GEOMETRIC_PRESENTATION_REPRESENTATION('',(#233),#379);
#379=(
GEOMETRIC_REPRESENTATION_CONTEXT(3)
GLOBAL_UNCERTAINTY_ASSIGNED_CONTEXT((#380))
GLOBAL_UNIT_ASSIGNED_CONTEXT((#383,#382,#381))
REPRESENTATION_CONTEXT('base','TOP_LEVEL_ASSEMBLY_PART')
);
#380=UNCERTAINTY_MEASURE_WITH_UNIT(LENGTH_MEASURE(1.E-06),#383,'DISTANCE_ACCURACY_VALUE','Maximum Tolerance applied to model');
#381=(
NAMED_UNIT(*)
SI_UNIT($,.STERADIAN.)
SOLID_ANGLE_UNIT()
);
#382=(
NAMED_UNIT(*)
PLANE_ANGLE_UNIT()
SI_UNIT($,.RADIAN.)
);
#383=(
LENGTH_UNIT()
NAMED_UNIT(*)
SI_UNIT(.CENTI.,.METRE.)
);
#384=PRODUCT_DEFINITION_SHAPE('','',#385);
#385=PRODUCT_DEFINITION('','',#387,#386);
#386=PRODUCT_DEFINITION_CONTEXT('',#393,'design');
#387=PRODUCT_DEFINITION_FORMATION_WITH_SPECIFIED_SOURCE('','',#389,.NOT_KNOWN.);
#388=PRODUCT_RELATED_PRODUCT_CATEGORY('','',(#389));
#389=PRODUCT('base','base','base',(#391));
#390=PRODUCT_CATEGORY('','');
#391=PRODUCT_CONTEXT('',#393,'mechanical');
#392=APPLICATION_PROTOCOL_DEFINITION('international standard','ap242_managed_model_based_3d_engineering',2020,#393);
#393=APPLICATION_CONTEXT('managed model based 3d engineering');
#394=SHAPE_ASPECT('hole_callout.FJZV2JwLKIjgKQh_118.JFT.1',$,#384,.T.);
#395=GEOMETRIC_ITEM_SPECIFIC_USAGE('','',#394,#11,#229);
#396=DIMENSIONAL_SIZE(#394,'diameter');
#397=(
LENGTH_UNIT()
NAMED_UNIT(*)
SI_UNIT(.CENTI.,.METRE.)
);
#399=PRECISION_QUALIFIER(3);
#398=(
LENGTH_MEASURE_WITH_UNIT()
MEASURE_REPRESENTATION_ITEM()
MEASURE_WITH_UNIT(POSITIVE_LENGTH_MEASURE(1.5),#397)
QUALIFIED_REPRESENTATION_ITEM((#399))
REPRESENTATION_ITEM('nominal value')
);
#400=COMPOUND_REPRESENTATION_ITEM('modifiers',SET_REPRESENTATION_ITEM((#401)));
#401=DESCRIPTIVE_REPRESENTATION_ITEM('dimensional note','diameter');
#402=SHAPE_DIMENSION_REPRESENTATION('',(#398,#400),#379);
#403=DIMENSIONAL_CHARACTERISTIC_REPRESENTATION(#396,#402);
#404=PRESENTATION_STYLE_ASSIGNMENT((NULL_STYLE(.NULL.)));
#405=CARTESIAN_POINT('',(0.,0.01,-2.31296463463574E-17));
#406=DIRECTION('',(0.,1.,0.));
#407=DIRECTION('',(-1.,0.,0.));
#408=AXIS2_PLACEMENT_3D('',#405,#406,#407);
#409=PLANE('',#408);
#410=ANNOTATION_PLANE('',(#404),#409,(#437));
#411=CARTESIAN_POINT('',(0.,0.,0.));
#412=DIRECTION('',(0.,0.,1.));
#413=DIRECTION('',(1.,0.,0.));
#414=AXIS2_PLACEMENT_3D('',#411,#412,#413);
#415=CARTESIAN_POINT('',(0.,0.,0.));
#416=DIRECTION('',(0.,0.,1.));
#417=DIRECTION('',(1.,0.,0.));
#418=AXIS2_PLACEMENT_3D('',#415,#416,#417);
#419=SHAPE_REPRESENTATION('',(#418,#241),#379);
#420=REPRESENTATION_MAP(#414,#419);
#421=MAPPED_ITEM('',#420,#414);
#422=PRESENTATION_STYLE_ASSIGNMENT((NULL_STYLE(.NULL.)));
#423=STYLED_ITEM('',(#422),#421);
#424=DRAUGHTING_MODEL('',(#410,#414,#421,#423),#379);
#425=DRAUGHTING_PRE_DEFINED_CURVE_FONT('continuous');
#426=COLOUR_RGB('',0.,0.,0.);
#427=CURVE_STYLE('',#425,POSITIVE_LENGTH_MEASURE(0.02),#426);
#428=PRESENTATION_STYLE_ASSIGNMENT((#427));
#429=COORDINATES_LIST('coordinates',1758,((-0.5303301,1.0000000,0.5303301),(-0.6717514,1.0000000,0.8131728),(-0.8131728,1.0000000,0.6717514),(-3.4019326,1.0000000,3.0487034),(-3.4116378,1.0000000,3.0446355),(-3.4214390,1.0000000,3.0411099),(-3.4019326,1.0000000,3.0487034),(-3.4214390,1.0000000,3.0411099),(-3.4313361,1.0000000,3.0381267),(-3.4019326,1.0000000,3.0487034),(-3.4313361,1.0000000,3.0381267),(-3.4413290,1.0000000,3.0356859),(-3.4019326,1.0000000,3.0487034),(-3.4413290,1.0000000,3.0356859),(-3.4514179,1.0000000,3.0337875),(-3.4019326,1.0000000,3.0487034),(-3.4514179,1.0000000,3.0337875),(-3.4616027,1.0000000,3.0324315),(-3.4019326,1.0000000,3.0487034),(-3.4616027,1.0000000,3.0324315),(-3.4718835,1.0000000,3.0316180),(-3.4019326,1.0000000,3.0487034),(-3.4718835,1.0000000,3.0316180),(-3.4822601,1.0000000,3.0313468),(-3.4019326,1.0000000,3.0487034),(-3.4822601,1.0000000,3.0313468),(-3.4958382,1.0000000,3.0317784),(-3.4019326,1.0000000,3.0487034),(-3.4958382,1.0000000,3.0317784),(-3.5091616,1.0000000,3.0330732),(-3.4019326,1.0000000,3.0487034),(-3.5091616,1.0000000,3.0330732),(-3.5222304,1.0000000,3.0352312),(-3.4019326,1.0000000,3.0487034),(-3.5222304,1.0000000,3.0352312),(-3.5350445,1.0000000,3.0382524),(-3.4019326,1.0000000,3.0487034),(-3.5350445,1.0000000,3.0382524),(-3.5476039,1.0000000,3.0421368),(-3.4019326,1.0000000,3.0487034),(-3.5476039,1.0000000,3.0421368),(-3.5599087,1.0000000,3.0468844),(-3.4019326,1.0000000,3.0487034),(-3.5599087,1.0000000,3.0468844),(-3.5719588,1.0000000,3.0524952),(-3.4019326,1.0000000,3.0487034),(-3.5719588,1.0000000,3.0524952),(-3.5837543,1.0000000,3.0589693),(-3.4019326,1.0000000,3.0487034),(-3.5837543,1.0000000,3.0589693),(-3.5951115,1.0000000,3.0662089),(-3.4019326,1.0000000,3.0487034),(-3.5951115,1.0000000,3.0662089),(-3.6058470,1.0000000,3.0740637),(-3.4019326,1.0000000,3.0487034),(-3.6058470,1.0000000,3.0740637),(-3.6159607,1.0000000,3.0825337),(-3.4019326,1.0000000,3.0487034),(-3.6159607,1.0000000,3.0825337),(-3.6254526,1.0000000,3.0916188),(-3.4019326,1.0000000,3.0487034),(-3.6254526,1.0000000,3.0916188),(-3.6343227,1.0000000,3.1013191),(-3.6343227,1.0000000,3.1013191),(-3.6425711,1.0000000,3.1116346),(-3.6501977,1.0000000,3.1225652),(-3.6343227,1.0000000,3.1013191),(-3.6501977,1.0000000,3.1225652),(-3.6572026,1.0000000,3.1341109),(-3.6343227,1.0000000,3.1013191),(-3.6572026,1.0000000,3.1341109),(-3.6635030,1.0000000,3.1460883),(-3.6343227,1.0000000,3.1013191),(-3.6635030,1.0000000,3.1460883),(-3.6689633,1.0000000,3.1583137),(-3.6343227,1.0000000,3.1013191),(-3.6689633,1.0000000,3.1583137),(-3.6735836,1.0000000,3.1707871),(-3.6343227,1.0000000,3.1013191),(-3.6735836,1.0000000,3.1707871),(-3.6773638,1.0000000,3.1835086),(-3.6343227,1.0000000,3.1013191),(-3.6773638,1.0000000,3.1835086),(-3.6803040,1.0000000,3.1964782),(-3.6343227,1.0000000,3.1013191),(-3.6803040,1.0000000,3.1964782),(-3.6824041,1.0000000,3.2096958),(-3.6343227,1.0000000,3.1013191),(-3.6824041,1.0000000,3.2096958),(-3.6836642,1.0000000,3.2231614),(-3.6343227,1.0000000,3.1013191),(-3.6836642,1.0000000,3.2231614),(-3.6840843,1.0000000,3.2368751),(-3.6343227,1.0000000,3.1013191),(-3.6840843,1.0000000,3.2368751),(-3.6836642,1.0000000,3.2500381),(-3.6343227,1.0000000,3.1013191),(-3.6836642,1.0000000,3.2500381),(-3.6824041,1.0000000,3.2631218),(-3.6343227,1.0000000,3.1013191),(-3.6824041,1.0000000,3.2631218),(-3.6803040,1.0000000,3.2761260),(-3.6343227,1.0000000,3.1013191),(-3.6803040,1.0000000,3.2761260),(-3.6773638,1.0000000,3.2890509),(-3.6343227,1.0000000,3.1013191),(-3.6773638,1.0000000,3.2890509),(-3.6735836,1.0000000,3.3018964),(-3.6343227,1.0000000,3.1013191),(-3.6735836,1.0000000,3.3018964),(-3.6689633,1.0000000,3.3146626),(-3.6689633,1.0000000,3.3146626),(-3.6297851,1.0000000,3.3005140),(-3.6334413,1.0000000,3.2907261),(-3.6689633,1.0000000,3.3146626),(-3.6334413,1.0000000,3.2907261),(-3.6364328,1.0000000,3.2806107),(-3.6689633,1.0000000,3.3146626),(-3.6364328,1.0000000,3.2806107),(-3.6387595,1.0000000,3.2701679),(-3.6689633,1.0000000,3.3146626),(-3.6387595,1.0000000,3.2701679),(-3.6404214,1.0000000,3.2593977),(-3.6689633,1.0000000,3.3146626),(-3.6404214,1.0000000,3.2593977),(-3.6414185,1.0000000,3.2483001),(-3.6689633,1.0000000,3.3146626),(-3.6414185,1.0000000,3.2483001),(-3.6417509,1.0000000,3.2368751),(-3.6689633,1.0000000,3.3146626),(-3.6417509,1.0000000,3.2368751),(-3.6414152,1.0000000,3.2258717),(-3.6343227,1.0000000,3.1013191),(-3.6689633,1.0000000,3.3146626),(-3.6414152,1.0000000,3.2258717),(-3.6343227,1.0000000,3.1013191),(-3.6414152,1.0000000,3.2258717),(-3.6404082,1.0000000,3.2150866),(-3.6343227,1.0000000,3.1013191),(-3.6404082,1.0000000,3.2150866),(-3.6387297,1.0000000,3.2045199),(-3.6343227,1.0000000,3.1013191),(-3.6387297,1.0000000,3.2045199),(-3.6363799,1.0000000,3.1941713),(-3.6343227,1.0000000,3.1013191),(-3.6363799,1.0000000,3.1941713),(-3.6333587,1.0000000,3.1840411),(-3.6343227,1.0000000,3.1013191),(-3.6333587,1.0000000,3.1840411),(-3.6296661,1.0000000,3.1741291),(-3.6343227,1.0000000,3.1013191),(-3.6296661,1.0000000,3.1741291),(-3.6253021,1.0000000,3.1644355),(-3.6343227,1.0000000,3.1013191),(-3.6253021,1.0000000,3.1644355),(-3.6202668,1.0000000,3.1549601),(-3.6343227,1.0000000,3.1013191),(-3.6202668,1.0000000,3.1549601),(-3.6146824,1.0000000,3.1458386),(-3.6343227,1.0000000,3.1013191),(-3.6146824,1.0000000,3.1458386),(-3.6086185,1.0000000,3.1372065),(-3.6343227,1.0000000,3.1013191),(-3.6086185,1.0000000,3.1372065),(-3.6020750,1.0000000,3.1290640),(-3.6343227,1.0000000,3.1013191),(-3.6020750,1.0000000,3.1290640),(-3.5950520,1.0000000,3.1214109),(-3.6343227,1.0000000,3.1013191),(-3.5950520,1.0000000,3.1214109),(-3.5875494,1.0000000,3.1142473),(-3.6343227,1.0000000,3.1013191),(-3.5875494,1.0000000,3.1142473),(-3.5795672,1.0000000,3.1075732),(-3.6343227,1.0000000,3.1013191),(-3.5795672,1.0000000,3.1075732),(-3.5711055,1.0000000,3.1013886),(-3.6343227,1.0000000,3.1013191),(-3.5711055,1.0000000,3.1013886),(-3.5621643,1.0000000,3.0956934),(-3.6343227,1.0000000,3.1013191),(-3.5621643,1.0000000,3.0956934),(-3.5529055,1.0000000,3.0905837),(-3.6343227,1.0000000,3.1013191),(-3.5529055,1.0000000,3.0905837),(-3.5434384,1.0000000,3.0861552),(-3.6343227,1.0000000,3.1013191),(-3.5434384,1.0000000,3.0861552),(-3.5337629,1.0000000,3.0824080),(-3.6343227,1.0000000,3.1013191),(-3.5337629,1.0000000,3.0824080),(-3.5238790,1.0000000,3.0793422),(-3.4019326,1.0000000,3.0487034),(-3.6343227,1.0000000,3.1013191),(-3.5238790,1.0000000,3.0793422),(-3.4019326,1.0000000,3.0487034),(-3.5238790,1.0000000,3.0793422),(-3.5137868,1.0000000,3.0769576),(-3.4019326,1.0000000,3.0487034),(-3.5137868,1.0000000,3.0769576),(-3.5034863,1.0000000,3.0752544),(-3.4019326,1.0000000,3.0487034),(-3.5034863,1.0000000,3.0752544),(-3.4929774,1.0000000,3.0742324),(-3.4019326,1.0000000,3.0487034),(-3.4929774,1.0000000,3.0742324),(-3.4822601,1.0000000,3.0738918),(-3.4019326,1.0000000,3.0487034),(-3.4822601,1.0000000,3.0738918),(-3.4669010,1.0000000,3.0745995),(-3.4019326,1.0000000,3.0487034),(-3.4669010,1.0000000,3.0745995),(-3.4519388,1.0000000,3.0767228),(-3.4019326,1.0000000,3.0487034),(-3.4519388,1.0000000,3.0767228),(-3.4373735,1.0000000,3.0802616),(-3.4019326,1.0000000,3.0487034),(-3.4373735,1.0000000,3.0802616),(-3.4232051,1.0000000,3.0852159),(-3.4019326,1.0000000,3.0487034),(-3.4232051,1.0000000,3.0852159),(-3.5829076,1.0000000,3.3635576),(-3.3458409,1.0000000,2.9512309),(-3.4019326,1.0000000,3.0487034),(-3.5829076,1.0000000,3.3635576),(-3.6254642,1.0000000,3.3099745),(-3.6297851,1.0000000,3.3005140),(-3.6689633,1.0000000,3.3146626),(-3.6204784,1.0000000,3.3191076),(-3.6254642,1.0000000,3.3099745),(-3.6689633,1.0000000,3.3146626),(-3.6136852,1.0000000,3.3295057),(-3.6204784,1.0000000,3.3191076),(-3.6689633,1.0000000,3.3146626),(-3.6051590,1.0000000,3.3403801),(-3.6136852,1.0000000,3.3295057),(-3.6689633,1.0000000,3.3146626),(-3.6002461,1.0000000,3.3459959),(-3.6051590,1.0000000,3.3403801),(-3.6689633,1.0000000,3.3146626),(-3.5948998,1.0000000,3.3517307),(-3.6002461,1.0000000,3.3459959),(-3.6689633,1.0000000,3.3146626),(-3.5891203,1.0000000,3.3575846),(-3.5948998,1.0000000,3.3517307),(-3.6689633,1.0000000,3.3146626),(-3.5829076,1.0000000,3.3635576),(-3.5891203,1.0000000,3.3575846),(-3.6689633,1.0000000,3.3146626),(-3.5829076,1.0000000,3.3635576),(-3.6689633,1.0000000,3.3146626),(-3.6635030,1.0000000,3.3273494),(-3.5829076,1.0000000,3.3635576),(-3.6635030,1.0000000,3.3273494),(-3.6572026,1.0000000,3.3399568),(-3.5829076,1.0000000,3.3635576),(-3.6572026,1.0000000,3.3399568),(-3.6521838,1.0000000,3.3486285),(-3.5829076,1.0000000,3.3635576),(-3.6521838,1.0000000,3.3486285),(-3.6467052,1.0000000,3.3569695),(-3.5829076,1.0000000,3.3635576),(-3.6467052,1.0000000,3.3569695),(-3.6407670,1.0000000,3.3649797),(-3.5829076,1.0000000,3.3635576),(-3.6407670,1.0000000,3.3649797),(-3.6343690,1.0000000,3.3726593),(-3.5829076,1.0000000,3.3635576),(-3.6343690,1.0000000,3.3726593),(-3.6275114,1.0000000,3.3800081),(-3.5829076,1.0000000,3.3635576),(-3.6275114,1.0000000,3.3800081),(-3.6201940,1.0000000,3.3870261),(-3.5829076,1.0000000,3.3635576),(-3.6201940,1.0000000,3.3870261),(-3.6124169,1.0000000,3.3937135),(-3.5829076,1.0000000,3.3635576),(-3.6124169,1.0000000,3.3937135),(-3.6041801,1.0000000,3.4000701),(-3.5829076,1.0000000,3.3635576),(-3.6041801,1.0000000,3.4000701),(-3.6583668,1.0000000,3.4953201),(-3.3458409,1.0000000,2.9512309),(-3.5829076,1.0000000,3.3635576),(-3.6583668,1.0000000,3.4953201),(-3.3458409,1.0000000,2.9512309),(-3.6583668,1.0000000,3.4953201),(-3.6612243,1.0000000,3.5056918),(-3.3458409,1.0000000,2.9512309),(-3.6612243,1.0000000,3.5056918),(-3.6604834,1.0000000,3.5117243),(-3.3458409,1.0000000,2.9512309),(-3.6604834,1.0000000,3.5117243),(-3.6566205,1.0000000,3.5192384),(-3.3458409,1.0000000,2.9512309),(-3.6566205,1.0000000,3.5192384),(-3.6501118,1.0000000,3.5246359),(-3.3458409,1.0000000,2.9512309),(-3.6501118,1.0000000,3.5246359),(-3.6398459,1.0000000,3.5277051),(-3.3458409,1.0000000,2.9512309),(-3.6398459,1.0000000,3.5277051),(-3.6338134,1.0000000,3.5269643),(-3.3458409,1.0000000,2.9512309),(-3.6338134,1.0000000,3.5269643),(-3.6262463,1.0000000,3.5231013),(-3.3458409,1.0000000,2.9512309),(-3.6262463,1.0000000,3.5231013),(-3.6206901,1.0000000,3.5165926),(-3.3458409,1.0000000,2.9512309),(-3.6206901,1.0000000,3.5165926),(-3.5671384,1.0000000,3.4237768),(-3.5671384,1.0000000,3.4237768),(-3.5570776,1.0000000,3.4282168),(-3.5466861,1.0000000,3.4320648),(-3.5671384,1.0000000,3.4237768),(-3.5466861,1.0000000,3.4320648),(-3.5359639,1.0000000,3.4353209),(-3.5671384,1.0000000,3.4237768),(-3.5359639,1.0000000,3.4353209),(-3.5249109,1.0000000,3.4379849),(-3.5671384,1.0000000,3.4237768),(-3.5249109,1.0000000,3.4379849),(-3.5135272,1.0000000,3.4400569),(-3.5671384,1.0000000,3.4237768),(-3.5135272,1.0000000,3.4400569),(-3.5018128,1.0000000,3.4415369),(-3.5671384,1.0000000,3.4237768),(-3.5018128,1.0000000,3.4415369),(-3.4897676,1.0000000,3.4424249),(-3.5671384,1.0000000,3.4237768),(-3.4897676,1.0000000,3.4424249),(-3.4773918,1.0000000,3.4427209),(-3.5671384,1.0000000,3.4237768),(-3.4773918,1.0000000,3.4427209),(-3.4649315,1.0000000,3.4422877),(-3.5671384,1.0000000,3.4237768),(-3.4649315,1.0000000,3.4422877),(-3.4525805,1.0000000,3.4409879),(-3.5671384,1.0000000,3.4237768),(-3.4525805,1.0000000,3.4409879),(-3.4403385,1.0000000,3.4388216),(-3.5671384,1.0000000,3.4237768),(-3.4403385,1.0000000,3.4388216),(-3.4282057,1.0000000,3.4357888),(-3.5671384,1.0000000,3.4237768),(-3.4282057,1.0000000,3.4357888),(-3.4161821,1.0000000,3.4318895),(-3.5671384,1.0000000,3.4237768),(-3.4161821,1.0000000,3.4318895),(-3.4042675,1.0000000,3.4271237),(-3.5671384,1.0000000,3.4237768),(-3.4042675,1.0000000,3.4271237),(-3.3924622,1.0000000,3.4214914),(-3.5671384,1.0000000,3.4237768),(-3.3924622,1.0000000,3.4214914),(-3.3807659,1.0000000,3.4149926),(-3.5671384,1.0000000,3.4237768),(-3.3807659,1.0000000,3.4149926),(-3.3694550,1.0000000,3.4077761),(-3.5671384,1.0000000,3.4237768),(-3.3694550,1.0000000,3.4077761),(-3.3587526,1.0000000,3.3999378),(-3.5671384,1.0000000,3.4237768),(-3.3587526,1.0000000,3.3999378),(-3.3486587,1.0000000,3.3914777),(-3.5671384,1.0000000,3.4237768),(-3.3486587,1.0000000,3.3914777),(-3.3391734,1.0000000,3.3823959),(-3.5671384,1.0000000,3.4237768),(-3.3391734,1.0000000,3.3823959),(-3.3302966,1.0000000,3.3726923),(-3.3302966,1.0000000,3.3726923),(-3.3220284,1.0000000,3.3623670),(-3.3143687,1.0000000,3.3514198),(-3.3302966,1.0000000,3.3726923),(-3.3143687,1.0000000,3.3514198),(-3.3073176,1.0000000,3.3398509),(-3.3302966,1.0000000,3.3726923),(-3.3073176,1.0000000,3.3398509),(-3.3009924,1.0000000,3.3278703),(-3.3302966,1.0000000,3.3726923),(-3.3009924,1.0000000,3.3278703),(-3.2955106,1.0000000,3.3156349),(-3.3302966,1.0000000,3.3726923),(-3.2955106,1.0000000,3.3156349),(-3.2908721,1.0000000,3.3031449),(-3.3302966,1.0000000,3.3726923),(-3.2908721,1.0000000,3.3031449),(-3.2870770,1.0000000,3.2904003),(-3.3302966,1.0000000,3.3726923),(-3.2870770,1.0000000,3.2904003),(-3.2841252,1.0000000,3.2774010),(-3.3302966,1.0000000,3.3726923),(-3.2841252,1.0000000,3.2774010),(-3.2820168,1.0000000,3.2641470),(-3.3302966,1.0000000,3.3726923),(-3.2820168,1.0000000,3.2641470),(-3.2807518,1.0000000,3.2506384),(-3.3302966,1.0000000,3.3726923),(-3.2807518,1.0000000,3.2506384),(-3.2803301,1.0000000,3.2368751),(-3.3302966,1.0000000,3.3726923),(-3.2803301,1.0000000,3.2368751),(-3.2807501,1.0000000,3.2230688),(-3.3302966,1.0000000,3.3726923),(-3.2807501,1.0000000,3.2230688),(-3.2820102,1.0000000,3.2095370),(-3.3302966,1.0000000,3.3726923),(-3.2820102,1.0000000,3.2095370),(-3.2841103,1.0000000,3.1962797),(-3.3302966,1.0000000,3.3726923),(-3.2841103,1.0000000,3.1962797),(-3.2870505,1.0000000,3.1832970),(-3.3302966,1.0000000,3.3726923),(-3.2870505,1.0000000,3.1832970),(-3.2908307,1.0000000,3.1705887),(-3.3302966,1.0000000,3.3726923),(-3.2908307,1.0000000,3.1705887),(-3.2954510,1.0000000,3.1581549),(-3.3302966,1.0000000,3.3726923),(-3.2954510,1.0000000,3.1581549),(-3.3009114,1.0000000,3.1459957),(-3.3302966,1.0000000,3.3726923),(-3.3009114,1.0000000,3.1459957),(-3.3072118,1.0000000,3.1341109),(-3.3072118,1.0000000,3.1341109),(-3.3440418,1.0000000,3.1549601),(-3.3391056,1.0000000,3.1644338),(-3.3072118,1.0000000,3.1341109),(-3.3391056,1.0000000,3.1644338),(-3.3348276,1.0000000,3.1741225),(-3.3072118,1.0000000,3.1341109),(-3.3348276,1.0000000,3.1741225),(-3.3312078,1.0000000,3.1840262),(-3.3072118,1.0000000,3.1341109),(-3.3312078,1.0000000,3.1840262),(-3.3282461,1.0000000,3.1941449),(-3.3072118,1.0000000,3.1341109),(-3.3282461,1.0000000,3.1941449),(-3.3259426,1.0000000,3.2044785),(-3.3072118,1.0000000,3.1341109),(-3.3259426,1.0000000,3.2044785),(-3.3242972,1.0000000,3.2150271),(-3.3072118,1.0000000,3.1341109),(-3.3242972,1.0000000,3.2150271),(-3.3233100,1.0000000,3.2257907),(-3.3072118,1.0000000,3.1341109),(-3.3233100,1.0000000,3.2257907),(-3.3229809,1.0000000,3.2367693),(-3.3072118,1.0000000,3.1341109),(-3.3229809,1.0000000,3.2367693),(-3.3233150,1.0000000,3.2477511),(-3.3302966,1.0000000,3.3726923),(-3.3072118,1.0000000,3.1341109),(-3.3233150,1.0000000,3.2477511),(-3.3302966,1.0000000,3.3726923),(-3.3233150,1.0000000,3.2477511),(-3.3243171,1.0000000,3.2585246),(-3.3302966,1.0000000,3.3726923),(-3.3243171,1.0000000,3.2585246),(-3.3259872,1.0000000,3.2690898),(-3.3302966,1.0000000,3.3726923),(-3.3259872,1.0000000,3.2690898),(-3.3283255,1.0000000,3.2794465),(-3.3302966,1.0000000,3.3726923),(-3.3283255,1.0000000,3.2794465),(-3.3313318,1.0000000,3.2895950),(-3.3302966,1.0000000,3.3726923),(-3.3313318,1.0000000,3.2895950),(-3.3350062,1.0000000,3.2995350),(-3.3302966,1.0000000,3.3726923),(-3.3350062,1.0000000,3.2995350),(-3.3393487,1.0000000,3.3092667),(-3.3302966,1.0000000,3.3726923),(-3.3393487,1.0000000,3.3092667),(-3.3443593,1.0000000,3.3187901),(-3.3302966,1.0000000,3.3726923),(-3.3443593,1.0000000,3.3187901),(-3.3499436,1.0000000,3.3279844),(-3.3302966,1.0000000,3.3726923),(-3.3499436,1.0000000,3.3279844),(-3.3560075,1.0000000,3.3366759),(-3.3302966,1.0000000,3.3726923),(-3.3560075,1.0000000,3.3366759),(-3.3625510,1.0000000,3.3448648),(-3.3302966,1.0000000,3.3726923),(-3.3625510,1.0000000,3.3448648),(-3.3695740,1.0000000,3.3525509),(-3.3302966,1.0000000,3.3726923),(-3.3695740,1.0000000,3.3525509),(-3.3770766,1.0000000,3.3597344),(-3.3302966,1.0000000,3.3726923),(-3.3770766,1.0000000,3.3597344),(-3.3850588,1.0000000,3.3664151),(-3.3302966,1.0000000,3.3726923),(-3.3850588,1.0000000,3.3664151),(-3.3935205,1.0000000,3.3725931),(-3.3302966,1.0000000,3.3726923),(-3.3935205,1.0000000,3.3725931),(-3.4024618,1.0000000,3.3782684),(-3.3302966,1.0000000,3.3726923),(-3.4024618,1.0000000,3.3782684),(-3.4116693,1.0000000,3.3833782),(-3.3302966,1.0000000,3.3726923),(-3.4116693,1.0000000,3.3833782),(-3.4209297,1.0000000,3.3878066),(-3.3302966,1.0000000,3.3726923),(-3.4209297,1.0000000,3.3878066),(-3.4302430,1.0000000,3.3915538),(-3.3302966,1.0000000,3.3726923),(-3.4302430,1.0000000,3.3915538),(-3.4396093,1.0000000,3.3946197),(-3.3302966,1.0000000,3.3726923),(-3.4396093,1.0000000,3.3946197),(-3.4490284,1.0000000,3.3970042),(-3.5671384,1.0000000,3.4237768),(-3.3302966,1.0000000,3.3726923),(-3.4490284,1.0000000,3.3970042),(-3.5671384,1.0000000,3.4237768),(-3.4490284,1.0000000,3.3970042),(-3.4585005,1.0000000,3.3987075),(-3.5671384,1.0000000,3.4237768),(-3.4585005,1.0000000,3.3987075),(-3.4680255,1.0000000,3.3997294),(-3.5671384,1.0000000,3.4237768),(-3.4680255,1.0000000,3.3997294),(-3.4776034,1.0000000,3.4000701),(-3.5671384,1.0000000,3.4237768),(-3.4776034,1.0000000,3.4000701),(-3.4782384,1.0000000,3.4000701),(-3.5671384,1.0000000,3.4237768),(-3.4782384,1.0000000,3.4000701),(-3.4876096,1.0000000,3.3998617),(-3.5671384,1.0000000,3.4237768),(-3.4876096,1.0000000,3.3998617),(-3.4967262,1.0000000,3.3992366),(-3.5671384,1.0000000,3.4237768),(-3.4967262,1.0000000,3.3992366),(-3.5055881,1.0000000,3.3981949),(-3.5671384,1.0000000,3.4237768),(-3.5055881,1.0000000,3.3981949),(-3.5141953,1.0000000,3.3967363),(-3.5671384,1.0000000,3.4237768),(-3.5141953,1.0000000,3.3967363),(-3.5225479,1.0000000,3.3948611),(-3.5671384,1.0000000,3.4237768),(-3.5225479,1.0000000,3.3948611),(-3.5306458,1.0000000,3.3925691),(-3.5671384,1.0000000,3.4237768),(-3.5306458,1.0000000,3.3925691),(-3.5384890,1.0000000,3.3898605),(-3.5671384,1.0000000,3.4237768),(-3.5384890,1.0000000,3.3898605),(-3.5460776,1.0000000,3.3867351),(-3.3458409,1.0000000,2.9512309),(-3.5671384,1.0000000,3.4237768),(-3.5460776,1.0000000,3.3867351),(-3.3458409,1.0000000,2.9512309),(-3.5460776,1.0000000,3.3867351),(-3.3856343,1.0000000,3.1072293),(-3.3458409,1.0000000,2.9512309),(-3.3856343,1.0000000,3.1072293),(-3.3735891,1.0000000,3.1175149),(-3.3482800,1.0000000,3.1480330),(-3.3440418,1.0000000,3.1549601),(-3.3072118,1.0000000,3.1341109),(-3.3527928,1.0000000,3.1413803),(-3.3482800,1.0000000,3.1480330),(-3.3072118,1.0000000,3.1341109),(-3.3626420,1.0000000,3.1288986),(-3.3527928,1.0000000,3.1413803),(-3.3072118,1.0000000,3.1341109),(-3.3735891,1.0000000,3.1175149),(-3.3626420,1.0000000,3.1288986),(-3.3072118,1.0000000,3.1341109),(-3.3735891,1.0000000,3.1175149),(-3.3072118,1.0000000,3.1341109),(-3.3130061,1.0000000,3.1246058),(-3.3735891,1.0000000,3.1175149),(-3.3130061,1.0000000,3.1246058),(-3.3191709,1.0000000,3.1155107),(-3.3735891,1.0000000,3.1175149),(-3.3191709,1.0000000,3.1155107),(-3.3257061,1.0000000,3.1068258),(-3.3735891,1.0000000,3.1175149),(-3.3257061,1.0000000,3.1068258),(-3.3326118,1.0000000,3.0985509),(-3.3735891,1.0000000,3.1175149),(-3.3326118,1.0000000,3.0985509),(-3.3398878,1.0000000,3.0906862),(-3.3735891,1.0000000,3.1175149),(-3.3398878,1.0000000,3.0906862),(-3.3475343,1.0000000,3.0832315),(-3.3735891,1.0000000,3.1175149),(-3.3475343,1.0000000,3.0832315),(-3.3555511,1.0000000,3.0761870),(-3.3735891,1.0000000,3.1175149),(-3.3555511,1.0000000,3.0761870),(-3.3639384,1.0000000,3.0695526),(-3.3458409,1.0000000,2.9512309),(-3.3735891,1.0000000,3.1175149),(-3.3639384,1.0000000,3.0695526),(-3.3458409,1.0000000,2.9512309),(-3.3639384,1.0000000,3.0695526),(-3.3083759,1.0000000,2.9725034),(-3.3458409,1.0000000,2.9512309),(-3.3083759,1.0000000,2.9725034),(-3.3056243,1.0000000,2.9623434),(-3.3458409,1.0000000,2.9512309),(-3.3056243,1.0000000,2.9623434),(-3.3062593,1.0000000,2.9563109),(-3.3458409,1.0000000,2.9512309),(-3.3062593,1.0000000,2.9563109),(-3.3101751,1.0000000,2.9486115),(-3.3458409,1.0000000,2.9512309),(-3.3101751,1.0000000,2.9486115),(-3.3164193,1.0000000,2.9430818),(-3.3458409,1.0000000,2.9512309),(-3.3164193,1.0000000,2.9430818),(-3.3268968,1.0000000,2.9403301),(-3.3458409,1.0000000,2.9512309),(-3.3268968,1.0000000,2.9403301),(-3.3329293,1.0000000,2.9410709),(-3.3458409,1.0000000,2.9512309),(-3.3329293,1.0000000,2.9410709),(-3.3401788,1.0000000,2.9446163),(-4.0974693,1.0000000,3.1290309),(-4.0976809,1.0000000,3.1241626),(-4.1000737,1.0000000,3.1149534),(-4.0974693,1.0000000,3.1290309),(-4.1000737,1.0000000,3.1149534),(-4.1028601,1.0000000,3.1063231),(-4.0974693,1.0000000,3.1290309),(-4.1028601,1.0000000,3.1063231),(-4.1060401,1.0000000,3.0982715),(-4.0974693,1.0000000,3.1290309),(-4.1060401,1.0000000,3.0982715),(-4.1096136,1.0000000,3.0907986),(-4.0974693,1.0000000,3.1290309),(-4.1096136,1.0000000,3.0907986),(-4.1135807,1.0000000,3.0839046),(-4.0974693,1.0000000,3.1290309),(-4.1135807,1.0000000,3.0839046),(-4.1179414,1.0000000,3.0775893),(-4.0974693,1.0000000,3.1290309),(-4.1179414,1.0000000,3.0775893),(-4.1278434,1.0000000,3.0666951),(-4.0974693,1.0000000,3.1290309),(-4.1278434,1.0000000,3.0666951),(-4.1359413,1.0000000,3.0597498),(-4.0974693,1.0000000,3.1290309),(-4.1359413,1.0000000,3.0597498),(-4.1442542,1.0000000,3.0537305),(-4.0974693,1.0000000,3.1290309),(-4.1442542,1.0000000,3.0537305),(-4.1527821,1.0000000,3.0486373),(-4.0974693,1.0000000,3.1290309),(-4.1527821,1.0000000,3.0486373),(-4.1615249,1.0000000,3.0444701),(-4.0974693,1.0000000,3.1290309),(-4.1615249,1.0000000,3.0444701),(-4.1704827,1.0000000,3.0412289),(-4.0974693,1.0000000,3.1290309),(-4.1704827,1.0000000,3.0412289),(-4.1796555,1.0000000,3.0389138),(-4.0974693,1.0000000,3.1290309),(-4.1796555,1.0000000,3.0389138),(-4.1890432,1.0000000,3.0375248),(-4.0974693,1.0000000,3.1290309),(-4.1890432,1.0000000,3.0375248),(-4.1986459,1.0000000,3.0370618),(-4.0974693,1.0000000,3.1290309),(-4.1986459,1.0000000,3.0370618),(-4.2081709,1.0000000,3.0375330),(-4.0974693,1.0000000,3.1290309),(-4.2081709,1.0000000,3.0375330),(-4.2174313,1.0000000,3.0389469),(-4.0974693,1.0000000,3.1290309),(-4.2174313,1.0000000,3.0389469),(-4.2264272,1.0000000,3.0413034),(-4.0974693,1.0000000,3.1290309),(-4.2264272,1.0000000,3.0413034),(-4.2351584,1.0000000,3.0446024),(-4.2351584,1.0000000,3.0446024),(-4.2436251,1.0000000,3.0488440),(-4.2518272,1.0000000,3.0540282),(-4.2351584,1.0000000,3.0446024),(-4.2518272,1.0000000,3.0540282),(-4.2597647,1.0000000,3.0601549),(-4.2351584,1.0000000,3.0446024),(-4.2597647,1.0000000,3.0601549),(-4.2674376,1.0000000,3.0672243),(-4.2351584,1.0000000,3.0446024),(-4.2674376,1.0000000,3.0672243),(-4.2754495,1.0000000,3.0760481),(-4.2351584,1.0000000,3.0446024),(-4.2754495,1.0000000,3.0760481),(-4.2823932,1.0000000,3.0855334),(-4.2351584,1.0000000,3.0446024),(-4.2823932,1.0000000,3.0855334),(-4.2882686,1.0000000,3.0956802),(-4.2351584,1.0000000,3.0446024),(-4.2882686,1.0000000,3.0956802),(-4.2930757,1.0000000,3.1064884),(-4.2351584,1.0000000,3.0446024),(-4.2930757,1.0000000,3.1064884),(-4.2968146,1.0000000,3.1179581),(-4.2351584,1.0000000,3.0446024),(-4.2968146,1.0000000,3.1179581),(-4.2994852,1.0000000,3.1300893),(-4.2351584,1.0000000,3.0446024),(-4.2994852,1.0000000,3.1300893),(-4.3010876,1.0000000,3.1428819),(-4.2351584,1.0000000,3.0446024),(-4.3010876,1.0000000,3.1428819),(-4.3016218,1.0000000,3.1563359),(-4.2351584,1.0000000,3.0446024),(-4.3016218,1.0000000,3.1563359),(-4.3014928,1.0000000,3.1666642),(-4.2351584,1.0000000,3.0446024),(-4.3014928,1.0000000,3.1666642),(-4.3011058,1.0000000,3.1765881),(-4.2351584,1.0000000,3.0446024),(-4.3011058,1.0000000,3.1765881),(-4.3004609,1.0000000,3.1861077),(-4.2351584,1.0000000,3.0446024),(-4.3004609,1.0000000,3.1861077),(-4.2995580,1.0000000,3.1952231),(-4.2351584,1.0000000,3.0446024),(-4.2995580,1.0000000,3.1952231),(-4.2983971,1.0000000,3.2039340),(-4.2351584,1.0000000,3.0446024),(-4.2983971,1.0000000,3.2039340),(-4.2969783,1.0000000,3.2122407),(-4.2351584,1.0000000,3.0446024),(-4.2969783,1.0000000,3.2122407),(-4.2953015,1.0000000,3.2201431),(-4.2351584,1.0000000,3.0446024),(-4.2953015,1.0000000,3.2201431),(-4.2933668,1.0000000,3.2276411),(-4.2351584,1.0000000,3.0446024),(-4.2933668,1.0000000,3.2276411),(-4.2887233,1.0000000,3.2414243),(-4.2887233,1.0000000,3.2414243),(-4.2830480,1.0000000,3.2535901),(-4.2763408,1.0000000,3.2641387),(-4.2887233,1.0000000,3.2414243),(-4.2763408,1.0000000,3.2641387),(-4.2686018,1.0000000,3.2730701),(-4.2887233,1.0000000,3.2414243),(-4.2686018,1.0000000,3.2730701),(-4.2606527,1.0000000,3.2800154),(-4.2887233,1.0000000,3.2414243),(-4.2606527,1.0000000,3.2800154),(-4.2524688,1.0000000,3.2860347),(-4.2887233,1.0000000,3.2414243),(-4.2524688,1.0000000,3.2860347),(-4.2440501,1.0000000,3.2911279),(-4.2887233,1.0000000,3.2414243),(-4.2440501,1.0000000,3.2911279),(-4.2353965,1.0000000,3.2952951),(-4.2887233,1.0000000,3.2414243),(-4.2353965,1.0000000,3.2952951),(-4.2265082,1.0000000,3.2985362),(-4.2887233,1.0000000,3.2414243),(-4.2265082,1.0000000,3.2985362),(-4.2173850,1.0000000,3.3008513),(-4.2887233,1.0000000,3.2414243),(-4.2173850,1.0000000,3.3008513),(-4.2080271,1.0000000,3.3022404),(-4.2887233,1.0000000,3.2414243),(-4.2080271,1.0000000,3.3022404),(-4.1984343,1.0000000,3.3027034),(-4.2887233,1.0000000,3.2414243),(-4.1984343,1.0000000,3.3027034),(-4.1899031,1.0000000,3.3023777),(-4.2887233,1.0000000,3.2414243),(-4.1899031,1.0000000,3.3023777),(-4.1816663,1.0000000,3.3014003),(-4.2887233,1.0000000,3.2414243),(-4.1816663,1.0000000,3.3014003),(-4.1737238,1.0000000,3.2997715),(-4.2887233,1.0000000,3.2414243),(-4.1737238,1.0000000,3.2997715),(-4.1660757,1.0000000,3.2974911),(-4.2887233,1.0000000,3.2414243),(-4.1660757,1.0000000,3.2974911),(-4.1516625,1.0000000,3.2909758),(-4.2887233,1.0000000,3.2414243),(-4.1516625,1.0000000,3.2909758),(-4.1384268,1.0000000,3.2818543),(-4.1426601,1.0000000,3.3996468),(-4.2701893,1.0000000,3.3996468),(-4.2783384,1.0000000,3.4012343),(-4.1426601,1.0000000,3.3996468),(-4.2783384,1.0000000,3.4012343),(-4.2852176,1.0000000,3.4059968),(-4.1426601,1.0000000,3.3996468),(-4.2852176,1.0000000,3.4059968),(-4.2899007,1.0000000,3.4129288),(-4.1426601,1.0000000,3.3996468),(-4.2899007,1.0000000,3.4129288),(-4.2914618,1.0000000,3.4210251),(-4.1426601,1.0000000,3.3996468),(-4.2914618,1.0000000,3.4210251),(-4.2899007,1.0000000,3.4290949),(-4.1426601,1.0000000,3.3996468),(-4.2899007,1.0000000,3.4290949),(-4.2852176,1.0000000,3.4359476),(-4.1426601,1.0000000,3.3996468),(-4.2852176,1.0000000,3.4359476),(-4.2783384,1.0000000,3.4407101),(-4.1426601,1.0000000,3.3996468),(-4.2783384,1.0000000,3.4407101),(-4.2701893,1.0000000,3.4422976),(-4.1426601,1.0000000,3.3996468),(-4.2701893,1.0000000,3.4422976),(-4.1229751,1.0000000,3.4422976),(-4.1384268,1.0000000,3.2818543),(-4.1426601,1.0000000,3.3996468),(-4.1229751,1.0000000,3.4422976),(-4.1384268,1.0000000,3.2818543),(-4.1229751,1.0000000,3.4422976),(-4.1149318,1.0000000,3.4408953),(-4.1384268,1.0000000,3.2818543),(-4.1149318,1.0000000,3.4408953),(-4.1079468,1.0000000,3.4366884),(-4.1384268,1.0000000,3.2818543),(-4.1079468,1.0000000,3.4366884),(-4.1031843,1.0000000,3.4301797),(-4.1384268,1.0000000,3.2818543),(-4.1031843,1.0000000,3.4301797),(-4.1015968,1.0000000,3.4222951),(-4.1384268,1.0000000,3.2818543),(-4.1015968,1.0000000,3.4222951),(-4.0935534,1.0000000,3.2158143),(-4.1384268,1.0000000,3.2818543),(-4.0935534,1.0000000,3.2158143),(-4.0948763,1.0000000,3.2078768),(-4.1384268,1.0000000,3.2818543),(-4.0948763,1.0000000,3.2078768),(-4.0988451,1.0000000,3.2007859),(-4.1384268,1.0000000,3.2818543),(-4.0988451,1.0000000,3.2007859),(-4.1053538,1.0000000,3.1953884),(-4.1384268,1.0000000,3.2818543),(-4.1053538,1.0000000,3.1953884),(-4.1136618,1.0000000,3.1935893),(-4.1384268,1.0000000,3.2818543),(-4.1136618,1.0000000,3.1935893),(-4.1217845,1.0000000,3.1949386),(-4.1384268,1.0000000,3.2818543),(-4.1217845,1.0000000,3.1949386),(-4.1290076,1.0000000,3.1989868),(-4.1384268,1.0000000,3.2818543),(-4.1290076,1.0000000,3.1989868),(-4.1352518,1.0000000,3.2091468),(-4.1384268,1.0000000,3.2818543),(-4.1352518,1.0000000,3.2091468),(-4.1386516,1.0000000,3.2176597),(-4.1384268,1.0000000,3.2818543),(-4.1386516,1.0000000,3.2176597),(-4.1435597,1.0000000,3.2260536),(-4.1384268,1.0000000,3.2818543),(-4.1435597,1.0000000,3.2260536),(-4.1499758,1.0000000,3.2343285),(-4.1384268,1.0000000,3.2818543),(-4.1499758,1.0000000,3.2343285),(-4.1579001,1.0000000,3.2424843),(-4.1384268,1.0000000,3.2818543),(-4.1579001,1.0000000,3.2424843),(-4.1674582,1.0000000,3.2502630),(-4.1384268,1.0000000,3.2818543),(-4.1674582,1.0000000,3.2502630),(-4.1773999,1.0000000,3.2558193),(-4.1384268,1.0000000,3.2818543),(-4.1773999,1.0000000,3.2558193),(-4.1877252,1.0000000,3.2591530),(-4.1384268,1.0000000,3.2818543),(-4.1877252,1.0000000,3.2591530),(-4.1984343,1.0000000,3.2602643),(-4.1384268,1.0000000,3.2818543),(-4.1984343,1.0000000,3.2602643),(-4.2090837,1.0000000,3.2591530),(-4.2887233,1.0000000,3.2414243),(-4.1384268,1.0000000,3.2818543),(-4.2090837,1.0000000,3.2591530),(-4.2887233,1.0000000,3.2414243),(-4.2090837,1.0000000,3.2591530),(-4.2193363,1.0000000,3.2558193),(-4.2887233,1.0000000,3.2414243),(-4.2193363,1.0000000,3.2558193),(-4.2291921,1.0000000,3.2502630),(-4.2887233,1.0000000,3.2414243),(-4.2291921,1.0000000,3.2502630),(-4.2386509,1.0000000,3.2424843),(-4.2887233,1.0000000,3.2414243),(-4.2386509,1.0000000,3.2424843),(-4.2476798,1.0000000,3.2296255),(-4.2887233,1.0000000,3.2414243),(-4.2476798,1.0000000,3.2296255),(-4.2512269,1.0000000,3.2210133),(-4.2887233,1.0000000,3.2414243),(-4.2512269,1.0000000,3.2210133),(-4.2541290,1.0000000,3.2109459),(-4.2887233,1.0000000,3.2414243),(-4.2541290,1.0000000,3.2109459),(-4.2563863,1.0000000,3.1994233),(-4.2887233,1.0000000,3.2414243),(-4.2563863,1.0000000,3.1994233),(-4.2579986,1.0000000,3.1864455),(-4.2887233,1.0000000,3.2414243),(-4.2579986,1.0000000,3.1864455),(-4.2589660,1.0000000,3.1720125),(-4.2887233,1.0000000,3.2414243),(-4.2589660,1.0000000,3.1720125),(-4.2592884,1.0000000,3.1561243),(-4.2887233,1.0000000,3.2414243),(-4.2592884,1.0000000,3.1561243),(-4.2589445,1.0000000,3.1469796),(-4.2887233,1.0000000,3.2414243),(-4.2589445,1.0000000,3.1469796),(-4.2579126,1.0000000,3.1383310),(-4.2887233,1.0000000,3.2414243),(-4.2579126,1.0000000,3.1383310),(-4.2561928,1.0000000,3.1301785),(-4.2351584,1.0000000,3.0446024),(-4.2887233,1.0000000,3.2414243),(-4.2561928,1.0000000,3.1301785),(-4.2351584,1.0000000,3.0446024),(-4.2561928,1.0000000,3.1301785),(-4.2537851,1.0000000,3.1225222),(-4.2351584,1.0000000,3.0446024),(-4.2537851,1.0000000,3.1225222),(-4.2469059,1.0000000,3.1086977),(-4.2351584,1.0000000,3.0446024),(-4.2469059,1.0000000,3.1086977),(-4.2372751,1.0000000,3.0968576),(-4.2351584,1.0000000,3.0446024),(-4.2372751,1.0000000,3.0968576),(-4.2281470,1.0000000,3.0892640),(-4.2351584,1.0000000,3.0446024),(-4.2281470,1.0000000,3.0892640),(-4.2185426,1.0000000,3.0838401),(-4.2351584,1.0000000,3.0446024),(-4.2185426,1.0000000,3.0838401),(-4.2084620,1.0000000,3.0805857),(-4.2351584,1.0000000,3.0446024),(-4.2084620,1.0000000,3.0805857),(-4.1979051,1.0000000,3.0795009),(-4.2351584,1.0000000,3.0446024),(-4.1979051,1.0000000,3.0795009),(-4.1876459,1.0000000,3.0806254),(-4.2351584,1.0000000,3.0446024),(-4.1876459,1.0000000,3.0806254),(-4.1773999,1.0000000,3.0839988),(-4.2351584,1.0000000,3.0446024),(-4.1773999,1.0000000,3.0839988),(-4.1671671,1.0000000,3.0896212),(-4.0974693,1.0000000,3.1290309),(-4.2351584,1.0000000,3.0446024),(-4.1671671,1.0000000,3.0896212),(-4.0974693,1.0000000,3.1290309),(-4.1671671,1.0000000,3.0896212),(-4.1569476,1.0000000,3.0974926),(-4.0974693,1.0000000,3.1290309),(-4.1569476,1.0000000,3.0974926),(-4.1467347,1.0000000,3.1117801),(-4.0974693,1.0000000,3.1290309),(-4.1467347,1.0000000,3.1117801),(-4.1427791,1.0000000,3.1217813),(-4.0974693,1.0000000,3.1290309),(-4.1427791,1.0000000,3.1217813),(-4.1395909,1.0000000,3.1336876),(-4.0974693,1.0000000,3.1290309),(-4.1395909,1.0000000,3.1336876),(-4.1351856,1.0000000,3.1409570),(-4.0974693,1.0000000,3.1290309),(-4.1351856,1.0000000,3.1409570),(-4.1303305,1.0000000,3.1461495),(-4.0974693,1.0000000,3.1290309),(-4.1303305,1.0000000,3.1461495),(-4.1192709,1.0000000,3.1503034),(-4.0974693,1.0000000,3.1290309),(-4.1192709,1.0000000,3.1503034),(-4.1185301,1.0000000,3.1503034),(-4.0974693,1.0000000,3.1290309),(-4.1185301,1.0000000,3.1503034),(-4.1111416,1.0000000,3.1487358),(-4.0974693,1.0000000,3.1290309),(-4.1111416,1.0000000,3.1487358),(-4.1051686,1.0000000,3.1446678),(-3.8681284,1.0000000,3.4429326),(-3.8563809,1.0000000,3.4382759),(-3.7956326,1.0000000,3.3881109),(-3.8681284,1.0000000,3.4429326),(-3.7956326,1.0000000,3.3881109),(-3.7898647,1.0000000,3.3813376),(-3.8681284,1.0000000,3.4429326),(-3.7898647,1.0000000,3.3813376),(-3.7873776,1.0000000,3.3741409),(-3.8681284,1.0000000,3.4429326),(-3.7873776,1.0000000,3.3741409),(-3.7873776,1.0000000,3.3707543),(-3.8681284,1.0000000,3.4429326),(-3.7873776,1.0000000,3.3707543),(-3.7907643,1.0000000,3.3579484),(-3.8681284,1.0000000,3.4429326),(-3.7907643,1.0000000,3.3579484),(-3.7966909,1.0000000,3.3522599),(-3.8681284,1.0000000,3.4429326),(-3.7966909,1.0000000,3.3522599),(-3.8047343,1.0000000,3.3493759),(-3.8681284,1.0000000,3.4429326),(-3.8047343,1.0000000,3.3493759),(-3.8088618,1.0000000,3.3491643),(-3.8681284,1.0000000,3.4429326),(-3.8088618,1.0000000,3.3491643),(-3.8203976,1.0000000,3.3528684),(-3.8681284,1.0000000,3.4429326),(-3.8203976,1.0000000,3.3528684),(-3.8474909,1.0000000,3.3767868),(-3.8681284,1.0000000,3.4429326),(-3.8474909,1.0000000,3.3767868),(-3.8474909,1.0000000,3.0582284),(-3.8681284,1.0000000,3.4429326),(-3.8474909,1.0000000,3.0582284),(-3.8490255,1.0000000,3.0500263),(-3.8681284,1.0000000,3.4429326),(-3.8490255,1.0000000,3.0500263),(-3.8536293,1.0000000,3.0432001),(-3.8681284,1.0000000,3.4429326),(-3.8536293,1.0000000,3.0432001),(-3.8604555,1.0000000,3.0385963),(-3.8681284,1.0000000,3.4429326),(-3.8604555,1.0000000,3.0385963),(-3.8686576,1.0000000,3.0370618),(-3.8681284,1.0000000,3.4429326),(-3.8686576,1.0000000,3.0370618),(-3.8769390,1.0000000,3.0385963),(-3.8681284,1.0000000,3.4429326),(-3.8769390,1.0000000,3.0385963),(-3.8837918,1.0000000,3.0432001),(-3.8681284,1.0000000,3.4429326),(-3.8837918,1.0000000,3.0432001),(-3.8883955,1.0000000,3.0500263),(-3.8681284,1.0000000,3.4429326),(-3.8883955,1.0000000,3.0500263),(-3.8899301,1.0000000,3.0582284),(-3.8681284,1.0000000,3.4429326),(-3.8899301,1.0000000,3.0582284),(-3.8899301,1.0000000,3.4209193),(-3.8681284,1.0000000,3.4429326),(-3.8899301,1.0000000,3.4209193),(-3.8870990,1.0000000,3.4322434),(-3.8681284,1.0000000,3.4429326),(-3.8870990,1.0000000,3.4322434),(-3.8786059,1.0000000,3.4397576),(-3.9884609,1.0000000,3.0401045),(-3.9957634,1.0000000,3.0294418),(-4.0064261,1.0000000,3.0221393),(-3.9884609,1.0000000,3.0401045),(-4.0064261,1.0000000,3.0221393),(-4.0189409,1.0000000,3.0197051),(-3.9884609,1.0000000,3.0401045),(-4.0189409,1.0000000,3.0197051),(-4.0314293,1.0000000,3.0221393),(-3.9884609,1.0000000,3.0401045),(-4.0314293,1.0000000,3.0221393),(-4.0420126,1.0000000,3.0294418),(-3.9884609,1.0000000,3.0401045),(-4.0420126,1.0000000,3.0294418),(-4.0493151,1.0000000,3.0401045),(-3.9884609,1.0000000,3.0401045),(-4.0493151,1.0000000,3.0401045),(-4.0517493,1.0000000,3.0526193),(-3.9884609,1.0000000,3.0401045),(-4.0517493,1.0000000,3.0526193),(-4.0493151,1.0000000,3.0651340),(-3.9884609,1.0000000,3.0401045),(-4.0493151,1.0000000,3.0651340),(-4.0420126,1.0000000,3.0757968),(-3.9884609,1.0000000,3.0401045),(-4.0420126,1.0000000,3.0757968),(-4.0314293,1.0000000,3.0830993),(-3.9884609,1.0000000,3.0401045),(-4.0314293,1.0000000,3.0830993),(-4.0189409,1.0000000,3.0855334),(-3.9884609,1.0000000,3.0401045),(-4.0189409,1.0000000,3.0855334),(-4.0064261,1.0000000,3.0830993),(-3.9884609,1.0000000,3.0401045),(-4.0064261,1.0000000,3.0830993),(-3.9957634,1.0000000,3.0757968),(-3.9884609,1.0000000,3.0401045),(-3.9957634,1.0000000,3.0757968),(-3.9884609,1.0000000,3.0651340),(-3.9884609,1.0000000,3.0401045),(-3.9884609,1.0000000,3.0651340),(-3.9860268,1.0000000,3.0526193),(-5.3403943,1.0000000,3.2153380),(-5.4786126,1.0000000,3.0363738),(-5.4858357,1.0000000,3.0301826),(-5.3403943,1.0000000,3.2153380),(-5.4858357,1.0000000,3.0301826),(-5.4950168,1.0000000,3.0281188),(-5.3403943,1.0000000,3.2153380),(-5.4950168,1.0000000,3.0281188),(-5.5082459,1.0000000,3.0326697),(-5.3403943,1.0000000,3.2153380),(-5.5082459,1.0000000,3.0326697),(-5.5146753,1.0000000,3.0400251),(-5.3403943,1.0000000,3.2153380),(-5.5146753,1.0000000,3.0400251),(-5.5168184,1.0000000,3.0496030),(-5.3403943,1.0000000,3.2153380),(-5.5168184,1.0000000,3.0496030),(-5.5123734,1.0000000,3.0628322),(-5.3403943,1.0000000,3.2153380),(-5.5123734,1.0000000,3.0628322),(-5.3947926,1.0000000,3.2153380),(-5.3947926,1.0000000,3.2153380),(-5.4033651,1.0000000,3.2153380),(-5.4152895,1.0000000,3.2158490),(-5.3403943,1.0000000,3.2153380),(-5.3947926,1.0000000,3.2153380),(-5.4152895,1.0000000,3.2158490),(-5.2540343,1.0000000,3.2153380),(-5.3403943,1.0000000,3.2153380),(-5.4152895,1.0000000,3.2158490),(-5.2540343,1.0000000,3.2153380),(-5.4152895,1.0000000,3.2158490),(-5.4266683,1.0000000,3.2173819),(-5.2540343,1.0000000,3.2153380),(-5.4266683,1.0000000,3.2173819),(-5.4375013,1.0000000,3.2199368),(-5.2540343,1.0000000,3.2153380),(-5.4375013,1.0000000,3.2199368),(-5.4477886,1.0000000,3.2235136),(-5.2540343,1.0000000,3.2153380),(-5.4477886,1.0000000,3.2235136),(-5.4575303,1.0000000,3.2281124),(-5.2540343,1.0000000,3.2153380),(-5.4575303,1.0000000,3.2281124),(-5.4667262,1.0000000,3.2337332),(-5.2540343,1.0000000,3.2153380),(-5.4667262,1.0000000,3.2337332),(-5.4753764,1.0000000,3.2403759),(-5.2540343,1.0000000,3.2153380),(-5.4753764,1.0000000,3.2403759),(-5.4834809,1.0000000,3.2480405),(-5.2540343,1.0000000,3.2153380),(-5.4834809,1.0000000,3.2480405),(-5.4911208,1.0000000,3.2570132),(-5.2540343,1.0000000,3.2153380),(-5.4911208,1.0000000,3.2570132),(-5.4977420,1.0000000,3.2662571),(-5.2540343,1.0000000,3.2153380),(-5.4977420,1.0000000,3.2662571),(-5.5033445,1.0000000,3.2757721),(-5.5033445,1.0000000,3.2757721),(-5.5079284,1.0000000,3.2855584),(-5.4683732,1.0000000,3.3004809),(-5.5033445,1.0000000,3.2757721),(-5.4683732,1.0000000,3.3004809),(-5.4619240,1.0000000,3.2887202),(-5.5033445,1.0000000,3.2757721),(-5.4619240,1.0000000,3.2887202),(-5.4528951,1.0000000,3.2780972),(-5.5033445,1.0000000,3.2757721),(-5.4528951,1.0000000,3.2780972),(-5.4419016,1.0000000,3.2692998),(-5.5033445,1.0000000,3.2757721),(-5.4419016,1.0000000,3.2692998),(-5.4299822,1.0000000,3.2630159),(-5.5033445,1.0000000,3.2757721),(-5.4299822,1.0000000,3.2630159),(-5.4171366,1.0000000,3.2592456),(-5.2540343,1.0000000,3.2153380),(-5.5033445,1.0000000,3.2757721),(-5.4171366,1.0000000,3.2592456),(-5.2540343,1.0000000,3.2153380),(-5.4171366,1.0000000,3.2592456),(-5.4033651,1.0000000,3.2579888),(-5.2540343,1.0000000,3.2153380),(-5.4033651,1.0000000,3.2579888),(-5.2540343,1.0000000,3.2579888),(-5.4722427,1.0000000,3.3133794),(-5.4683732,1.0000000,3.3004809),(-5.5079284,1.0000000,3.2855584),(-5.4735326,1.0000000,3.3274155),(-5.4722427,1.0000000,3.3133794),(-5.5079284,1.0000000,3.2855584),(-5.4722427,1.0000000,3.3413194),(-5.4735326,1.0000000,3.3274155),(-5.5079284,1.0000000,3.2855584),(-5.4683732,1.0000000,3.3541384),(-5.4722427,1.0000000,3.3413194),(-5.5079284,1.0000000,3.2855584),(-5.4619240,1.0000000,3.3658727),(-5.4683732,1.0000000,3.3541384),(-5.5079284,1.0000000,3.2855584),(-5.4619240,1.0000000,3.3658727),(-5.5079284,1.0000000,3.2855584),(-5.5114937,1.0000000,3.2956159),(-5.4619240,1.0000000,3.3658727),(-5.5114937,1.0000000,3.2956159),(-5.5140403,1.0000000,3.3059446),(-5.4528951,1.0000000,3.3765222),(-5.4619240,1.0000000,3.3658727),(-5.5140403,1.0000000,3.3059446),(-5.4528951,1.0000000,3.3765222),(-5.5140403,1.0000000,3.3059446),(-5.5155683,1.0000000,3.3165444),(-5.4528951,1.0000000,3.3765222),(-5.5155683,1.0000000,3.3165444),(-5.5160776,1.0000000,3.3274155),(-5.4421795,1.0000000,3.3853196),(-5.4528951,1.0000000,3.3765222),(-5.5160776,1.0000000,3.3274155),(-5.4421795,1.0000000,3.3853196),(-5.5160776,1.0000000,3.3274155),(-5.5155683,1.0000000,3.3386768),(-5.4421795,1.0000000,3.3853196),(-5.5155683,1.0000000,3.3386768),(-5.5140403,1.0000000,3.3495479),(-5.4304584,1.0000000,3.3916034),(-5.4421795,1.0000000,3.3853196),(-5.5140403,1.0000000,3.3495479),(-5.4304584,1.0000000,3.3916034),(-5.5140403,1.0000000,3.3495479),(-5.5114937,1.0000000,3.3600287),(-5.4304584,1.0000000,3.3916034),(-5.5114937,1.0000000,3.3600287),(-5.5079284,1.0000000,3.3701193),(-5.4177320,1.0000000,3.3953737),(-5.4304584,1.0000000,3.3916034),(-5.5079284,1.0000000,3.3701193),(-5.4177320,1.0000000,3.3953737),(-5.5079284,1.0000000,3.3701193),(-5.5033445,1.0000000,3.3798195),(-5.4177320,1.0000000,3.3953737),(-5.5033445,1.0000000,3.3798195),(-5.4977420,1.0000000,3.3891296),(-5.4040001,1.0000000,3.3966305),(-5.4177320,1.0000000,3.3953737),(-5.4977420,1.0000000,3.3891296),(-5.4040001,1.0000000,3.3966305),(-5.4977420,1.0000000,3.3891296),(-5.4911208,1.0000000,3.3980493),(-5.2540343,1.0000000,3.3966305),(-5.4040001,1.0000000,3.3966305),(-5.4911208,1.0000000,3.3980493),(-5.2540343,1.0000000,3.3966305),(-5.4911208,1.0000000,3.3980493),(-5.4834809,1.0000000,3.4065788),(-5.2540343,1.0000000,3.3966305),(-5.4834809,1.0000000,3.4065788),(-5.4747745,1.0000000,3.4143923),(-5.2540343,1.0000000,3.3966305),(-5.4747745,1.0000000,3.4143923),(-5.4656943,1.0000000,3.4211640),(-5.2540343,1.0000000,3.3966305),(-5.4656943,1.0000000,3.4211640),(-5.4562404,1.0000000,3.4268939),(-5.2540343,1.0000000,3.3966305),(-5.4562404,1.0000000,3.4268939),(-5.4464128,1.0000000,3.4315820),(-5.2540343,1.0000000,3.3966305),(-5.4464128,1.0000000,3.4315820),(-5.4362115,1.0000000,3.4352282),(-5.2540343,1.0000000,3.3966305),(-5.4362115,1.0000000,3.4352282),(-5.4256364,1.0000000,3.4378327),(-5.2540343,1.0000000,3.3966305),(-5.4256364,1.0000000,3.4378327),(-5.4146876,1.0000000,3.4393954),(-5.2540343,1.0000000,3.3966305),(-5.4146876,1.0000000,3.4393954),(-5.4033651,1.0000000,3.4399163),(-5.2540343,1.0000000,3.3966305),(-5.4033651,1.0000000,3.4399163),(-5.2327618,1.0000000,3.4399163),(-5.2540343,1.0000000,3.2579888),(-5.2540343,1.0000000,3.3966305),(-5.2327618,1.0000000,3.4399163),(-5.2540343,1.0000000,3.2153380),(-5.2540343,1.0000000,3.2579888),(-5.2327618,1.0000000,3.4399163),(-5.2540343,1.0000000,3.2153380),(-5.2327618,1.0000000,3.4399163),(-5.2241628,1.0000000,3.4382495),(-5.2540343,1.0000000,3.2153380),(-5.2241628,1.0000000,3.4382495),(-5.2169926,1.0000000,3.4332488),(-5.2540343,1.0000000,3.2153380),(-5.2169926,1.0000000,3.4332488),(-5.2127857,1.0000000,3.4258140),(-5.2540343,1.0000000,3.2153380),(-5.2127857,1.0000000,3.4258140),(-5.2113834,1.0000000,3.4179030),(-5.2540343,1.0000000,3.2153380),(-5.2113834,1.0000000,3.4179030),(-5.2113834,1.0000000,3.0552122),(-5.2540343,1.0000000,3.2153380),(-5.2113834,1.0000000,3.0552122),(-5.2136721,1.0000000,3.0468778),(-5.2540343,1.0000000,3.2153380),(-5.2136721,1.0000000,3.0468778),(-5.2179980,1.0000000,3.0409247),(-5.2540343,1.0000000,3.2153380),(-5.2179980,1.0000000,3.0409247),(-5.2327618,1.0000000,3.0361622),(-5.2540343,1.0000000,3.2153380),(-5.2327618,1.0000000,3.0361622),(-5.2401635,1.0000000,3.0373528),(-5.2540343,1.0000000,3.2153380),(-5.2401635,1.0000000,3.0373528),(-5.2461761,1.0000000,3.0409247),(-5.2540343,1.0000000,3.2153380),(-5.2461761,1.0000000,3.0409247),(-5.2540343,1.0000000,3.0552122),(-5.1151809,1.0000000,3.2158672),(-5.1149693,1.0000000,3.0552122),(-5.1165832,1.0000000,3.0470101),(-5.1151809,1.0000000,3.2158672),(-5.1165832,1.0000000,3.0470101),(-5.1214251,1.0000000,3.0401838),(-5.1151809,1.0000000,3.2158672),(-5.1214251,1.0000000,3.0401838),(-5.1283043,1.0000000,3.0355801),(-5.1151809,1.0000000,3.2158672),(-5.1283043,1.0000000,3.0355801),(-5.1360301,1.0000000,3.0340455),(-5.1151809,1.0000000,3.2158672),(-5.1360301,1.0000000,3.0340455),(-5.1443115,1.0000000,3.0355801),(-5.1151809,1.0000000,3.2158672),(-5.1443115,1.0000000,3.0355801),(-5.1511643,1.0000000,3.0401838),(-5.1151809,1.0000000,3.2158672),(-5.1511643,1.0000000,3.0401838),(-5.1557680,1.0000000,3.0470101),(-5.1151809,1.0000000,3.2158672),(-5.1557680,1.0000000,3.0470101),(-5.1573026,1.0000000,3.0552122),(-5.1151809,1.0000000,3.2158672),(-5.1573026,1.0000000,3.0552122),(-5.1573026,1.0000000,3.4179030),(-5.1151809,1.0000000,3.2158672),(-5.1573026,1.0000000,3.4179030),(-5.1557680,1.0000000,3.4260522),(-5.1151809,1.0000000,3.2158672),(-5.1557680,1.0000000,3.4260522),(-5.1511643,1.0000000,3.4329313),(-5.1151809,1.0000000,3.2158672),(-5.1511643,1.0000000,3.4329313),(-5.1444174,1.0000000,3.4376938),(-5.1151809,1.0000000,3.2158672),(-5.1444174,1.0000000,3.4376938),(-5.1364534,1.0000000,3.4392813),(-5.1151809,1.0000000,3.2158672),(-5.1364534,1.0000000,3.4392813),(-5.1282513,1.0000000,3.4376409),(-5.1151809,1.0000000,3.2158672),(-5.1282513,1.0000000,3.4376409),(-5.1212134,1.0000000,3.4327197),(-5.1151809,1.0000000,3.2158672),(-5.1212134,1.0000000,3.4327197),(-5.1165303,1.0000000,3.4262638),(-5.1151809,1.0000000,3.2158672),(-5.1165303,1.0000000,3.4262638),(-5.1149693,1.0000000,3.4179030),(-5.1151809,1.0000000,3.2158672),(-5.1149693,1.0000000,3.4179030),(-5.1149693,1.0000000,3.2579888),(-4.8950476,1.0000000,3.2158672),(-5.1151809,1.0000000,3.2158672),(-5.1149693,1.0000000,3.2579888),(-4.8950476,1.0000000,3.2158672),(-5.1149693,1.0000000,3.2579888),(-4.8956826,1.0000000,3.2579888),(-4.8950476,1.0000000,3.2158672),(-4.8956826,1.0000000,3.2579888),(-4.8956826,1.0000000,3.4179030),(-4.8950476,1.0000000,3.2158672),(-4.8956826,1.0000000,3.4179030),(-4.8940422,1.0000000,3.4260522),(-4.8950476,1.0000000,3.2158672),(-4.8940422,1.0000000,3.4260522),(-4.8891209,1.0000000,3.4329313),(-4.8950476,1.0000000,3.2158672),(-4.8891209,1.0000000,3.4329313),(-4.8821624,1.0000000,3.4376938),(-4.8950476,1.0000000,3.2158672),(-4.8821624,1.0000000,3.4376938),(-4.8744101,1.0000000,3.4392813),(-4.8950476,1.0000000,3.2158672),(-4.8744101,1.0000000,3.4392813),(-4.8661815,1.0000000,3.4376938),(-4.8950476,1.0000000,3.2158672),(-4.8661815,1.0000000,3.4376938),(-4.8590643,1.0000000,3.4329313),(-4.8950476,1.0000000,3.2158672),(-4.8590643,1.0000000,3.4329313),(-4.8542224,1.0000000,3.4260522),(-4.8950476,1.0000000,3.2158672),(-4.8542224,1.0000000,3.4260522),(-4.8526084,1.0000000,3.4179030),(-4.8950476,1.0000000,3.2158672),(-4.8526084,1.0000000,3.4179030),(-4.8526084,1.0000000,3.0552122),(-4.8950476,1.0000000,3.2158672),(-4.8526084,1.0000000,3.0552122),(-4.8541695,1.0000000,3.0470101),(-4.8950476,1.0000000,3.2158672),(-4.8541695,1.0000000,3.0470101),(-4.8588526,1.0000000,3.0401838),(-4.8950476,1.0000000,3.2158672),(-4.8588526,1.0000000,3.0401838),(-4.8658111,1.0000000,3.0355801),(-4.8950476,1.0000000,3.2158672),(-4.8658111,1.0000000,3.0355801),(-4.8739868,1.0000000,3.0340455),(-4.8950476,1.0000000,3.2158672),(-4.8739868,1.0000000,3.0340455),(-4.8817655,1.0000000,3.0355536),(-4.8950476,1.0000000,3.2158672),(-4.8817655,1.0000000,3.0355536),(-4.8890151,1.0000000,3.0400780),(-4.8950476,1.0000000,3.2158672),(-4.8890151,1.0000000,3.0400780),(-4.8935395,1.0000000,3.0465603),(-4.8950476,1.0000000,3.2158672),(-4.8935395,1.0000000,3.0465603),(-4.8950476,1.0000000,3.0552122),(-5.6132326,1.0000000,3.1870805),(-5.6132326,1.0000000,3.4179030),(-5.6116980,1.0000000,3.4260522),(-5.6132326,1.0000000,3.1870805),(-5.6116980,1.0000000,3.4260522),(-5.6070943,1.0000000,3.4329313),(-5.6132326,1.0000000,3.1870805),(-5.6070943,1.0000000,3.4329313),(-5.6003474,1.0000000,3.4376938),(-5.6137303,1.0000000,3.1758341),(-5.6132326,1.0000000,3.1870805),(-5.6003474,1.0000000,3.4376938),(-5.6137303,1.0000000,3.1758341),(-5.6003474,1.0000000,3.4376938),(-5.5923834,1.0000000,3.4392813),(-5.6137303,1.0000000,3.1758341),(-5.5923834,1.0000000,3.4392813),(-5.5840490,1.0000000,3.4376409),(-5.6137303,1.0000000,3.1758341),(-5.5840490,1.0000000,3.4376409),(-5.5766143,1.0000000,3.4327197),(-5.6137303,1.0000000,3.1758341),(-5.5766143,1.0000000,3.4327197),(-5.5720899,1.0000000,3.4262638),(-5.6137303,1.0000000,3.1758341),(-5.5720899,1.0000000,3.4262638),(-5.5705818,1.0000000,3.4179030),(-5.6137303,1.0000000,3.1758341),(-5.5705818,1.0000000,3.4179030),(-5.5705818,1.0000000,3.1870805),(-5.6137303,1.0000000,3.1758341),(-5.5705818,1.0000000,3.1870805),(-5.5712763,1.0000000,3.1715710),(-5.6137303,1.0000000,3.1758341),(-5.5712763,1.0000000,3.1715710),(-5.5733599,1.0000000,3.1566336),(-5.6137303,1.0000000,3.1758341),(-5.5733599,1.0000000,3.1566336),(-5.5768325,1.0000000,3.1422684),(-5.6137303,1.0000000,3.1758341),(-5.5768325,1.0000000,3.1422684),(-5.5816943,1.0000000,3.1284753),(-5.6137303,1.0000000,3.1758341),(-5.5816943,1.0000000,3.1284753),(-5.5879450,1.0000000,3.1152544),(-5.6137303,1.0000000,3.1758341),(-5.5879450,1.0000000,3.1152544),(-5.5955849,1.0000000,3.1026057),(-5.6137303,1.0000000,3.1758341),(-5.5955849,1.0000000,3.1026057),(-5.6046138,1.0000000,3.0905291),(-5.6137303,1.0000000,3.1758341),(-5.6046138,1.0000000,3.0905291),(-5.6150318,1.0000000,3.0790247),(-5.6137303,1.0000000,3.1758341),(-5.6150318,1.0000000,3.0790247),(-5.6262898,1.0000000,3.0684827),(-5.6262898,1.0000000,3.0684827),(-5.6381563,1.0000000,3.0593463),(-5.6506314,1.0000000,3.0516155),(-5.6262898,1.0000000,3.0684827),(-5.6506314,1.0000000,3.0516155),(-5.6637151,1.0000000,3.0452903),(-5.6262898,1.0000000,3.0684827),(-5.6637151,1.0000000,3.0452903),(-5.6774073,1.0000000,3.0403707),(-5.6262898,1.0000000,3.0684827),(-5.6774073,1.0000000,3.0403707),(-5.6917080,1.0000000,3.0368567),(-5.6262898,1.0000000,3.0684827),(-5.6917080,1.0000000,3.0368567),(-5.7066173,1.0000000,3.0347483),(-5.6262898,1.0000000,3.0684827),(-5.7066173,1.0000000,3.0347483),(-5.7221351,1.0000000,3.0340455),(-5.6262898,1.0000000,3.0684827),(-5.7221351,1.0000000,3.0340455),(-5.7376744,1.0000000,3.0347483),(-5.6262898,1.0000000,3.0684827),(-5.7376744,1.0000000,3.0347483),(-5.7526482,1.0000000,3.0368567),(-5.6262898,1.0000000,3.0684827),(-5.7526482,1.0000000,3.0368567),(-5.7670564,1.0000000,3.0403707),(-5.6262898,1.0000000,3.0684827),(-5.7670564,1.0000000,3.0403707),(-5.7808990,1.0000000,3.0452903),(-5.6262898,1.0000000,3.0684827),(-5.7808990,1.0000000,3.0452903),(-5.7941762,1.0000000,3.0516155),(-5.6262898,1.0000000,3.0684827),(-5.7941762,1.0000000,3.0516155),(-5.8068877,1.0000000,3.0593463),(-5.6262898,1.0000000,3.0684827),(-5.8068877,1.0000000,3.0593463),(-5.8190338,1.0000000,3.0684827),(-5.6262898,1.0000000,3.0684827),(-5.8190338,1.0000000,3.0684827),(-5.8306143,1.0000000,3.0790247),(-5.8306143,1.0000000,3.0790247),(-5.8410818,1.0000000,3.0903951),(-5.8501537,1.0000000,3.1023874),(-5.8306143,1.0000000,3.0790247),(-5.8501537,1.0000000,3.1023874),(-5.8578300,1.0000000,3.1150014),(-5.8306143,1.0000000,3.0790247),(-5.8578300,1.0000000,3.1150014),(-5.8641105,1.0000000,3.1282372),(-5.8306143,1.0000000,3.0790247),(-5.8641105,1.0000000,3.1282372),(-5.8689954,1.0000000,3.1420947),(-5.8306143,1.0000000,3.0790247),(-5.8689954,1.0000000,3.1420947),(-5.8724846,1.0000000,3.1565740),(-5.8306143,1.0000000,3.0790247),(-5.8724846,1.0000000,3.1565740),(-5.8745781,1.0000000,3.1716751),(-5.8306143,1.0000000,3.0790247),(-5.8745781,1.0000000,3.1716751),(-5.8752759,1.0000000,3.1873980),(-5.8306143,1.0000000,3.0790247),(-5.8752759,1.0000000,3.1873980),(-5.8752759,1.0000000,3.4179030),(-5.8306143,1.0000000,3.0790247),(-5.8752759,1.0000000,3.4179030),(-5.8737413,1.0000000,3.4260522),(-5.8306143,1.0000000,3.0790247),(-5.8737413,1.0000000,3.4260522),(-5.8691376,1.0000000,3.4329313),(-5.8306143,1.0000000,3.0790247),(-5.8691376,1.0000000,3.4329313),(-5.8623113,1.0000000,3.4376938),(-5.8306143,1.0000000,3.0790247),(-5.8623113,1.0000000,3.4376938),(-5.8541093,1.0000000,3.4392813),(-5.8306143,1.0000000,3.0790247),(-5.8541093,1.0000000,3.4392813),(-5.8459072,1.0000000,3.4376938),(-5.8306143,1.0000000,3.0790247),(-5.8459072,1.0000000,3.4376938),(-5.8390809,1.0000000,3.4329313),(-5.8390809,1.0000000,3.4329313),(-5.8344772,1.0000000,3.4260522),(-5.8329426,1.0000000,3.4179030),(-5.8390809,1.0000000,3.4329313),(-5.8329426,1.0000000,3.4179030),(-5.8329426,1.0000000,3.1873980),(-5.8306143,1.0000000,3.0790247),(-5.8390809,1.0000000,3.4329313),(-5.8329426,1.0000000,3.1873980),(-5.8306143,1.0000000,3.0790247),(-5.8329426,1.0000000,3.1873980),(-5.8324316,1.0000000,3.1761962),(-5.8306143,1.0000000,3.0790247),(-5.8324316,1.0000000,3.1761962),(-5.8308987,1.0000000,3.1653979),(-5.8306143,1.0000000,3.0790247),(-5.8308987,1.0000000,3.1653979),(-5.8283438,1.0000000,3.1550031),(-5.8306143,1.0000000,3.0790247),(-5.8283438,1.0000000,3.1550031),(-5.8247670,1.0000000,3.1450118),(-5.8306143,1.0000000,3.0790247),(-5.8247670,1.0000000,3.1450118),(-5.8201682,1.0000000,3.1354239),(-5.8306143,1.0000000,3.0790247),(-5.8201682,1.0000000,3.1354239),(-5.8145474,1.0000000,3.1262396),(-5.8306143,1.0000000,3.0790247),(-5.8145474,1.0000000,3.1262396),(-5.8079047,1.0000000,3.1174587),(-5.8306143,1.0000000,3.0790247),(-5.8079047,1.0000000,3.1174587),(-5.8002401,1.0000000,3.1090813),(-5.8306143,1.0000000,3.0790247),(-5.8002401,1.0000000,3.1090813),(-5.7920529,1.0000000,3.1014415),(-5.8306143,1.0000000,3.0790247),(-5.7920529,1.0000000,3.1014415),(-5.7834192,1.0000000,3.0948203),(-5.8306143,1.0000000,3.0790247),(-5.7834192,1.0000000,3.0948203),(-5.7743390,1.0000000,3.0892177),(-5.8306143,1.0000000,3.0790247),(-5.7743390,1.0000000,3.0892177),(-5.7648124,1.0000000,3.0846338),(-5.8306143,1.0000000,3.0790247),(-5.7648124,1.0000000,3.0846338),(-5.7548392,1.0000000,3.0810686),(-5.8306143,1.0000000,3.0790247),(-5.7548392,1.0000000,3.0810686),(-5.7444196,1.0000000,3.0785220),(-5.8306143,1.0000000,3.0790247),(-5.7444196,1.0000000,3.0785220),(-5.7335535,1.0000000,3.0769940),(-5.6262898,1.0000000,3.0684827),(-5.8306143,1.0000000,3.0790247),(-5.7335535,1.0000000,3.0769940),(-5.6262898,1.0000000,3.0684827),(-5.7335535,1.0000000,3.0769940),(-5.7222409,1.0000000,3.0764847),(-5.6262898,1.0000000,3.0684827),(-5.7222409,1.0000000,3.0764847),(-5.7111268,1.0000000,3.0769907),(-5.6262898,1.0000000,3.0684827),(-5.7111268,1.0000000,3.0769907),(-5.7004326,1.0000000,3.0785087),(-5.6262898,1.0000000,3.0684827),(-5.7004326,1.0000000,3.0785087),(-5.6901585,1.0000000,3.0810388),(-5.6262898,1.0000000,3.0684827),(-5.6901585,1.0000000,3.0810388),(-5.6803045,1.0000000,3.0845809),(-5.6262898,1.0000000,3.0684827),(-5.6803045,1.0000000,3.0845809),(-5.6708704,1.0000000,3.0891351),(-5.6262898,1.0000000,3.0684827),(-5.6708704,1.0000000,3.0891351),(-5.6618564,1.0000000,3.0947012),(-5.6262898,1.0000000,3.0684827),(-5.6618564,1.0000000,3.0947012),(-5.6532624,1.0000000,3.1012794),(-5.6262898,1.0000000,3.0684827),(-5.6532624,1.0000000,3.1012794),(-5.6450884,1.0000000,3.1088697),(-5.6262898,1.0000000,3.0684827),(-5.6450884,1.0000000,3.1088697),(-5.6376222,1.0000000,3.1171759),(-5.6262898,1.0000000,3.0684827),(-5.6376222,1.0000000,3.1171759),(-5.6311515,1.0000000,3.1259022),(-5.6262898,1.0000000,3.0684827),(-5.6311515,1.0000000,3.1259022),(-5.6256763,1.0000000,3.1350485),(-5.6262898,1.0000000,3.0684827),(-5.6256763,1.0000000,3.1350485),(-5.6211965,1.0000000,3.1446149),(-5.6262898,1.0000000,3.0684827),(-5.6211965,1.0000000,3.1446149),(-5.6177123,1.0000000,3.1546012),(-5.6262898,1.0000000,3.0684827),(-5.6177123,1.0000000,3.1546012),(-5.6152236,1.0000000,3.1650076),(-5.6137303,1.0000000,3.1758341),(-5.6262898,1.0000000,3.0684827),(-5.6152236,1.0000000,3.1650076),(-4.7929978,1.0000000,3.4019486),(-4.7983159,1.0000000,3.4179030),(-4.7968078,1.0000000,3.4258934),(-4.7929978,1.0000000,3.4019486),(-4.7968078,1.0000000,3.4258934),(-4.7922834,1.0000000,3.4327197),(-4.7929978,1.0000000,3.4019486),(-4.7922834,1.0000000,3.4327197),(-4.7854572,1.0000000,3.4376409),(-4.7929978,1.0000000,3.4019486),(-4.7854572,1.0000000,3.4376409),(-4.7770434,1.0000000,3.4392813),(-4.7929978,1.0000000,3.4019486),(-4.7770434,1.0000000,3.4392813),(-4.5150001,1.0000000,3.4392813),(-4.7929978,1.0000000,3.4019486),(-4.5150001,1.0000000,3.4392813),(-4.5056868,1.0000000,3.4372440),(-4.7929978,1.0000000,3.4019486),(-4.5056868,1.0000000,3.4372440),(-4.4982784,1.0000000,3.4311322),(-4.7929978,1.0000000,3.4019486),(-4.4982784,1.0000000,3.4311322),(-4.4936218,1.0000000,3.4179030),(-4.7929978,1.0000000,3.4019486),(-4.4936218,1.0000000,3.4179030),(-4.4936218,1.0000000,3.4163155),(-4.7929978,1.0000000,3.4019486),(-4.4936218,1.0000000,3.4163155),(-4.4996543,1.0000000,3.4034038),(-4.7929978,1.0000000,3.4019486),(-4.4996543,1.0000000,3.4034038),(-4.5067715,1.0000000,3.3983238),(-4.7929978,1.0000000,3.4019486),(-4.5067715,1.0000000,3.3983238),(-4.5150001,1.0000000,3.3966305),(-4.7929978,1.0000000,3.4019486),(-4.5150001,1.0000000,3.3966305),(-4.6249609,1.0000000,3.3966305),(-4.6249609,1.0000000,3.3966305),(-4.6249609,1.0000000,3.0552122),(-4.6264955,1.0000000,3.0470101),(-4.6249609,1.0000000,3.3966305),(-4.6264955,1.0000000,3.0470101),(-4.6310993,1.0000000,3.0401838),(-4.6249609,1.0000000,3.3966305),(-4.6310993,1.0000000,3.0401838),(-4.6379255,1.0000000,3.0355801),(-4.6249609,1.0000000,3.3966305),(-4.6379255,1.0000000,3.0355801),(-4.6461276,1.0000000,3.0340455),(-4.6249609,1.0000000,3.3966305),(-4.6461276,1.0000000,3.0340455),(-4.6543297,1.0000000,3.0355801),(-4.6249609,1.0000000,3.3966305),(-4.6543297,1.0000000,3.0355801),(-4.6611559,1.0000000,3.0401838),(-4.6249609,1.0000000,3.3966305),(-4.6611559,1.0000000,3.0401838),(-4.6657597,1.0000000,3.0470101),(-4.6249609,1.0000000,3.3966305),(-4.6657597,1.0000000,3.0470101),(-4.6672943,1.0000000,3.0552122),(-4.6249609,1.0000000,3.3966305),(-4.6672943,1.0000000,3.0552122),(-4.6672943,1.0000000,3.3966305),(-4.7929978,1.0000000,3.4019486),(-4.6249609,1.0000000,3.3966305),(-4.6672943,1.0000000,3.3966305),(-4.7929978,1.0000000,3.4019486),(-4.6672943,1.0000000,3.3966305),(-4.7770434,1.0000000,3.3966305),(-4.7929978,1.0000000,3.4019486),(-4.7770434,1.0000000,3.3966305),(-4.7863501,1.0000000,3.3979600)));
#430=COMPLEX_TRIANGULATED_SURFACE_SET('surface set',#429,1758,(),(),(),((1,2,3),(4,5,6),(7,8,9),(10,11,12),(13,14,15),(16,17,18),(19,20,21),(22,23,24),(25,26,27),(28,29,30),(31,32,33),(34,35,36),(37,38,39),(40,41,42),(43,44,45),(46,47,48),(49,50,51),(52,53,54),(55,56,57),(58,59,60),(61,62,63),(64,65,66),(67,68,69),(70,71,72),(73,74,75),(76,77,78),(79,80,81),(82,83,84),(85,86,87),(88,89,90),(91,92,93),(94,95,96),(97,98,99),(100,101,102),(103,104,105),(106,107,108),(109,110,111),(112,113,114),(115,116,117),(118,119,120),(121,122,123),(124,125,126),(127,128,129),(130,131,132),(133,134,135),(136,137,138),(139,140,141),(142,143,144),(145,146,147),(148,149,150),(151,152,153),(154,155,156),(157,158,159),(160,161,162),(163,164,165),(166,167,168),(169,170,171),(172,173,174),(175,176,177),(178,179,180),(181,182,183),(184,185,186),(187,188,189),(190,191,192),(193,194,195),(196,197,198),(199,200,201),(202,203,204),(205,206,207),(208,209,210),(211,212,213),(214,215,216),(217,218,219),(220,221,222),(223,224,225),(226,227,228),(229,230,231),(232,233,234),(235,236,237),(238,239,240),(241,242,243),(244,245,246),(247,248,249),(250,251,252),(253,254,255),(256,257,258),(259,260,261),(262,263,264),(265,266,267),(268,269,270),(271,272,273),(274,275,276),(277,278,279),(280,281,282),(283,284,285),(286,287,288),(289,290,291),(292,293,294),(295,296,297),(298,299,300),(301,302,303),(304,305,306),(307,308,309),(310,311,312),(313,314,315),(316,317,318),(319,320,321),(322,323,324),(325,326,327),(328,329,330),(331,332,333),(334,335,336),(337,338,339),(340,341,342),(343,344,345),(346,347,348),(349,350,351),(352,353,354),(355,356,357),(358,359,360),(361,362,363),(364,365,366),(367,368,369),(370,371,372),(373,374,375),(376,377,378),(379,380,381),(382,383,384),(385,386,387),(388,389,390),(391,392,393),(394,395,396),(397,398,399),(400,401,402),(403,404,405),(406,407,408),(409,410,411),(412,413,414),(415,416,417),(418,419,420),(421,422,423),(424,425,426),(427,428,429),(430,431,432),(433,434,435),(436,437,438),(439,440,441),(442,443,444),(445,446,447),(448,449,450),(451,452,453),(454,455,456),(457,458,459),(460,461,462),(463,464,465),(466,467,468),(469,470,471),(472,473,474),(475,476,477),(478,479,480),(481,482,483),(484,485,486),(487,488,489),(490,491,492),(493,494,495),(496,497,498),(499,500,501),(502,503,504),(505,506,507),(508,509,510),(511,512,513),(514,515,516),(517,518,519),(520,521,522),(523,524,525),(526,527,528),(529,530,531),(532,533,534),(535,536,537),(538,539,540),(541,542,543),(544,545,546),(547,548,549),(550,551,552),(553,554,555),(556,557,558),(559,560,561),(562,563,564),(565,566,567),(568,569,570),(571,572,573),(574,575,576),(577,578,579),(580,581,582),(583,584,585),(586,587,588),(589,590,591),(592,593,594),(595,596,597),(598,599,600),(601,602,603),(604,605,606),(607,608,609),(610,611,612),(613,614,615),(616,617,618),(619,620,621),(622,623,624),(625,626,627),(628,629,630),(631,632,633),(634,635,636),(637,638,639),(640,641,642),(643,644,645),(646,647,648),(649,650,651),(652,653,654),(655,656,657),(658,659,660),(661,662,663),(664,665,666),(667,668,669),(670,671,672),(673,674,675),(676,677,678),(679,680,681),(682,683,684),(685,686,687),(688,689,690),(691,692,693),(694,695,696),(697,698,699),(700,701,702),(703,704,705),(706,707,708),(709,710,711),(712,713,714),(715,716,717),(718,719,720),(721,722,723),(724,725,726),(727,728,729),(730,731,732),(733,734,735),(736,737,738),(739,740,741),(742,743,744),(745,746,747),(748,749,750),(751,752,753),(754,755,756),(757,758,759),(760,761,762),(763,764,765),(766,767,768),(769,770,771),(772,773,774),(775,776,777),(778,779,780),(781,782,783),(784,785,786),(787,788,789),(790,791,792),(793,794,795),(796,797,798),(799,800,801),(802,803,804),(805,806,807),(808,809,810),(811,812,813),(814,815,816),(817,818,819),(820,821,822),(823,824,825),(826,827,828),(829,830,831),(832,833,834),(835,836,837),(838,839,840),(841,842,843),(844,845,846),(847,848,849),(850,851,852),(853,854,855),(856,857,858),(859,860,861),(862,863,864),(865,866,867),(868,869,870),(871,872,873),(874,875,876),(877,878,879),(880,881,882),(883,884,885),(886,887,888),(889,890,891),(892,893,894),(895,896,897),(898,899,900),(901,902,903),(904,905,906),(907,908,909),(910,911,912),(913,914,915),(916,917,918),(919,920,921),(922,923,924),(925,926,927),(928,929,930),(931,932,933),(934,935,936),(937,938,939),(940,941,942),(943,944,945),(946,947,948),(949,950,951),(952,953,954),(955,956,957),(958,959,960),(961,962,963),(964,965,966),(967,968,969),(970,971,972),(973,974,975),(976,977,978),(979,980,981),(982,983,984),(985,986,987),(988,989,990),(991,992,993),(994,995,996),(997,998,999),(1000,1001,1002),(1003,1004,1005),(1006,1007,1008),(1009,1010,1011),(1012,1013,1014),(1015,1016,1017),(1018,1019,1020),(1021,1022,1023),(1024,1025,1026),(1027,1028,1029),(1030,1031,1032),(1033,1034,1035),(1036,1037,1038),(1039,1040,1041),(1042,1043,1044),(1045,1046,1047),(1048,1049,1050),(1051,1052,1053),(1054,1055,1056),(1057,1058,1059),(1060,1061,1062),(1063,1064,1065),(1066,1067,1068),(1069,1070,1071),(1072,1073,1074),(1075,1076,1077),(1078,1079,1080),(1081,1082,1083),(1084,1085,1086),(1087,1088,1089),(1090,1091,1092),(1093,1094,1095),(1096,1097,1098),(1099,1100,1101),(1102,1103,1104),(1105,1106,1107),(1108,1109,1110),(1111,1112,1113),(1114,1115,1116),(1117,1118,1119),(1120,1121,1122),(1123,1124,1125),(1126,1127,1128),(1129,1130,1131),(1132,1133,1134),(1135,1136,1137),(1138,1139,1140),(1141,1142,1143),(1144,1145,1146),(1147,1148,1149),(1150,1151,1152),(1153,1154,1155),(1156,1157,1158),(1159,1160,1161),(1162,1163,1164),(1165,1166,1167),(1168,1169,1170),(1171,1172,1173),(1174,1175,1176),(1177,1178,1179),(1180,1181,1182),(1183,1184,1185),(1186,1187,1188),(1189,1190,1191),(1192,1193,1194),(1195,1196,1197),(1198,1199,1200),(1201,1202,1203),(1204,1205,1206),(1207,1208,1209),(1210,1211,1212),(1213,1214,1215),(1216,1217,1218),(1219,1220,1221),(1222,1223,1224),(1225,1226,1227),(1228,1229,1230),(1231,1232,1233),(1234,1235,1236),(1237,1238,1239),(1240,1241,1242),(1243,1244,1245),(1246,1247,1248),(1249,1250,1251),(1252,1253,1254),(1255,1256,1257),(1258,1259,1260),(1261,1262,1263),(1264,1265,1266),(1267,1268,1269),(1270,1271,1272),(1273,1274,1275),(1276,1277,1278),(1279,1280,1281),(1282,1283,1284),(1285,1286,1287),(1288,1289,1290),(1291,1292,1293),(1294,1295,1296),(1297,1298,1299),(1300,1301,1302),(1303,1304,1305),(1306,1307,1308),(1309,1310,1311),(1312,1313,1314),(1315,1316,1317),(1318,1319,1320),(1321,1322,1323),(1324,1325,1326),(1327,1328,1329),(1330,1331,1332),(1333,1334,1335),(1336,1337,1338),(1339,1340,1341),(1342,1343,1344),(1345,1346,1347),(1348,1349,1350),(1351,1352,1353),(1354,1355,1356),(1357,1358,1359),(1360,1361,1362),(1363,1364,1365),(1366,1367,1368),(1369,1370,1371),(1372,1373,1374),(1375,1376,1377),(1378,1379,1380),(1381,1382,1383),(1384,1385,1386),(1387,1388,1389),(1390,1391,1392),(1393,1394,1395),(1396,1397,1398),(1399,1400,1401),(1402,1403,1404),(1405,1406,1407),(1408,1409,1410),(1411,1412,1413),(1414,1415,1416),(1417,1418,1419),(1420,1421,1422),(1423,1424,1425),(1426,1427,1428),(1429,1430,1431),(1432,1433,1434),(1435,1436,1437),(1438,1439,1440),(1441,1442,1443),(1444,1445,1446),(1447,1448,1449),(1450,1451,1452),(1453,1454,1455),(1456,1457,1458),(1459,1460,1461),(1462,1463,1464),(1465,1466,1467),(1468,1469,1470),(1471,1472,1473),(1474,1475,1476),(1477,1478,1479),(1480,1481,1482),(1483,1484,1485),(1486,1487,1488),(1489,1490,1491),(1492,1493,1494),(1495,1496,1497),(1498,1499,1500),(1501,1502,1503),(1504,1505,1506),(1507,1508,1509),(1510,1511,1512),(1513,1514,1515),(1516,1517,1518),(1519,1520,1521),(1522,1523,1524),(1525,1526,1527),(1528,1529,1530),(1531,1532,1533),(1534,1535,1536),(1537,1538,1539),(1540,1541,1542),(1543,1544,1545),(1546,1547,1548),(1549,1550,1551),(1552,1553,1554),(1555,1556,1557),(1558,1559,1560),(1561,1562,1563),(1564,1565,1566),(1567,1568,1569),(1570,1571,1572),(1573,1574,1575),(1576,1577,1578),(1579,1580,1581),(1582,1583,1584),(1585,1586,1587),(1588,1589,1590),(1591,1592,1593),(1594,1595,1596),(1597,1598,1599),(1600,1601,1602),(1603,1604,1605),(1606,1607,1608),(1609,1610,1611),(1612,1613,1614),(1615,1616,1617),(1618,1619,1620),(1621,1622,1623),(1624,1625,1626),(1627,1628,1629),(1630,1631,1632),(1633,1634,1635),(1636,1637,1638),(1639,1640,1641),(1642,1643,1644),(1645,1646,1647),(1648,1649,1650),(1651,1652,1653),(1654,1655,1656),(1657,1658,1659),(1660,1661,1662),(1663,1664,1665),(1666,1667,1668),(1669,1670,1671),(1672,1673,1674),(1675,1676,1677),(1678,1679,1680),(1681,1682,1683),(1684,1685,1686),(1687,1688,1689),(1690,1691,1692),(1693,1694,1695),(1696,1697,1698),(1699,1700,1701),(1702,1703,1704),(1705,1706,1707),(1708,1709,1710),(1711,1712,1713),(1714,1715,1716),(1717,1718,1719),(1720,1721,1722),(1723,1724,1725),(1726,1727,1728),(1729,1730,1731),(1732,1733,1734),(1735,1736,1737),(1738,1739,1740),(1741,1742,1743),(1744,1745,1746),(1747,1748,1749),(1750,1751,1752),(1753,1754,1755),(1756,1757,1758)));
#431=TESSELLATED_GEOMETRIC_SET('hole callout',(#430));
#432=COORDINATES_LIST('coordinates',5,((-3.2803301,1.0000000,2.7803301),(-5.8752759,1.0000000,2.7803301),(-0.5303301,1.0000000,0.5303301),(-2.7803301,1.0000000,2.7803301),(-3.2803301,1.0000000,2.7803301)));
#433=TESSELLATED_CURVE_SET('curve set',#432,((1,2),(3,4,5)));
#434=TESSELLATED_GEOMETRIC_SET('hole callout',(#433));
#435=TESSELLATED_ANNOTATION_OCCURRENCE('hole callout',(#428),#431);
#436=TESSELLATED_ANNOTATION_OCCURRENCE('hole callout',(#428),#434);
#437=DRAUGHTING_CALLOUT('hole callout',(#435,#436));
#438=DRAUGHTING_MODEL_ITEM_ASSOCIATION('','',#396,#424,#437);
#439=DRAUGHTING_MODEL_ITEM_ASSOCIATION('','',#394,#424,#437);
ENDSEC;
END-ISO-10303-21;
