ISO-10303-21;
HEADER;
/* Generated by software containing ST-Developer
 * from STEP Tools, Inc. (www.steptools.com) 
 */
/* OPTION: using custom renumber hook */

FILE_DESCRIPTION(
/* description */ ('STEP AP242 Edition 2',
'CAx-IF Rec.Pracs.---Representation and Presentation of Product Manufa
cturing Information (PMI)---4.0---2014-10-13',
'CAx-IF Rec.Pracs.---3D Tessellated Geometry---0.4---2014-09-14','2;1',
'CAx-IF Rec.Pracs.---User Defined Attributes---1.5---2016-08-15'),
/* implementation_level */ '2;1');

FILE_NAME(
/* name */ '69de6abbcac89b57311d2f8b',
/* time_stamp */ '2026-04-14T16:26:35Z',
/* author */ (''),
/* organization */ (''),
/* preprocessor_version */ 'ST-DEVELOPER v20',
/* originating_system */ 'ONSHAPE BY PTC INC, 1.213',
/* authorisation */ '  ');

FILE_SCHEMA (('AP242_MANAGED_MODEL_BASED_3D_ENGINEERING_MIM_LF { 1 0 10303 442 3 1 4 }'));
ENDSEC;

DATA;
#10=CONTEXT_DEPENDENT_SHAPE_REPRESENTATION(#18,#1232);
#11=CONTEXT_DEPENDENT_SHAPE_REPRESENTATION(#19,#1234);
#12=CONTEXT_DEPENDENT_SHAPE_REPRESENTATION(#20,#1236);
#13=CONTEXT_DEPENDENT_SHAPE_REPRESENTATION(#21,#1237);
#14=NEXT_ASSEMBLY_USAGE_OCCURRENCE('NAUO1','LDR_sensor_base',
'LDR_sensor_base',#1239,#1240,'');
#15=NEXT_ASSEMBLY_USAGE_OCCURRENCE('NAUO2','hing_rod','hing_rod',#1239,
#1241,'');
#16=NEXT_ASSEMBLY_USAGE_OCCURRENCE('NAUO3','panel_base','panel_base',#1239,
#1242,'');
#17=NEXT_ASSEMBLY_USAGE_OCCURRENCE('NAUO4','Elevator <1>',
'Elevator <1>',#1238,#1239,'');
#18=(
REPRESENTATION_RELATIONSHIP(' ',' ',#761,#760)
REPRESENTATION_RELATIONSHIP_WITH_TRANSFORMATION(#22)
SHAPE_REPRESENTATION_RELATIONSHIP()
);
#19=(
REPRESENTATION_RELATIONSHIP(' ',' ',#762,#760)
REPRESENTATION_RELATIONSHIP_WITH_TRANSFORMATION(#23)
SHAPE_REPRESENTATION_RELATIONSHIP()
);
#20=(
REPRESENTATION_RELATIONSHIP(' ',' ',#763,#760)
REPRESENTATION_RELATIONSHIP_WITH_TRANSFORMATION(#24)
SHAPE_REPRESENTATION_RELATIONSHIP()
);
#21=(
REPRESENTATION_RELATIONSHIP(' ',' ',#760,#759)
REPRESENTATION_RELATIONSHIP_WITH_TRANSFORMATION(#25)
SHAPE_REPRESENTATION_RELATIONSHIP()
);
#22=ITEM_DEFINED_TRANSFORMATION(' ',' ',#764,#789);
#23=ITEM_DEFINED_TRANSFORMATION(' ',' ',#764,#795);
#24=ITEM_DEFINED_TRANSFORMATION(' ',' ',#764,#823);
#25=ITEM_DEFINED_TRANSFORMATION(' ',' ',#764,#824);
#26=SHAPE_REPRESENTATION_RELATIONSHIP('','',#761,#29);
#27=SHAPE_REPRESENTATION_RELATIONSHIP('','',#762,#30);
#28=SHAPE_REPRESENTATION_RELATIONSHIP('','',#763,#31);
#29=ADVANCED_BREP_SHAPE_REPRESENTATION('',(#751),#1218);
#30=ADVANCED_BREP_SHAPE_REPRESENTATION('',(#752),#1219);
#31=ADVANCED_BREP_SHAPE_REPRESENTATION('',(#753),#1220);
#32=CIRCLE('',#778,0.2);
#33=CIRCLE('',#779,0.2);
#34=CIRCLE('',#781,0.2);
#35=CIRCLE('',#782,0.2);
#36=CIRCLE('',#791,0.25);
#37=CIRCLE('',#793,0.25);
#38=CIRCLE('',#797,0.25);
#39=CIRCLE('',#798,0.25);
#40=CIRCLE('',#800,0.2);
#41=CIRCLE('',#801,0.2);
#42=CIRCLE('',#803,0.2);
#43=CIRCLE('',#804,0.2);
#44=CIRCLE('',#808,0.265);
#45=CIRCLE('',#809,0.25);
#46=CIRCLE('',#810,0.25);
#47=CIRCLE('',#811,0.25);
#48=CIRCLE('',#813,0.265);
#49=CIRCLE('',#814,0.25);
#50=CIRCLE('',#815,0.25);
#51=CIRCLE('',#816,0.25);
#52=CYLINDRICAL_SURFACE('',#777,0.2);
#53=CYLINDRICAL_SURFACE('',#780,0.2);
#54=CYLINDRICAL_SURFACE('',#794,0.25);
#55=CYLINDRICAL_SURFACE('',#796,0.25);
#56=CYLINDRICAL_SURFACE('',#799,0.2);
#57=CYLINDRICAL_SURFACE('',#802,0.2);
#58=CYLINDRICAL_SURFACE('',#819,0.25);
#59=CYLINDRICAL_SURFACE('',#820,0.25);
#60=CYLINDRICAL_SURFACE('',#821,0.25);
#61=CYLINDRICAL_SURFACE('',#822,0.265);
#62=ORIENTED_EDGE('',*,*,#240,.T.);
#63=ORIENTED_EDGE('',*,*,#241,.T.);
#64=ORIENTED_EDGE('',*,*,#242,.T.);
#65=ORIENTED_EDGE('',*,*,#243,.T.);
#66=ORIENTED_EDGE('',*,*,#244,.T.);
#67=ORIENTED_EDGE('',*,*,#245,.T.);
#68=ORIENTED_EDGE('',*,*,#246,.T.);
#69=ORIENTED_EDGE('',*,*,#247,.T.);
#70=ORIENTED_EDGE('',*,*,#248,.T.);
#71=ORIENTED_EDGE('',*,*,#249,.T.);
#72=ORIENTED_EDGE('',*,*,#250,.T.);
#73=ORIENTED_EDGE('',*,*,#251,.T.);
#74=ORIENTED_EDGE('',*,*,#252,.T.);
#75=ORIENTED_EDGE('',*,*,#253,.F.);
#76=ORIENTED_EDGE('',*,*,#251,.F.);
#77=ORIENTED_EDGE('',*,*,#254,.T.);
#78=ORIENTED_EDGE('',*,*,#255,.T.);
#79=ORIENTED_EDGE('',*,*,#254,.F.);
#80=ORIENTED_EDGE('',*,*,#250,.F.);
#81=ORIENTED_EDGE('',*,*,#256,.T.);
#82=ORIENTED_EDGE('',*,*,#257,.T.);
#83=ORIENTED_EDGE('',*,*,#256,.F.);
#84=ORIENTED_EDGE('',*,*,#249,.F.);
#85=ORIENTED_EDGE('',*,*,#258,.T.);
#86=ORIENTED_EDGE('',*,*,#259,.T.);
#87=ORIENTED_EDGE('',*,*,#258,.F.);
#88=ORIENTED_EDGE('',*,*,#248,.F.);
#89=ORIENTED_EDGE('',*,*,#260,.T.);
#90=ORIENTED_EDGE('',*,*,#261,.T.);
#91=ORIENTED_EDGE('',*,*,#260,.F.);
#92=ORIENTED_EDGE('',*,*,#247,.F.);
#93=ORIENTED_EDGE('',*,*,#262,.T.);
#94=ORIENTED_EDGE('',*,*,#263,.T.);
#95=ORIENTED_EDGE('',*,*,#262,.F.);
#96=ORIENTED_EDGE('',*,*,#246,.F.);
#97=ORIENTED_EDGE('',*,*,#264,.T.);
#98=ORIENTED_EDGE('',*,*,#265,.T.);
#99=ORIENTED_EDGE('',*,*,#264,.F.);
#100=ORIENTED_EDGE('',*,*,#245,.F.);
#101=ORIENTED_EDGE('',*,*,#266,.T.);
#102=ORIENTED_EDGE('',*,*,#267,.T.);
#103=ORIENTED_EDGE('',*,*,#266,.F.);
#104=ORIENTED_EDGE('',*,*,#244,.F.);
#105=ORIENTED_EDGE('',*,*,#268,.T.);
#106=ORIENTED_EDGE('',*,*,#269,.T.);
#107=ORIENTED_EDGE('',*,*,#268,.F.);
#108=ORIENTED_EDGE('',*,*,#243,.F.);
#109=ORIENTED_EDGE('',*,*,#270,.T.);
#110=ORIENTED_EDGE('',*,*,#271,.T.);
#111=ORIENTED_EDGE('',*,*,#272,.F.);
#112=ORIENTED_EDGE('',*,*,#241,.F.);
#113=ORIENTED_EDGE('',*,*,#273,.T.);
#114=ORIENTED_EDGE('',*,*,#274,.T.);
#115=ORIENTED_EDGE('',*,*,#273,.F.);
#116=ORIENTED_EDGE('',*,*,#240,.F.);
#117=ORIENTED_EDGE('',*,*,#253,.T.);
#118=ORIENTED_EDGE('',*,*,#275,.T.);
#119=ORIENTED_EDGE('',*,*,#276,.F.);
#120=ORIENTED_EDGE('',*,*,#277,.T.);
#121=ORIENTED_EDGE('',*,*,#278,.F.);
#122=ORIENTED_EDGE('',*,*,#279,.T.);
#123=ORIENTED_EDGE('',*,*,#280,.T.);
#124=ORIENTED_EDGE('',*,*,#281,.F.);
#125=ORIENTED_EDGE('',*,*,#282,.F.);
#126=ORIENTED_EDGE('',*,*,#283,.T.);
#127=ORIENTED_EDGE('',*,*,#284,.F.);
#128=ORIENTED_EDGE('',*,*,#285,.T.);
#129=ORIENTED_EDGE('',*,*,#279,.F.);
#130=ORIENTED_EDGE('',*,*,#286,.F.);
#131=ORIENTED_EDGE('',*,*,#287,.T.);
#132=ORIENTED_EDGE('',*,*,#288,.T.);
#133=ORIENTED_EDGE('',*,*,#284,.T.);
#134=ORIENTED_EDGE('',*,*,#283,.F.);
#135=ORIENTED_EDGE('',*,*,#289,.F.);
#136=ORIENTED_EDGE('',*,*,#270,.F.);
#137=ORIENTED_EDGE('',*,*,#242,.F.);
#138=ORIENTED_EDGE('',*,*,#272,.T.);
#139=ORIENTED_EDGE('',*,*,#290,.F.);
#140=ORIENTED_EDGE('',*,*,#281,.T.);
#141=ORIENTED_EDGE('',*,*,#291,.T.);
#142=ORIENTED_EDGE('',*,*,#287,.F.);
#143=ORIENTED_EDGE('',*,*,#292,.F.);
#144=ORIENTED_EDGE('',*,*,#269,.F.);
#145=ORIENTED_EDGE('',*,*,#289,.T.);
#146=ORIENTED_EDGE('',*,*,#286,.T.);
#147=ORIENTED_EDGE('',*,*,#282,.T.);
#148=ORIENTED_EDGE('',*,*,#292,.T.);
#149=ORIENTED_EDGE('',*,*,#290,.T.);
#150=ORIENTED_EDGE('',*,*,#271,.F.);
#151=ORIENTED_EDGE('',*,*,#274,.F.);
#152=ORIENTED_EDGE('',*,*,#252,.F.);
#153=ORIENTED_EDGE('',*,*,#255,.F.);
#154=ORIENTED_EDGE('',*,*,#257,.F.);
#155=ORIENTED_EDGE('',*,*,#259,.F.);
#156=ORIENTED_EDGE('',*,*,#261,.F.);
#157=ORIENTED_EDGE('',*,*,#263,.F.);
#158=ORIENTED_EDGE('',*,*,#265,.F.);
#159=ORIENTED_EDGE('',*,*,#267,.F.);
#160=ORIENTED_EDGE('',*,*,#277,.F.);
#161=ORIENTED_EDGE('',*,*,#275,.F.);
#162=ORIENTED_EDGE('',*,*,#276,.T.);
#163=ORIENTED_EDGE('',*,*,#291,.F.);
#164=ORIENTED_EDGE('',*,*,#280,.F.);
#165=ORIENTED_EDGE('',*,*,#285,.F.);
#166=ORIENTED_EDGE('',*,*,#288,.F.);
#167=ORIENTED_EDGE('',*,*,#278,.T.);
#168=ORIENTED_EDGE('',*,*,#293,.F.);
#169=ORIENTED_EDGE('',*,*,#294,.T.);
#170=ORIENTED_EDGE('',*,*,#293,.T.);
#171=ORIENTED_EDGE('',*,*,#294,.F.);
#172=ORIENTED_EDGE('',*,*,#295,.F.);
#173=ORIENTED_EDGE('',*,*,#296,.T.);
#174=ORIENTED_EDGE('',*,*,#297,.F.);
#175=ORIENTED_EDGE('',*,*,#298,.T.);
#176=ORIENTED_EDGE('',*,*,#299,.F.);
#177=ORIENTED_EDGE('',*,*,#300,.T.);
#178=ORIENTED_EDGE('',*,*,#301,.T.);
#179=ORIENTED_EDGE('',*,*,#302,.F.);
#180=ORIENTED_EDGE('',*,*,#303,.F.);
#181=ORIENTED_EDGE('',*,*,#304,.T.);
#182=ORIENTED_EDGE('',*,*,#305,.F.);
#183=ORIENTED_EDGE('',*,*,#306,.F.);
#184=ORIENTED_EDGE('',*,*,#307,.T.);
#185=ORIENTED_EDGE('',*,*,#308,.T.);
#186=ORIENTED_EDGE('',*,*,#295,.T.);
#187=ORIENTED_EDGE('',*,*,#309,.T.);
#188=ORIENTED_EDGE('',*,*,#310,.F.);
#189=ORIENTED_EDGE('',*,*,#311,.F.);
#190=ORIENTED_EDGE('',*,*,#312,.T.);
#191=ORIENTED_EDGE('',*,*,#313,.F.);
#192=ORIENTED_EDGE('',*,*,#314,.F.);
#193=ORIENTED_EDGE('',*,*,#315,.T.);
#194=ORIENTED_EDGE('',*,*,#316,.T.);
#195=ORIENTED_EDGE('',*,*,#296,.F.);
#196=ORIENTED_EDGE('',*,*,#317,.T.);
#197=ORIENTED_EDGE('',*,*,#318,.T.);
#198=ORIENTED_EDGE('',*,*,#319,.T.);
#199=ORIENTED_EDGE('',*,*,#320,.T.);
#200=ORIENTED_EDGE('',*,*,#297,.T.);
#201=ORIENTED_EDGE('',*,*,#309,.F.);
#202=ORIENTED_EDGE('',*,*,#316,.F.);
#203=ORIENTED_EDGE('',*,*,#321,.F.);
#204=ORIENTED_EDGE('',*,*,#302,.T.);
#205=ORIENTED_EDGE('',*,*,#301,.F.);
#206=ORIENTED_EDGE('',*,*,#308,.F.);
#207=ORIENTED_EDGE('',*,*,#322,.F.);
#208=ORIENTED_EDGE('',*,*,#310,.T.);
#209=ORIENTED_EDGE('',*,*,#299,.T.);
#210=ORIENTED_EDGE('',*,*,#323,.F.);
#211=ORIENTED_EDGE('',*,*,#324,.F.);
#212=ORIENTED_EDGE('',*,*,#325,.F.);
#213=ORIENTED_EDGE('',*,*,#326,.F.);
#214=ORIENTED_EDGE('',*,*,#298,.F.);
#215=ORIENTED_EDGE('',*,*,#300,.F.);
#216=ORIENTED_EDGE('',*,*,#313,.T.);
#217=ORIENTED_EDGE('',*,*,#312,.F.);
#218=ORIENTED_EDGE('',*,*,#327,.T.);
#219=ORIENTED_EDGE('',*,*,#306,.T.);
#220=ORIENTED_EDGE('',*,*,#305,.T.);
#221=ORIENTED_EDGE('',*,*,#304,.F.);
#222=ORIENTED_EDGE('',*,*,#328,.T.);
#223=ORIENTED_EDGE('',*,*,#314,.T.);
#224=ORIENTED_EDGE('',*,*,#321,.T.);
#225=ORIENTED_EDGE('',*,*,#315,.F.);
#226=ORIENTED_EDGE('',*,*,#328,.F.);
#227=ORIENTED_EDGE('',*,*,#303,.T.);
#228=ORIENTED_EDGE('',*,*,#322,.T.);
#229=ORIENTED_EDGE('',*,*,#307,.F.);
#230=ORIENTED_EDGE('',*,*,#327,.F.);
#231=ORIENTED_EDGE('',*,*,#311,.T.);
#232=ORIENTED_EDGE('',*,*,#320,.F.);
#233=ORIENTED_EDGE('',*,*,#326,.T.);
#234=ORIENTED_EDGE('',*,*,#319,.F.);
#235=ORIENTED_EDGE('',*,*,#325,.T.);
#236=ORIENTED_EDGE('',*,*,#318,.F.);
#237=ORIENTED_EDGE('',*,*,#324,.T.);
#238=ORIENTED_EDGE('',*,*,#317,.F.);
#239=ORIENTED_EDGE('',*,*,#323,.T.);
#240=EDGE_CURVE('',#329,#330,#398,.T.);
#241=EDGE_CURVE('',#330,#331,#399,.T.);
#242=EDGE_CURVE('',#331,#332,#400,.T.);
#243=EDGE_CURVE('',#332,#333,#401,.T.);
#244=EDGE_CURVE('',#333,#334,#402,.T.);
#245=EDGE_CURVE('',#334,#335,#403,.T.);
#246=EDGE_CURVE('',#335,#336,#404,.T.);
#247=EDGE_CURVE('',#336,#337,#405,.T.);
#248=EDGE_CURVE('',#337,#338,#406,.T.);
#249=EDGE_CURVE('',#338,#339,#407,.T.);
#250=EDGE_CURVE('',#339,#340,#408,.T.);
#251=EDGE_CURVE('',#340,#329,#409,.T.);
#252=EDGE_CURVE('',#341,#342,#410,.T.);
#253=EDGE_CURVE('',#329,#342,#411,.T.);
#254=EDGE_CURVE('',#340,#341,#412,.T.);
#255=EDGE_CURVE('',#343,#341,#413,.T.);
#256=EDGE_CURVE('',#339,#343,#414,.T.);
#257=EDGE_CURVE('',#344,#343,#415,.T.);
#258=EDGE_CURVE('',#338,#344,#416,.T.);
#259=EDGE_CURVE('',#345,#344,#417,.T.);
#260=EDGE_CURVE('',#337,#345,#418,.T.);
#261=EDGE_CURVE('',#346,#345,#419,.T.);
#262=EDGE_CURVE('',#336,#346,#420,.T.);
#263=EDGE_CURVE('',#347,#346,#421,.T.);
#264=EDGE_CURVE('',#335,#347,#422,.T.);
#265=EDGE_CURVE('',#348,#347,#423,.T.);
#266=EDGE_CURVE('',#334,#348,#424,.T.);
#267=EDGE_CURVE('',#349,#348,#425,.T.);
#268=EDGE_CURVE('',#333,#349,#426,.T.);
#269=EDGE_CURVE('',#350,#349,#427,.T.);
#270=EDGE_CURVE('',#332,#350,#428,.T.);
#271=EDGE_CURVE('',#351,#352,#429,.T.);
#272=EDGE_CURVE('',#331,#352,#430,.T.);
#273=EDGE_CURVE('',#330,#351,#431,.T.);
#274=EDGE_CURVE('',#342,#351,#432,.T.);
#275=EDGE_CURVE('',#353,#353,#32,.T.);
#276=EDGE_CURVE('',#354,#354,#33,.T.);
#277=EDGE_CURVE('',#355,#355,#34,.T.);
#278=EDGE_CURVE('',#356,#356,#35,.T.);
#279=EDGE_CURVE('',#357,#358,#433,.T.);
#280=EDGE_CURVE('',#358,#359,#434,.T.);
#281=EDGE_CURVE('',#360,#359,#435,.T.);
#282=EDGE_CURVE('',#357,#360,#436,.T.);
#283=EDGE_CURVE('',#361,#362,#437,.T.);
#284=EDGE_CURVE('',#363,#362,#438,.T.);
#285=EDGE_CURVE('',#363,#358,#439,.T.);
#286=EDGE_CURVE('',#361,#357,#440,.T.);
#287=EDGE_CURVE('',#364,#365,#441,.T.);
#288=EDGE_CURVE('',#365,#363,#442,.T.);
#289=EDGE_CURVE('',#350,#361,#443,.T.);
#290=EDGE_CURVE('',#364,#352,#444,.T.);
#291=EDGE_CURVE('',#359,#365,#445,.T.);
#292=EDGE_CURVE('',#360,#364,#446,.T.);
#293=EDGE_CURVE('',#366,#366,#36,.T.);
#294=EDGE_CURVE('',#367,#367,#37,.T.);
#295=EDGE_CURVE('',#368,#368,#38,.T.);
#296=EDGE_CURVE('',#369,#369,#39,.T.);
#297=EDGE_CURVE('',#370,#370,#40,.T.);
#298=EDGE_CURVE('',#371,#371,#41,.T.);
#299=EDGE_CURVE('',#372,#372,#42,.T.);
#300=EDGE_CURVE('',#373,#373,#43,.T.);
#301=EDGE_CURVE('',#374,#375,#447,.T.);
#302=EDGE_CURVE('',#376,#375,#448,.T.);
#303=EDGE_CURVE('',#377,#376,#449,.T.);
#304=EDGE_CURVE('',#377,#378,#450,.T.);
#305=EDGE_CURVE('',#379,#378,#451,.T.);
#306=EDGE_CURVE('',#380,#379,#452,.T.);
#307=EDGE_CURVE('',#380,#381,#453,.T.);
#308=EDGE_CURVE('',#381,#374,#454,.T.);
#309=EDGE_CURVE('',#382,#383,#455,.T.);
#310=EDGE_CURVE('',#384,#383,#456,.T.);
#311=EDGE_CURVE('',#385,#384,#457,.T.);
#312=EDGE_CURVE('',#385,#386,#458,.T.);
#313=EDGE_CURVE('',#387,#386,#459,.T.);
#314=EDGE_CURVE('',#388,#387,#460,.T.);
#315=EDGE_CURVE('',#388,#389,#461,.T.);
#316=EDGE_CURVE('',#389,#382,#462,.T.);
#317=EDGE_CURVE('',#390,#390,#44,.T.);
#318=EDGE_CURVE('',#391,#391,#45,.T.);
#319=EDGE_CURVE('',#392,#392,#46,.T.);
#320=EDGE_CURVE('',#393,#393,#47,.T.);
#321=EDGE_CURVE('',#376,#389,#463,.T.);
#322=EDGE_CURVE('',#384,#381,#464,.T.);
#323=EDGE_CURVE('',#394,#394,#48,.F.);
#324=EDGE_CURVE('',#395,#395,#49,.F.);
#325=EDGE_CURVE('',#396,#396,#50,.F.);
#326=EDGE_CURVE('',#397,#397,#51,.F.);
#327=EDGE_CURVE('',#385,#380,#465,.T.);
#328=EDGE_CURVE('',#377,#388,#466,.T.);
#329=VERTEX_POINT('',#1019);
#330=VERTEX_POINT('',#1020);
#331=VERTEX_POINT('',#1022);
#332=VERTEX_POINT('',#1024);
#333=VERTEX_POINT('',#1026);
#334=VERTEX_POINT('',#1028);
#335=VERTEX_POINT('',#1030);
#336=VERTEX_POINT('',#1032);
#337=VERTEX_POINT('',#1034);
#338=VERTEX_POINT('',#1036);
#339=VERTEX_POINT('',#1038);
#340=VERTEX_POINT('',#1040);
#341=VERTEX_POINT('',#1044);
#342=VERTEX_POINT('',#1045);
#343=VERTEX_POINT('',#1050);
#344=VERTEX_POINT('',#1054);
#345=VERTEX_POINT('',#1058);
#346=VERTEX_POINT('',#1062);
#347=VERTEX_POINT('',#1066);
#348=VERTEX_POINT('',#1070);
#349=VERTEX_POINT('',#1074);
#350=VERTEX_POINT('',#1078);
#351=VERTEX_POINT('',#1082);
#352=VERTEX_POINT('',#1083);
#353=VERTEX_POINT('',#1090);
#354=VERTEX_POINT('',#1092);
#355=VERTEX_POINT('',#1095);
#356=VERTEX_POINT('',#1097);
#357=VERTEX_POINT('',#1100);
#358=VERTEX_POINT('',#1101);
#359=VERTEX_POINT('',#1103);
#360=VERTEX_POINT('',#1105);
#361=VERTEX_POINT('',#1109);
#362=VERTEX_POINT('',#1110);
#363=VERTEX_POINT('',#1112);
#364=VERTEX_POINT('',#1117);
#365=VERTEX_POINT('',#1118);
#366=VERTEX_POINT('',#1130);
#367=VERTEX_POINT('',#1133);
#368=VERTEX_POINT('',#1138);
#369=VERTEX_POINT('',#1140);
#370=VERTEX_POINT('',#1143);
#371=VERTEX_POINT('',#1145);
#372=VERTEX_POINT('',#1148);
#373=VERTEX_POINT('',#1150);
#374=VERTEX_POINT('',#1153);
#375=VERTEX_POINT('',#1154);
#376=VERTEX_POINT('',#1156);
#377=VERTEX_POINT('',#1158);
#378=VERTEX_POINT('',#1160);
#379=VERTEX_POINT('',#1162);
#380=VERTEX_POINT('',#1164);
#381=VERTEX_POINT('',#1166);
#382=VERTEX_POINT('',#1170);
#383=VERTEX_POINT('',#1171);
#384=VERTEX_POINT('',#1173);
#385=VERTEX_POINT('',#1175);
#386=VERTEX_POINT('',#1177);
#387=VERTEX_POINT('',#1179);
#388=VERTEX_POINT('',#1181);
#389=VERTEX_POINT('',#1183);
#390=VERTEX_POINT('',#1187);
#391=VERTEX_POINT('',#1189);
#392=VERTEX_POINT('',#1191);
#393=VERTEX_POINT('',#1193);
#394=VERTEX_POINT('',#1198);
#395=VERTEX_POINT('',#1200);
#396=VERTEX_POINT('',#1202);
#397=VERTEX_POINT('',#1204);
#398=LINE('',#1018,#467);
#399=LINE('',#1021,#468);
#400=LINE('',#1023,#469);
#401=LINE('',#1025,#470);
#402=LINE('',#1027,#471);
#403=LINE('',#1029,#472);
#404=LINE('',#1031,#473);
#405=LINE('',#1033,#474);
#406=LINE('',#1035,#475);
#407=LINE('',#1037,#476);
#408=LINE('',#1039,#477);
#409=LINE('',#1041,#478);
#410=LINE('',#1043,#479);
#411=LINE('',#1046,#480);
#412=LINE('',#1047,#481);
#413=LINE('',#1049,#482);
#414=LINE('',#1051,#483);
#415=LINE('',#1053,#484);
#416=LINE('',#1055,#485);
#417=LINE('',#1057,#486);
#418=LINE('',#1059,#487);
#419=LINE('',#1061,#488);
#420=LINE('',#1063,#489);
#421=LINE('',#1065,#490);
#422=LINE('',#1067,#491);
#423=LINE('',#1069,#492);
#424=LINE('',#1071,#493);
#425=LINE('',#1073,#494);
#426=LINE('',#1075,#495);
#427=LINE('',#1077,#496);
#428=LINE('',#1079,#497);
#429=LINE('',#1081,#498);
#430=LINE('',#1084,#499);
#431=LINE('',#1085,#500);
#432=LINE('',#1087,#501);
#433=LINE('',#1099,#502);
#434=LINE('',#1102,#503);
#435=LINE('',#1104,#504);
#436=LINE('',#1106,#505);
#437=LINE('',#1108,#506);
#438=LINE('',#1111,#507);
#439=LINE('',#1113,#508);
#440=LINE('',#1114,#509);
#441=LINE('',#1116,#510);
#442=LINE('',#1119,#511);
#443=LINE('',#1120,#512);
#444=LINE('',#1121,#513);
#445=LINE('',#1123,#514);
#446=LINE('',#1124,#515);
#447=LINE('',#1152,#516);
#448=LINE('',#1155,#517);
#449=LINE('',#1157,#518);
#450=LINE('',#1159,#519);
#451=LINE('',#1161,#520);
#452=LINE('',#1163,#521);
#453=LINE('',#1165,#522);
#454=LINE('',#1167,#523);
#455=LINE('',#1169,#524);
#456=LINE('',#1172,#525);
#457=LINE('',#1174,#526);
#458=LINE('',#1176,#527);
#459=LINE('',#1178,#528);
#460=LINE('',#1180,#529);
#461=LINE('',#1182,#530);
#462=LINE('',#1184,#531);
#463=LINE('',#1194,#532);
#464=LINE('',#1195,#533);
#465=LINE('',#1205,#534);
#466=LINE('',#1206,#535);
#467=VECTOR('',#829,100.);
#468=VECTOR('',#830,100.);
#469=VECTOR('',#831,100.);
#470=VECTOR('',#832,100.);
#471=VECTOR('',#833,100.);
#472=VECTOR('',#834,100.);
#473=VECTOR('',#835,100.);
#474=VECTOR('',#836,100.);
#475=VECTOR('',#837,100.);
#476=VECTOR('',#838,100.);
#477=VECTOR('',#839,100.);
#478=VECTOR('',#840,100.);
#479=VECTOR('',#843,100.);
#480=VECTOR('',#844,100.);
#481=VECTOR('',#845,100.);
#482=VECTOR('',#848,100.);
#483=VECTOR('',#849,100.);
#484=VECTOR('',#852,100.);
#485=VECTOR('',#853,100.);
#486=VECTOR('',#856,100.);
#487=VECTOR('',#857,100.);
#488=VECTOR('',#860,100.);
#489=VECTOR('',#861,100.);
#490=VECTOR('',#864,100.);
#491=VECTOR('',#865,100.);
#492=VECTOR('',#868,100.);
#493=VECTOR('',#869,100.);
#494=VECTOR('',#872,100.);
#495=VECTOR('',#873,100.);
#496=VECTOR('',#876,100.);
#497=VECTOR('',#877,100.);
#498=VECTOR('',#880,100.);
#499=VECTOR('',#881,100.);
#500=VECTOR('',#882,100.);
#501=VECTOR('',#885,100.);
#502=VECTOR('',#900,100.);
#503=VECTOR('',#901,100.);
#504=VECTOR('',#902,100.);
#505=VECTOR('',#903,100.);
#506=VECTOR('',#906,100.);
#507=VECTOR('',#907,100.);
#508=VECTOR('',#908,100.);
#509=VECTOR('',#909,100.);
#510=VECTOR('',#912,100.);
#511=VECTOR('',#913,100.);
#512=VECTOR('',#914,100.);
#513=VECTOR('',#915,100.);
#514=VECTOR('',#918,100.);
#515=VECTOR('',#919,100.);
#516=VECTOR('',#958,100.);
#517=VECTOR('',#959,100.);
#518=VECTOR('',#960,100.);
#519=VECTOR('',#961,100.);
#520=VECTOR('',#962,100.);
#521=VECTOR('',#963,100.);
#522=VECTOR('',#964,100.);
#523=VECTOR('',#965,100.);
#524=VECTOR('',#968,100.);
#525=VECTOR('',#969,100.);
#526=VECTOR('',#970,100.);
#527=VECTOR('',#971,100.);
#528=VECTOR('',#972,100.);
#529=VECTOR('',#973,100.);
#530=VECTOR('',#974,100.);
#531=VECTOR('',#975,100.);
#532=VECTOR('',#986,100.);
#533=VECTOR('',#987,100.);
#534=VECTOR('',#998,100.);
#535=VECTOR('',#999,100.);
#536=EDGE_LOOP('',(#62,#63,#64,#65,#66,#67,#68,#69,#70,#71,#72,#73));
#537=EDGE_LOOP('',(#74,#75,#76,#77));
#538=EDGE_LOOP('',(#78,#79,#80,#81));
#539=EDGE_LOOP('',(#82,#83,#84,#85));
#540=EDGE_LOOP('',(#86,#87,#88,#89));
#541=EDGE_LOOP('',(#90,#91,#92,#93));
#542=EDGE_LOOP('',(#94,#95,#96,#97));
#543=EDGE_LOOP('',(#98,#99,#100,#101));
#544=EDGE_LOOP('',(#102,#103,#104,#105));
#545=EDGE_LOOP('',(#106,#107,#108,#109));
#546=EDGE_LOOP('',(#110,#111,#112,#113));
#547=EDGE_LOOP('',(#114,#115,#116,#117));
#548=EDGE_LOOP('',(#118));
#549=EDGE_LOOP('',(#119));
#550=EDGE_LOOP('',(#120));
#551=EDGE_LOOP('',(#121));
#552=EDGE_LOOP('',(#122,#123,#124,#125));
#553=EDGE_LOOP('',(#126,#127,#128,#129,#130));
#554=EDGE_LOOP('',(#131,#132,#133,#134,#135,#136,#137,#138,#139));
#555=EDGE_LOOP('',(#140,#141,#142,#143));
#556=EDGE_LOOP('',(#144,#145,#146,#147,#148,#149,#150,#151,#152,#153,#154,
#155,#156,#157,#158,#159));
#557=EDGE_LOOP('',(#160));
#558=EDGE_LOOP('',(#161));
#559=EDGE_LOOP('',(#162));
#560=EDGE_LOOP('',(#163,#164,#165,#166));
#561=EDGE_LOOP('',(#167));
#562=EDGE_LOOP('',(#168));
#563=EDGE_LOOP('',(#169));
#564=EDGE_LOOP('',(#170));
#565=EDGE_LOOP('',(#171));
#566=EDGE_LOOP('',(#172));
#567=EDGE_LOOP('',(#173));
#568=EDGE_LOOP('',(#174));
#569=EDGE_LOOP('',(#175));
#570=EDGE_LOOP('',(#176));
#571=EDGE_LOOP('',(#177));
#572=EDGE_LOOP('',(#178,#179,#180,#181,#182,#183,#184,#185));
#573=EDGE_LOOP('',(#186));
#574=EDGE_LOOP('',(#187,#188,#189,#190,#191,#192,#193,#194));
#575=EDGE_LOOP('',(#195));
#576=EDGE_LOOP('',(#196));
#577=EDGE_LOOP('',(#197));
#578=EDGE_LOOP('',(#198));
#579=EDGE_LOOP('',(#199));
#580=EDGE_LOOP('',(#200));
#581=EDGE_LOOP('',(#201,#202,#203,#204,#205,#206,#207,#208));
#582=EDGE_LOOP('',(#209));
#583=EDGE_LOOP('',(#210));
#584=EDGE_LOOP('',(#211));
#585=EDGE_LOOP('',(#212));
#586=EDGE_LOOP('',(#213));
#587=EDGE_LOOP('',(#214));
#588=EDGE_LOOP('',(#215));
#589=EDGE_LOOP('',(#216,#217,#218,#219,#220,#221,#222,#223));
#590=EDGE_LOOP('',(#224,#225,#226,#227));
#591=EDGE_LOOP('',(#228,#229,#230,#231));
#592=EDGE_LOOP('',(#232));
#593=EDGE_LOOP('',(#233));
#594=EDGE_LOOP('',(#234));
#595=EDGE_LOOP('',(#235));
#596=EDGE_LOOP('',(#236));
#597=EDGE_LOOP('',(#237));
#598=EDGE_LOOP('',(#238));
#599=EDGE_LOOP('',(#239));
#600=FACE_BOUND('',#536,.T.);
#601=FACE_BOUND('',#537,.T.);
#602=FACE_BOUND('',#538,.T.);
#603=FACE_BOUND('',#539,.T.);
#604=FACE_BOUND('',#540,.T.);
#605=FACE_BOUND('',#541,.T.);
#606=FACE_BOUND('',#542,.T.);
#607=FACE_BOUND('',#543,.T.);
#608=FACE_BOUND('',#544,.T.);
#609=FACE_BOUND('',#545,.T.);
#610=FACE_BOUND('',#546,.T.);
#611=FACE_BOUND('',#547,.T.);
#612=FACE_BOUND('',#548,.T.);
#613=FACE_BOUND('',#549,.T.);
#614=FACE_BOUND('',#550,.T.);
#615=FACE_BOUND('',#551,.T.);
#616=FACE_BOUND('',#552,.T.);
#617=FACE_BOUND('',#553,.T.);
#618=FACE_BOUND('',#554,.T.);
#619=FACE_BOUND('',#555,.T.);
#620=FACE_BOUND('',#556,.T.);
#621=FACE_BOUND('',#557,.T.);
#622=FACE_BOUND('',#558,.T.);
#623=FACE_BOUND('',#559,.T.);
#624=FACE_BOUND('',#560,.T.);
#625=FACE_BOUND('',#561,.T.);
#626=FACE_BOUND('',#562,.T.);
#627=FACE_BOUND('',#563,.T.);
#628=FACE_BOUND('',#564,.T.);
#629=FACE_BOUND('',#565,.T.);
#630=FACE_BOUND('',#566,.T.);
#631=FACE_BOUND('',#567,.T.);
#632=FACE_BOUND('',#568,.T.);
#633=FACE_BOUND('',#569,.T.);
#634=FACE_BOUND('',#570,.T.);
#635=FACE_BOUND('',#571,.T.);
#636=FACE_BOUND('',#572,.T.);
#637=FACE_BOUND('',#573,.T.);
#638=FACE_BOUND('',#574,.T.);
#639=FACE_BOUND('',#575,.T.);
#640=FACE_BOUND('',#576,.T.);
#641=FACE_BOUND('',#577,.T.);
#642=FACE_BOUND('',#578,.T.);
#643=FACE_BOUND('',#579,.T.);
#644=FACE_BOUND('',#580,.T.);
#645=FACE_BOUND('',#581,.T.);
#646=FACE_BOUND('',#582,.T.);
#647=FACE_BOUND('',#583,.T.);
#648=FACE_BOUND('',#584,.T.);
#649=FACE_BOUND('',#585,.T.);
#650=FACE_BOUND('',#586,.T.);
#651=FACE_BOUND('',#587,.T.);
#652=FACE_BOUND('',#588,.T.);
#653=FACE_BOUND('',#589,.T.);
#654=FACE_BOUND('',#590,.T.);
#655=FACE_BOUND('',#591,.T.);
#656=FACE_BOUND('',#592,.T.);
#657=FACE_BOUND('',#593,.T.);
#658=FACE_BOUND('',#594,.T.);
#659=FACE_BOUND('',#595,.T.);
#660=FACE_BOUND('',#596,.T.);
#661=FACE_BOUND('',#597,.T.);
#662=FACE_BOUND('',#598,.T.);
#663=FACE_BOUND('',#599,.T.);
#664=PLANE('',#765);
#665=PLANE('',#766);
#666=PLANE('',#767);
#667=PLANE('',#768);
#668=PLANE('',#769);
#669=PLANE('',#770);
#670=PLANE('',#771);
#671=PLANE('',#772);
#672=PLANE('',#773);
#673=PLANE('',#774);
#674=PLANE('',#775);
#675=PLANE('',#776);
#676=PLANE('',#783);
#677=PLANE('',#784);
#678=PLANE('',#785);
#679=PLANE('',#786);
#680=PLANE('',#787);
#681=PLANE('',#788);
#682=PLANE('',#790);
#683=PLANE('',#792);
#684=PLANE('',#805);
#685=PLANE('',#806);
#686=PLANE('',#807);
#687=PLANE('',#812);
#688=PLANE('',#817);
#689=PLANE('',#818);
#690=ADVANCED_FACE('',(#600),#664,.F.);
#691=ADVANCED_FACE('',(#601),#665,.F.);
#692=ADVANCED_FACE('',(#602),#666,.F.);
#693=ADVANCED_FACE('',(#603),#667,.F.);
#694=ADVANCED_FACE('',(#604),#668,.F.);
#695=ADVANCED_FACE('',(#605),#669,.F.);
#696=ADVANCED_FACE('',(#606),#670,.F.);
#697=ADVANCED_FACE('',(#607),#671,.F.);
#698=ADVANCED_FACE('',(#608),#672,.F.);
#699=ADVANCED_FACE('',(#609),#673,.F.);
#700=ADVANCED_FACE('',(#610),#674,.F.);
#701=ADVANCED_FACE('',(#611),#675,.F.);
#702=ADVANCED_FACE('',(#612,#613),#52,.F.);
#703=ADVANCED_FACE('',(#614,#615),#53,.F.);
#704=ADVANCED_FACE('',(#616),#676,.F.);
#705=ADVANCED_FACE('',(#617),#677,.F.);
#706=ADVANCED_FACE('',(#618),#678,.F.);
#707=ADVANCED_FACE('',(#619),#679,.F.);
#708=ADVANCED_FACE('',(#620,#621,#622),#680,.F.);
#709=ADVANCED_FACE('',(#623,#624,#625),#681,.T.);
#710=ADVANCED_FACE('',(#626),#682,.F.);
#711=ADVANCED_FACE('',(#627),#683,.T.);
#712=ADVANCED_FACE('',(#628,#629),#54,.T.);
#713=ADVANCED_FACE('',(#630,#631),#55,.F.);
#714=ADVANCED_FACE('',(#632,#633),#56,.F.);
#715=ADVANCED_FACE('',(#634,#635),#57,.F.);
#716=ADVANCED_FACE('',(#636,#637),#684,.F.);
#717=ADVANCED_FACE('',(#638,#639),#685,.F.);
#718=ADVANCED_FACE('',(#640,#641,#642,#643,#644,#645,#646),#686,.T.);
#719=ADVANCED_FACE('',(#647,#648,#649,#650,#651,#652,#653),#687,.F.);
#720=ADVANCED_FACE('',(#654),#688,.F.);
#721=ADVANCED_FACE('',(#655),#689,.F.);
#722=ADVANCED_FACE('',(#656,#657),#58,.F.);
#723=ADVANCED_FACE('',(#658,#659),#59,.F.);
#724=ADVANCED_FACE('',(#660,#661),#60,.F.);
#725=ADVANCED_FACE('',(#662,#663),#61,.F.);
#726=CLOSED_SHELL('',(#690,#691,#692,#693,#694,#695,#696,#697,#698,#699,
#700,#701,#702,#703,#704,#705,#706,#707,#708,#709));
#727=CLOSED_SHELL('',(#710,#711,#712));
#728=CLOSED_SHELL('',(#713,#714,#715,#716,#717,#718,#719,#720,#721,#722,
#723,#724,#725));
#729=STYLED_ITEM('',(#732),#751);
#730=STYLED_ITEM('',(#733),#752);
#731=STYLED_ITEM('',(#734),#753);
#732=PRESENTATION_STYLE_ASSIGNMENT((#735));
#733=PRESENTATION_STYLE_ASSIGNMENT((#736));
#734=PRESENTATION_STYLE_ASSIGNMENT((#737));
#735=SURFACE_STYLE_USAGE(.BOTH.,#738);
#736=SURFACE_STYLE_USAGE(.BOTH.,#739);
#737=SURFACE_STYLE_USAGE(.BOTH.,#740);
#738=SURFACE_SIDE_STYLE('',(#741));
#739=SURFACE_SIDE_STYLE('',(#742));
#740=SURFACE_SIDE_STYLE('',(#743));
#741=SURFACE_STYLE_FILL_AREA(#744);
#742=SURFACE_STYLE_FILL_AREA(#745);
#743=SURFACE_STYLE_FILL_AREA(#746);
#744=FILL_AREA_STYLE('',(#747));
#745=FILL_AREA_STYLE('',(#748));
#746=FILL_AREA_STYLE('',(#749));
#747=FILL_AREA_STYLE_COLOUR('',#750);
#748=FILL_AREA_STYLE_COLOUR('',#750);
#749=FILL_AREA_STYLE_COLOUR('',#750);
#750=COLOUR_RGB('',0.796078431372549,0.823529411764706,0.937254901960784);
#751=MANIFOLD_SOLID_BREP('LDR_sensor_base',#726);
#752=MANIFOLD_SOLID_BREP('hing_rod',#727);
#753=MANIFOLD_SOLID_BREP('panel_base',#728);
#754=SHAPE_DEFINITION_REPRESENTATION(#1229,#759);
#755=SHAPE_DEFINITION_REPRESENTATION(#1230,#760);
#756=SHAPE_DEFINITION_REPRESENTATION(#1231,#761);
#757=SHAPE_DEFINITION_REPRESENTATION(#1233,#762);
#758=SHAPE_DEFINITION_REPRESENTATION(#1235,#763);
#759=SHAPE_REPRESENTATION('dual-axis-solar-panel-tracker-OKOK',(#764,#824),
#1216);
#760=SHAPE_REPRESENTATION('Elevator <1>',(#764,#789,#795,#823),#1217);
#761=SHAPE_REPRESENTATION('LDR_sensor_base',(#764),#1218);
#762=SHAPE_REPRESENTATION('hing_rod',(#764),#1219);
#763=SHAPE_REPRESENTATION('panel_base',(#764),#1220);
#764=AXIS2_PLACEMENT_3D('',#1016,#825,#826);
#765=AXIS2_PLACEMENT_3D('',#1017,#827,#828);
#766=AXIS2_PLACEMENT_3D('',#1042,#841,#842);
#767=AXIS2_PLACEMENT_3D('',#1048,#846,#847);
#768=AXIS2_PLACEMENT_3D('',#1052,#850,#851);
#769=AXIS2_PLACEMENT_3D('',#1056,#854,#855);
#770=AXIS2_PLACEMENT_3D('',#1060,#858,#859);
#771=AXIS2_PLACEMENT_3D('',#1064,#862,#863);
#772=AXIS2_PLACEMENT_3D('',#1068,#866,#867);
#773=AXIS2_PLACEMENT_3D('',#1072,#870,#871);
#774=AXIS2_PLACEMENT_3D('',#1076,#874,#875);
#775=AXIS2_PLACEMENT_3D('',#1080,#878,#879);
#776=AXIS2_PLACEMENT_3D('',#1086,#883,#884);
#777=AXIS2_PLACEMENT_3D('',#1088,#886,#887);
#778=AXIS2_PLACEMENT_3D('',#1089,#888,#889);
#779=AXIS2_PLACEMENT_3D('',#1091,#890,#891);
#780=AXIS2_PLACEMENT_3D('',#1093,#892,#893);
#781=AXIS2_PLACEMENT_3D('',#1094,#894,#895);
#782=AXIS2_PLACEMENT_3D('',#1096,#896,#897);
#783=AXIS2_PLACEMENT_3D('',#1098,#898,#899);
#784=AXIS2_PLACEMENT_3D('',#1107,#904,#905);
#785=AXIS2_PLACEMENT_3D('',#1115,#910,#911);
#786=AXIS2_PLACEMENT_3D('',#1122,#916,#917);
#787=AXIS2_PLACEMENT_3D('',#1125,#920,#921);
#788=AXIS2_PLACEMENT_3D('',#1126,#922,#923);
#789=AXIS2_PLACEMENT_3D('',#1127,#924,#925);
#790=AXIS2_PLACEMENT_3D('',#1128,#926,#927);
#791=AXIS2_PLACEMENT_3D('',#1129,#928,#929);
#792=AXIS2_PLACEMENT_3D('',#1131,#930,#931);
#793=AXIS2_PLACEMENT_3D('',#1132,#932,#933);
#794=AXIS2_PLACEMENT_3D('',#1134,#934,#935);
#795=AXIS2_PLACEMENT_3D('',#1135,#936,#937);
#796=AXIS2_PLACEMENT_3D('',#1136,#938,#939);
#797=AXIS2_PLACEMENT_3D('',#1137,#940,#941);
#798=AXIS2_PLACEMENT_3D('',#1139,#942,#943);
#799=AXIS2_PLACEMENT_3D('',#1141,#944,#945);
#800=AXIS2_PLACEMENT_3D('',#1142,#946,#947);
#801=AXIS2_PLACEMENT_3D('',#1144,#948,#949);
#802=AXIS2_PLACEMENT_3D('',#1146,#950,#951);
#803=AXIS2_PLACEMENT_3D('',#1147,#952,#953);
#804=AXIS2_PLACEMENT_3D('',#1149,#954,#955);
#805=AXIS2_PLACEMENT_3D('',#1151,#956,#957);
#806=AXIS2_PLACEMENT_3D('',#1168,#966,#967);
#807=AXIS2_PLACEMENT_3D('',#1185,#976,#977);
#808=AXIS2_PLACEMENT_3D('',#1186,#978,#979);
#809=AXIS2_PLACEMENT_3D('',#1188,#980,#981);
#810=AXIS2_PLACEMENT_3D('',#1190,#982,#983);
#811=AXIS2_PLACEMENT_3D('',#1192,#984,#985);
#812=AXIS2_PLACEMENT_3D('',#1196,#988,#989);
#813=AXIS2_PLACEMENT_3D('',#1197,#990,#991);
#814=AXIS2_PLACEMENT_3D('',#1199,#992,#993);
#815=AXIS2_PLACEMENT_3D('',#1201,#994,#995);
#816=AXIS2_PLACEMENT_3D('',#1203,#996,#997);
#817=AXIS2_PLACEMENT_3D('',#1207,#1000,#1001);
#818=AXIS2_PLACEMENT_3D('',#1208,#1002,#1003);
#819=AXIS2_PLACEMENT_3D('',#1209,#1004,#1005);
#820=AXIS2_PLACEMENT_3D('',#1210,#1006,#1007);
#821=AXIS2_PLACEMENT_3D('',#1211,#1008,#1009);
#822=AXIS2_PLACEMENT_3D('',#1212,#1010,#1011);
#823=AXIS2_PLACEMENT_3D('',#1213,#1012,#1013);
#824=AXIS2_PLACEMENT_3D('',#1214,#1014,#1015);
#825=DIRECTION('',(0.,0.,1.));
#826=DIRECTION('',(1.,0.,0.));
#827=DIRECTION('',(0.,-1.,0.));
#828=DIRECTION('',(0.,0.,-1.));
#829=DIRECTION('',(-1.,0.,3.46944695195361E-16));
#830=DIRECTION('',(-3.46944695195361E-16,0.,-1.));
#831=DIRECTION('',(-1.,0.,0.));
#832=DIRECTION('',(0.,0.,1.));
#833=DIRECTION('',(-1.,0.,0.));
#834=DIRECTION('',(0.,0.,1.));
#835=DIRECTION('',(1.,0.,-2.60208521396521E-16));
#836=DIRECTION('',(4.33680868994202E-16,0.,1.));
#837=DIRECTION('',(1.,0.,-1.62630325872826E-16));
#838=DIRECTION('',(8.67361737988404E-17,0.,-1.));
#839=DIRECTION('',(1.,0.,-8.67361737988404E-17));
#840=DIRECTION('',(-4.33680868994202E-16,0.,-1.));
#841=DIRECTION('',(-1.,0.,0.));
#842=DIRECTION('',(0.,0.,1.));
#843=DIRECTION('',(-4.33680868994202E-16,0.,-1.));
#844=DIRECTION('',(0.,-1.,0.));
#845=DIRECTION('',(0.,-1.,0.));
#846=DIRECTION('',(0.,0.,-1.));
#847=DIRECTION('',(-1.,0.,0.));
#848=DIRECTION('',(1.,0.,-8.67361737988404E-17));
#849=DIRECTION('',(0.,-1.,0.));
#850=DIRECTION('',(-1.,0.,-8.67361737988404E-17));
#851=DIRECTION('',(-8.67361737988404E-17,0.,1.));
#852=DIRECTION('',(8.67361737988404E-17,0.,-1.));
#853=DIRECTION('',(0.,-1.,0.));
#854=DIRECTION('',(0.,0.,-1.));
#855=DIRECTION('',(-1.,0.,0.));
#856=DIRECTION('',(1.,0.,-1.62630325872826E-16));
#857=DIRECTION('',(0.,-1.,0.));
#858=DIRECTION('',(1.,0.,0.));
#859=DIRECTION('',(0.,0.,-1.));
#860=DIRECTION('',(4.33680868994202E-16,0.,1.));
#861=DIRECTION('',(0.,-1.,0.));
#862=DIRECTION('',(0.,0.,-1.));
#863=DIRECTION('',(-1.,0.,0.));
#864=DIRECTION('',(1.,0.,-2.60208521396521E-16));
#865=DIRECTION('',(0.,-1.,0.));
#866=DIRECTION('',(1.,0.,0.));
#867=DIRECTION('',(0.,0.,-1.));
#868=DIRECTION('',(0.,0.,1.));
#869=DIRECTION('',(0.,-1.,0.));
#870=DIRECTION('',(0.,0.,1.));
#871=DIRECTION('',(1.,0.,0.));
#872=DIRECTION('',(-1.,0.,0.));
#873=DIRECTION('',(0.,-1.,0.));
#874=DIRECTION('',(1.,0.,0.));
#875=DIRECTION('',(0.,0.,-1.));
#876=DIRECTION('',(0.,0.,1.));
#877=DIRECTION('',(0.,-1.,0.));
#878=DIRECTION('',(-1.,0.,-8.67361737988404E-17));
#879=DIRECTION('',(-8.67361737988404E-17,0.,1.));
#880=DIRECTION('',(-3.46944695195361E-16,0.,-1.));
#881=DIRECTION('',(0.,-1.,0.));
#882=DIRECTION('',(0.,-1.,0.));
#883=DIRECTION('',(0.,0.,1.));
#884=DIRECTION('',(1.,0.,0.));
#885=DIRECTION('',(-1.,0.,3.46944695195361E-16));
#886=DIRECTION('',(0.,-1.,0.));
#887=DIRECTION('',(0.,0.,-1.));
#888=DIRECTION('',(0.,1.,0.));
#889=DIRECTION('',(0.,0.,-1.));
#890=DIRECTION('',(0.,1.,0.));
#891=DIRECTION('',(0.,0.,-1.));
#892=DIRECTION('',(0.,-1.,0.));
#893=DIRECTION('',(0.,0.,-1.));
#894=DIRECTION('',(0.,1.,0.));
#895=DIRECTION('',(0.,0.,1.));
#896=DIRECTION('',(0.,1.,0.));
#897=DIRECTION('',(0.,0.,1.));
#898=DIRECTION('',(0.,0.,-1.));
#899=DIRECTION('',(-1.,0.,0.));
#900=DIRECTION('',(0.,-1.,0.));
#901=DIRECTION('',(1.,0.,2.60208521396521E-16));
#902=DIRECTION('',(0.,-1.,0.));
#903=DIRECTION('',(1.,0.,2.60208521396521E-16));
#904=DIRECTION('',(1.,0.,0.));
#905=DIRECTION('',(0.,0.,-1.));
#906=DIRECTION('',(0.,-1.,0.));
#907=DIRECTION('',(0.,1.,0.));
#908=DIRECTION('',(0.,0.,1.));
#909=DIRECTION('',(0.,0.,1.));
#910=DIRECTION('',(0.,0.,1.));
#911=DIRECTION('',(1.,0.,0.));
#912=DIRECTION('',(0.,-1.,0.));
#913=DIRECTION('',(-1.,0.,0.));
#914=DIRECTION('',(-1.,0.,0.));
#915=DIRECTION('',(-1.,0.,0.));
#916=DIRECTION('',(-1.,0.,0.));
#917=DIRECTION('',(0.,0.,1.));
#918=DIRECTION('',(-2.08166817117217E-16,0.,-1.));
#919=DIRECTION('',(-2.08166817117217E-16,0.,-1.));
#920=DIRECTION('',(0.,-1.,0.));
#921=DIRECTION('',(0.,0.,-1.));
#922=DIRECTION('',(0.,-1.,0.));
#923=DIRECTION('',(0.,0.,-1.));
#924=DIRECTION('',(0.529415946231102,-0.580425600304674,-0.618728436704816));
#925=DIRECTION('',(0.738826311823234,0.673895897715424,8.95591218101085E-16));
#926=DIRECTION('',(0.,1.,0.));
#927=DIRECTION('',(0.,0.,1.));
#928=DIRECTION('',(0.,1.,0.));
#929=DIRECTION('',(0.,0.,1.));
#930=DIRECTION('',(0.,1.,0.));
#931=DIRECTION('',(0.,0.,1.));
#932=DIRECTION('',(0.,1.,0.));
#933=DIRECTION('',(0.,0.,1.));
#934=DIRECTION('',(0.,-1.,0.));
#935=DIRECTION('',(0.,0.,-1.));
#936=DIRECTION('',(-0.529415946231108,0.580425600304678,0.618728436704807));
#937=DIRECTION('',(0.41695855529525,-0.457132848910766,0.785604939911165));
#938=DIRECTION('',(1.,0.,0.));
#939=DIRECTION('',(0.,0.,-1.));
#940=DIRECTION('',(1.,0.,0.));
#941=DIRECTION('',(0.,0.,-1.));
#942=DIRECTION('',(1.,0.,0.));
#943=DIRECTION('',(0.,0.,-1.));
#944=DIRECTION('',(0.,0.,-1.));
#945=DIRECTION('',(-1.,0.,0.));
#946=DIRECTION('',(0.,0.,1.));
#947=DIRECTION('',(-1.,0.,0.));
#948=DIRECTION('',(0.,0.,1.));
#949=DIRECTION('',(-1.,0.,0.));
#950=DIRECTION('',(0.,0.,-1.));
#951=DIRECTION('',(-1.,0.,0.));
#952=DIRECTION('',(0.,0.,1.));
#953=DIRECTION('',(1.,0.,0.));
#954=DIRECTION('',(0.,0.,1.));
#955=DIRECTION('',(1.,0.,0.));
#956=DIRECTION('',(1.,0.,0.));
#957=DIRECTION('',(0.,0.,-1.));
#958=DIRECTION('',(0.,-1.,0.));
#959=DIRECTION('',(0.,1.,0.));
#960=DIRECTION('',(0.,0.,-1.));
#961=DIRECTION('',(0.,1.,0.));
#962=DIRECTION('',(0.,-1.,0.));
#963=DIRECTION('',(0.,-1.,0.));
#964=DIRECTION('',(0.,0.,-1.));
#965=DIRECTION('',(0.,-1.,0.));
#966=DIRECTION('',(-1.,0.,0.));
#967=DIRECTION('',(0.,0.,1.));
#968=DIRECTION('',(0.,1.,0.));
#969=DIRECTION('',(0.,-1.,0.));
#970=DIRECTION('',(0.,0.,-1.));
#971=DIRECTION('',(0.,-1.,0.));
#972=DIRECTION('',(0.,1.,0.));
#973=DIRECTION('',(0.,1.,0.));
#974=DIRECTION('',(0.,0.,-1.));
#975=DIRECTION('',(0.,1.,0.));
#976=DIRECTION('',(0.,0.,-1.));
#977=DIRECTION('',(-1.,0.,0.));
#978=DIRECTION('',(0.,0.,1.));
#979=DIRECTION('',(1.,0.,0.));
#980=DIRECTION('',(0.,0.,1.));
#981=DIRECTION('',(1.,0.,0.));
#982=DIRECTION('',(0.,0.,1.));
#983=DIRECTION('',(1.,0.,0.));
#984=DIRECTION('',(0.,0.,1.));
#985=DIRECTION('',(1.,0.,0.));
#986=DIRECTION('',(1.,0.,0.));
#987=DIRECTION('',(-1.,0.,0.));
#988=DIRECTION('',(0.,0.,-1.));
#989=DIRECTION('',(-1.,0.,0.));
#990=DIRECTION('',(0.,0.,-1.));
#991=DIRECTION('',(-1.,0.,0.));
#992=DIRECTION('',(0.,0.,-1.));
#993=DIRECTION('',(-1.,0.,0.));
#994=DIRECTION('',(0.,0.,-1.));
#995=DIRECTION('',(-1.,0.,0.));
#996=DIRECTION('',(0.,0.,-1.));
#997=DIRECTION('',(-1.,0.,0.));
#998=DIRECTION('',(-1.,0.,0.));
#999=DIRECTION('',(1.,0.,0.));
#1000=DIRECTION('',(0.,1.,0.));
#1001=DIRECTION('',(0.,0.,1.));
#1002=DIRECTION('',(0.,-1.,0.));
#1003=DIRECTION('',(0.,0.,-1.));
#1004=DIRECTION('',(0.,0.,1.));
#1005=DIRECTION('',(1.,0.,0.));
#1006=DIRECTION('',(0.,0.,1.));
#1007=DIRECTION('',(1.,0.,0.));
#1008=DIRECTION('',(0.,0.,1.));
#1009=DIRECTION('',(1.,0.,0.));
#1010=DIRECTION('',(0.,0.,1.));
#1011=DIRECTION('',(1.,0.,0.));
#1012=DIRECTION('',(-0.416958555295255,0.457132848910776,-0.785604939911156));
#1013=DIRECTION('',(-0.738826311823233,-0.673895897715426,-1.48150072216901E-15));
#1014=DIRECTION('',(0.,0.,1.));
#1015=DIRECTION('',(1.,0.,0.));
#1016=CARTESIAN_POINT('',(0.,0.,0.));
#1017=CARTESIAN_POINT('',(0.,3.3,0.));
#1018=CARTESIAN_POINT('',(0.4,3.3,-1.5));
#1019=CARTESIAN_POINT('',(1.4,3.3,-1.5));
#1020=CARTESIAN_POINT('',(0.4,3.3,-1.5));
#1021=CARTESIAN_POINT('',(0.4,3.3,-2.5));
#1022=CARTESIAN_POINT('',(0.4,3.3,-2.5));
#1023=CARTESIAN_POINT('',(-0.4,3.3,-2.5));
#1024=CARTESIAN_POINT('',(-0.4,3.3,-2.5));
#1025=CARTESIAN_POINT('',(-0.4,3.3,-1.5));
#1026=CARTESIAN_POINT('',(-0.4,3.3,-1.5));
#1027=CARTESIAN_POINT('',(-1.4,3.3,-1.5));
#1028=CARTESIAN_POINT('',(-1.4,3.3,-1.5));
#1029=CARTESIAN_POINT('',(-1.4,3.3,-0.7));
#1030=CARTESIAN_POINT('',(-1.4,3.3,-0.7));
#1031=CARTESIAN_POINT('',(-0.4,3.3,-0.7));
#1032=CARTESIAN_POINT('',(-0.4,3.3,-0.7));
#1033=CARTESIAN_POINT('',(-0.4,3.3,0.3));
#1034=CARTESIAN_POINT('',(-0.4,3.3,0.3));
#1035=CARTESIAN_POINT('',(0.4,3.3,0.3));
#1036=CARTESIAN_POINT('',(0.4,3.3,0.3));
#1037=CARTESIAN_POINT('',(0.4,3.3,-0.7));
#1038=CARTESIAN_POINT('',(0.4,3.3,-0.7));
#1039=CARTESIAN_POINT('',(1.4,3.3,-0.7));
#1040=CARTESIAN_POINT('',(1.4,3.3,-0.7));
#1041=CARTESIAN_POINT('',(1.4,3.3,-1.5));
#1042=CARTESIAN_POINT('',(1.4,3.3,-1.5));
#1043=CARTESIAN_POINT('',(1.4,0.8,-1.5));
#1044=CARTESIAN_POINT('',(1.4,0.8,-0.7));
#1045=CARTESIAN_POINT('',(1.4,0.8,-1.5));
#1046=CARTESIAN_POINT('',(1.4,3.3,-1.5));
#1047=CARTESIAN_POINT('',(1.4,3.3,-0.7));
#1048=CARTESIAN_POINT('',(-0.4,3.3,-0.7));
#1049=CARTESIAN_POINT('',(1.4,0.8,-0.7));
#1050=CARTESIAN_POINT('',(0.4,0.8,-0.7));
#1051=CARTESIAN_POINT('',(0.4,3.3,-0.7));
#1052=CARTESIAN_POINT('',(0.4,3.3,-0.7));
#1053=CARTESIAN_POINT('',(0.4,0.8,-0.7));
#1054=CARTESIAN_POINT('',(0.4,0.8,0.3));
#1055=CARTESIAN_POINT('',(0.4,3.3,0.3));
#1056=CARTESIAN_POINT('',(0.4,3.3,0.3));
#1057=CARTESIAN_POINT('',(0.4,0.8,0.3));
#1058=CARTESIAN_POINT('',(-0.4,0.8,0.3));
#1059=CARTESIAN_POINT('',(-0.4,3.3,0.3));
#1060=CARTESIAN_POINT('',(-0.4,3.3,0.3));
#1061=CARTESIAN_POINT('',(-0.4,0.8,0.3));
#1062=CARTESIAN_POINT('',(-0.4,0.8,-0.7));
#1063=CARTESIAN_POINT('',(-0.4,3.3,-0.7));
#1064=CARTESIAN_POINT('',(-0.4,3.3,-0.7));
#1065=CARTESIAN_POINT('',(-0.4,0.8,-0.7));
#1066=CARTESIAN_POINT('',(-1.4,0.8,-0.7));
#1067=CARTESIAN_POINT('',(-1.4,3.3,-0.7));
#1068=CARTESIAN_POINT('',(-1.4,3.3,-0.7));
#1069=CARTESIAN_POINT('',(-1.4,0.8,-0.7));
#1070=CARTESIAN_POINT('',(-1.4,0.8,-1.5));
#1071=CARTESIAN_POINT('',(-1.4,3.3,-1.5));
#1072=CARTESIAN_POINT('',(-1.4,3.3,-1.5));
#1073=CARTESIAN_POINT('',(-1.4,0.8,-1.5));
#1074=CARTESIAN_POINT('',(-0.4,0.8,-1.5));
#1075=CARTESIAN_POINT('',(-0.4,3.3,-1.5));
#1076=CARTESIAN_POINT('',(-0.4,3.3,0.3));
#1077=CARTESIAN_POINT('',(-0.4,0.8,-1.5));
#1078=CARTESIAN_POINT('',(-0.4,0.8,-2.5));
#1079=CARTESIAN_POINT('',(-0.4,3.3,-2.5));
#1080=CARTESIAN_POINT('',(0.4,3.3,-0.7));
#1081=CARTESIAN_POINT('',(0.4,0.8,-2.5));
#1082=CARTESIAN_POINT('',(0.4,0.8,-1.5));
#1083=CARTESIAN_POINT('',(0.4,0.8,-2.5));
#1084=CARTESIAN_POINT('',(0.4,3.3,-2.5));
#1085=CARTESIAN_POINT('',(0.4,3.3,-1.5));
#1086=CARTESIAN_POINT('',(-1.4,3.3,-1.5));
#1087=CARTESIAN_POINT('',(0.4,0.8,-1.5));
#1088=CARTESIAN_POINT('',(1.,0.8,1.7));
#1089=CARTESIAN_POINT('',(1.,0.8,1.7));
#1090=CARTESIAN_POINT('',(1.,0.8,1.5));
#1091=CARTESIAN_POINT('',(1.,-0.2,1.7));
#1092=CARTESIAN_POINT('',(1.,-0.2,1.5));
#1093=CARTESIAN_POINT('',(-1.,0.8,1.7));
#1094=CARTESIAN_POINT('',(-1.,0.8,1.7));
#1095=CARTESIAN_POINT('',(-1.,0.8,1.9));
#1096=CARTESIAN_POINT('',(-1.,-0.2,1.7));
#1097=CARTESIAN_POINT('',(-1.,-0.2,1.9));
#1098=CARTESIAN_POINT('',(-2.,0.8,2.5));
#1099=CARTESIAN_POINT('',(-2.,0.8,2.5));
#1100=CARTESIAN_POINT('',(-2.,0.8,2.5));
#1101=CARTESIAN_POINT('',(-2.,-0.2,2.5));
#1102=CARTESIAN_POINT('',(-2.,-0.2,2.5));
#1103=CARTESIAN_POINT('',(2.,-0.2,2.5));
#1104=CARTESIAN_POINT('',(2.,0.8,2.5));
#1105=CARTESIAN_POINT('',(2.,0.8,2.5));
#1106=CARTESIAN_POINT('',(-2.,0.8,2.5));
#1107=CARTESIAN_POINT('',(-2.,0.8,2.5));
#1108=CARTESIAN_POINT('',(-2.,0.8,-2.5));
#1109=CARTESIAN_POINT('',(-2.,0.8,-2.5));
#1110=CARTESIAN_POINT('',(-2.,0.,-2.5));
#1111=CARTESIAN_POINT('',(-2.,-0.2,-2.5));
#1112=CARTESIAN_POINT('',(-2.,-0.2,-2.5));
#1113=CARTESIAN_POINT('',(-2.,-0.2,2.5));
#1114=CARTESIAN_POINT('',(-2.,0.8,2.5));
#1115=CARTESIAN_POINT('',(-2.,0.8,-2.5));
#1116=CARTESIAN_POINT('',(2.,0.8,-2.5));
#1117=CARTESIAN_POINT('',(2.,0.8,-2.5));
#1118=CARTESIAN_POINT('',(2.,-0.2,-2.5));
#1119=CARTESIAN_POINT('',(-2.,-0.2,-2.5));
#1120=CARTESIAN_POINT('',(-2.,0.8,-2.5));
#1121=CARTESIAN_POINT('',(-2.,0.8,-2.5));
#1122=CARTESIAN_POINT('',(2.,0.8,2.5));
#1123=CARTESIAN_POINT('',(2.,-0.2,2.5));
#1124=CARTESIAN_POINT('',(2.,0.8,2.5));
#1125=CARTESIAN_POINT('',(0.,0.8,0.));
#1126=CARTESIAN_POINT('',(0.,-0.2,0.));
#1127=CARTESIAN_POINT('',(-5.76499384786501,3.37652439598175,14.608228846384));
#1128=CARTESIAN_POINT('',(0.,0.,0.));
#1129=CARTESIAN_POINT('',(0.,0.,0.));
#1130=CARTESIAN_POINT('',(0.,0.,0.25));
#1131=CARTESIAN_POINT('',(0.,4.,0.));
#1132=CARTESIAN_POINT('',(0.,4.,0.));
#1133=CARTESIAN_POINT('',(0.,4.,0.25));
#1134=CARTESIAN_POINT('',(0.,4.,0.));
#1135=CARTESIAN_POINT('',(1.76013690145752,2.54588482775292,10.5128112714236));
#1136=CARTESIAN_POINT('',(-8.3,0.,0.5));
#1137=CARTESIAN_POINT('',(-7.,0.,0.5));
#1138=CARTESIAN_POINT('',(-7.,0.,0.25));
#1139=CARTESIAN_POINT('',(7.,0.,0.5));
#1140=CARTESIAN_POINT('',(7.,0.,0.25));
#1141=CARTESIAN_POINT('',(1.,1.5,1.));
#1142=CARTESIAN_POINT('',(1.,1.5,0.));
#1143=CARTESIAN_POINT('',(0.8,1.5,0.));
#1144=CARTESIAN_POINT('',(1.,1.5,1.));
#1145=CARTESIAN_POINT('',(0.8,1.5,1.));
#1146=CARTESIAN_POINT('',(-1.,1.5,1.));
#1147=CARTESIAN_POINT('',(-1.,1.5,0.));
#1148=CARTESIAN_POINT('',(-0.8,1.5,0.));
#1149=CARTESIAN_POINT('',(-1.,1.5,1.));
#1150=CARTESIAN_POINT('',(-0.8,1.5,1.));
#1151=CARTESIAN_POINT('',(-7.,-2.5,1.));
#1152=CARTESIAN_POINT('',(-7.,-2.5,0.));
#1153=CARTESIAN_POINT('',(-7.,2.5,0.));
#1154=CARTESIAN_POINT('',(-7.,-2.5,0.));
#1155=CARTESIAN_POINT('',(-7.,-4.5,0.));
#1156=CARTESIAN_POINT('',(-7.,-4.5,0.));
#1157=CARTESIAN_POINT('',(-7.,-4.5,1.));
#1158=CARTESIAN_POINT('',(-7.,-4.5,1.));
#1159=CARTESIAN_POINT('',(-7.,-4.5,1.));
#1160=CARTESIAN_POINT('',(-7.,-2.5,1.));
#1161=CARTESIAN_POINT('',(-7.,-2.5,1.));
#1162=CARTESIAN_POINT('',(-7.,2.5,1.));
#1163=CARTESIAN_POINT('',(-7.,4.5,1.));
#1164=CARTESIAN_POINT('',(-7.,4.5,1.));
#1165=CARTESIAN_POINT('',(-7.,4.5,1.));
#1166=CARTESIAN_POINT('',(-7.,4.5,0.));
#1167=CARTESIAN_POINT('',(-7.,4.5,0.));
#1168=CARTESIAN_POINT('',(7.,-2.5,1.));
#1169=CARTESIAN_POINT('',(7.,-2.5,0.));
#1170=CARTESIAN_POINT('',(7.,-2.5,0.));
#1171=CARTESIAN_POINT('',(7.,2.5,0.));
#1172=CARTESIAN_POINT('',(7.,4.5,0.));
#1173=CARTESIAN_POINT('',(7.,4.5,0.));
#1174=CARTESIAN_POINT('',(7.,4.5,1.));
#1175=CARTESIAN_POINT('',(7.,4.5,1.));
#1176=CARTESIAN_POINT('',(7.,4.5,1.));
#1177=CARTESIAN_POINT('',(7.,2.5,1.));
#1178=CARTESIAN_POINT('',(7.,-2.5,1.));
#1179=CARTESIAN_POINT('',(7.,-2.5,1.));
#1180=CARTESIAN_POINT('',(7.,-4.5,1.));
#1181=CARTESIAN_POINT('',(7.,-4.5,1.));
#1182=CARTESIAN_POINT('',(7.,-4.5,1.));
#1183=CARTESIAN_POINT('',(7.,-4.5,0.));
#1184=CARTESIAN_POINT('',(7.,-4.5,0.));
#1185=CARTESIAN_POINT('',(0.,0.,0.));
#1186=CARTESIAN_POINT('',(6.5,-4.,0.));
#1187=CARTESIAN_POINT('',(6.765,-4.,0.));
#1188=CARTESIAN_POINT('',(-6.5,-4.,0.));
#1189=CARTESIAN_POINT('',(-6.25,-4.,0.));
#1190=CARTESIAN_POINT('',(-6.5,4.,0.));
#1191=CARTESIAN_POINT('',(-6.25,4.,0.));
#1192=CARTESIAN_POINT('',(6.5,4.,0.));
#1193=CARTESIAN_POINT('',(6.75,4.,0.));
#1194=CARTESIAN_POINT('',(-7.,-4.5,0.));
#1195=CARTESIAN_POINT('',(-7.,4.5,0.));
#1196=CARTESIAN_POINT('',(0.,0.,1.));
#1197=CARTESIAN_POINT('',(6.5,-4.,1.));
#1198=CARTESIAN_POINT('',(6.235,-4.,1.));
#1199=CARTESIAN_POINT('',(-6.5,-4.,1.));
#1200=CARTESIAN_POINT('',(-6.75,-4.,1.));
#1201=CARTESIAN_POINT('',(-6.5,4.,1.));
#1202=CARTESIAN_POINT('',(-6.75,4.,1.));
#1203=CARTESIAN_POINT('',(6.5,4.,1.));
#1204=CARTESIAN_POINT('',(6.25,4.,1.));
#1205=CARTESIAN_POINT('',(-7.,4.5,1.));
#1206=CARTESIAN_POINT('',(-7.,-4.5,1.));
#1207=CARTESIAN_POINT('',(-7.,-4.5,1.));
#1208=CARTESIAN_POINT('',(-7.,4.5,1.));
#1209=CARTESIAN_POINT('',(6.5,4.,0.));
#1210=CARTESIAN_POINT('',(-6.5,4.,0.));
#1211=CARTESIAN_POINT('',(-6.5,-4.,0.));
#1212=CARTESIAN_POINT('',(6.5,-4.,0.));
#1213=CARTESIAN_POINT('',(-1.72551538001107,-1.05216108527964,10.9056137413792));
#1214=CARTESIAN_POINT('',(0.,0.,0.));
#1215=MECHANICAL_DESIGN_GEOMETRIC_PRESENTATION_REPRESENTATION('',(#729,
#730,#731),#1216);
#1216=(
GEOMETRIC_REPRESENTATION_CONTEXT(3)
GLOBAL_UNCERTAINTY_ASSIGNED_CONTEXT((#1221))
GLOBAL_UNIT_ASSIGNED_CONTEXT((#1228,#1227,#1226))
REPRESENTATION_CONTEXT('dual-axis-solar-panel-tracker-OKOK',
'TOP_LEVEL_ASSEMBLY_PART')
);
#1217=(
GEOMETRIC_REPRESENTATION_CONTEXT(3)
GLOBAL_UNCERTAINTY_ASSIGNED_CONTEXT((#1222))
GLOBAL_UNIT_ASSIGNED_CONTEXT((#1228,#1227,#1226))
REPRESENTATION_CONTEXT('Elevator <1>','COMPONENT_PART')
);
#1218=(
GEOMETRIC_REPRESENTATION_CONTEXT(3)
GLOBAL_UNCERTAINTY_ASSIGNED_CONTEXT((#1223))
GLOBAL_UNIT_ASSIGNED_CONTEXT((#1228,#1227,#1226))
REPRESENTATION_CONTEXT('LDR_sensor_base','COMPONENT_PART')
);
#1219=(
GEOMETRIC_REPRESENTATION_CONTEXT(3)
GLOBAL_UNCERTAINTY_ASSIGNED_CONTEXT((#1224))
GLOBAL_UNIT_ASSIGNED_CONTEXT((#1228,#1227,#1226))
REPRESENTATION_CONTEXT('hing_rod','COMPONENT_PART')
);
#1220=(
GEOMETRIC_REPRESENTATION_CONTEXT(3)
GLOBAL_UNCERTAINTY_ASSIGNED_CONTEXT((#1225))
GLOBAL_UNIT_ASSIGNED_CONTEXT((#1228,#1227,#1226))
REPRESENTATION_CONTEXT('panel_base','COMPONENT_PART')
);
#1221=UNCERTAINTY_MEASURE_WITH_UNIT(LENGTH_MEASURE(1.E-6),#1228,
'DISTANCE_ACCURACY_VALUE','Maximum Tolerance applied to model');
#1222=UNCERTAINTY_MEASURE_WITH_UNIT(LENGTH_MEASURE(1.E-6),#1228,
'DISTANCE_ACCURACY_VALUE','Maximum Tolerance applied to model');
#1223=UNCERTAINTY_MEASURE_WITH_UNIT(LENGTH_MEASURE(1.E-6),#1228,
'DISTANCE_ACCURACY_VALUE','Maximum Tolerance applied to model');
#1224=UNCERTAINTY_MEASURE_WITH_UNIT(LENGTH_MEASURE(1.E-6),#1228,
'DISTANCE_ACCURACY_VALUE','Maximum Tolerance applied to model');
#1225=UNCERTAINTY_MEASURE_WITH_UNIT(LENGTH_MEASURE(1.E-6),#1228,
'DISTANCE_ACCURACY_VALUE','Maximum Tolerance applied to model');
#1226=(
NAMED_UNIT(*)
SI_UNIT($,.STERADIAN.)
SOLID_ANGLE_UNIT()
);
#1227=(
NAMED_UNIT(*)
PLANE_ANGLE_UNIT()
SI_UNIT($,.RADIAN.)
);
#1228=(
LENGTH_UNIT()
NAMED_UNIT(*)
SI_UNIT(.CENTI.,.METRE.)
);
#1229=PRODUCT_DEFINITION_SHAPE('','',#1238);
#1230=PRODUCT_DEFINITION_SHAPE('','',#1239);
#1231=PRODUCT_DEFINITION_SHAPE('','',#1240);
#1232=PRODUCT_DEFINITION_SHAPE(' ','NAUO PRDDFN',#14);
#1233=PRODUCT_DEFINITION_SHAPE('','',#1241);
#1234=PRODUCT_DEFINITION_SHAPE(' ','NAUO PRDDFN',#15);
#1235=PRODUCT_DEFINITION_SHAPE('','',#1242);
#1236=PRODUCT_DEFINITION_SHAPE(' ','NAUO PRDDFN',#16);
#1237=PRODUCT_DEFINITION_SHAPE(' ','NAUO PRDDFN',#17);
#1238=PRODUCT_DEFINITION('','',#1248,#1243);
#1239=PRODUCT_DEFINITION('','',#1249,#1244);
#1240=PRODUCT_DEFINITION('','',#1250,#1245);
#1241=PRODUCT_DEFINITION('','',#1251,#1246);
#1242=PRODUCT_DEFINITION('','',#1252,#1247);
#1243=PRODUCT_DEFINITION_CONTEXT('',#1274,'design');
#1244=PRODUCT_DEFINITION_CONTEXT('',#1274,'design');
#1245=PRODUCT_DEFINITION_CONTEXT('',#1274,'design');
#1246=PRODUCT_DEFINITION_CONTEXT('',#1274,'design');
#1247=PRODUCT_DEFINITION_CONTEXT('',#1274,'design');
#1248=PRODUCT_DEFINITION_FORMATION_WITH_SPECIFIED_SOURCE('','',#1258,
 .NOT_KNOWN.);
#1249=PRODUCT_DEFINITION_FORMATION_WITH_SPECIFIED_SOURCE('','',#1259,
 .NOT_KNOWN.);
#1250=PRODUCT_DEFINITION_FORMATION_WITH_SPECIFIED_SOURCE('','',#1260,
 .NOT_KNOWN.);
#1251=PRODUCT_DEFINITION_FORMATION_WITH_SPECIFIED_SOURCE('','',#1261,
 .NOT_KNOWN.);
#1252=PRODUCT_DEFINITION_FORMATION_WITH_SPECIFIED_SOURCE('','',#1262,
 .NOT_KNOWN.);
#1253=PRODUCT_RELATED_PRODUCT_CATEGORY('','',(#1258));
#1254=PRODUCT_RELATED_PRODUCT_CATEGORY('','',(#1259));
#1255=PRODUCT_RELATED_PRODUCT_CATEGORY('','',(#1260));
#1256=PRODUCT_RELATED_PRODUCT_CATEGORY('','',(#1261));
#1257=PRODUCT_RELATED_PRODUCT_CATEGORY('','',(#1262));
#1258=PRODUCT('dual-axis-solar-panel-tracker-OKOK',
'dual-axis-solar-panel-tracker-OKOK',
'dual-axis-solar-panel-tracker-OKOK',(#1268));
#1259=PRODUCT('Elevator <1>','Elevator <1>','Elevator <1>',(#1269));
#1260=PRODUCT('LDR_sensor_base','LDR_sensor_base','LDR_sensor_base',(#1270));
#1261=PRODUCT('hing_rod','hing_rod','hing_rod',(#1271));
#1262=PRODUCT('panel_base','panel_base','panel_base',(#1272));
#1263=PRODUCT_CATEGORY('','');
#1264=PRODUCT_CATEGORY('','');
#1265=PRODUCT_CATEGORY('','');
#1266=PRODUCT_CATEGORY('','');
#1267=PRODUCT_CATEGORY('','');
#1268=PRODUCT_CONTEXT('',#1274,'mechanical');
#1269=PRODUCT_CONTEXT('',#1274,'mechanical');
#1270=PRODUCT_CONTEXT('',#1274,'mechanical');
#1271=PRODUCT_CONTEXT('',#1274,'mechanical');
#1272=PRODUCT_CONTEXT('',#1274,'mechanical');
#1273=APPLICATION_PROTOCOL_DEFINITION('international standard',
'ap242_managed_model_based_3d_engineering',2020,#1274);
#1274=APPLICATION_CONTEXT('managed model based 3d engineering');
ENDSEC;
END-ISO-10303-21;
