ISO-10303-21;
HEADER;
/* Generated by software containing ST-Developer
 * from STEP Tools, Inc. (www.steptools.com) 
 */
/* OPTION: using custom renumber hook */

FILE_DESCRIPTION(
/* description */ ('STEP AP242 Edition 2',
'CAx-IF Rec.Pracs.---Representation and Presentation of Product Manufa
cturing Information (PMI)---4.0---2014-10-13',
'CAx-IF Rec.Pracs.---3D Tessellated Geometry---0.4---2014-09-14','2;1',
'CAx-IF Rec.Pracs.---User Defined Attributes---1.5---2016-08-15'),
/* implementation_level */ '2;1');

FILE_NAME(
/* name */ '69c6fdc20503c9e7db6db576',
/* time_stamp */ '2026-03-27T21:59:30Z',
/* author */ (''),
/* organization */ (''),
/* preprocessor_version */ 'ST-DEVELOPER v20',
/* originating_system */ 'ONSHAPE BY PTC INC, 1.212',
/* authorisation */ '  ');

FILE_SCHEMA (('AP242_MANAGED_MODEL_BASED_3D_ENGINEERING_MIM_LF { 1 0 10303 442 3 1 4 }'));
ENDSEC;

DATA;
#10=CONTEXT_DEPENDENT_SHAPE_REPRESENTATION(#18,#1015);
#11=CONTEXT_DEPENDENT_SHAPE_REPRESENTATION(#19,#1017);
#12=CONTEXT_DEPENDENT_SHAPE_REPRESENTATION(#20,#1019);
#13=CONTEXT_DEPENDENT_SHAPE_REPRESENTATION(#21,#1020);
#14=NEXT_ASSEMBLY_USAGE_OCCURRENCE('NAUO1','panel_base','panel_base',#1022,
#1023,'');
#15=NEXT_ASSEMBLY_USAGE_OCCURRENCE('NAUO2','hing_rod','hing_rod',#1022,
#1024,'');
#16=NEXT_ASSEMBLY_USAGE_OCCURRENCE('NAUO3','LDR_sensor_base',
'LDR_sensor_base',#1022,#1025,'');
#17=NEXT_ASSEMBLY_USAGE_OCCURRENCE('NAUO4','Elevator <1>',
'Elevator <1>',#1021,#1022,'');
#18=(
REPRESENTATION_RELATIONSHIP(' ',' ',#627,#626)
REPRESENTATION_RELATIONSHIP_WITH_TRANSFORMATION(#22)
SHAPE_REPRESENTATION_RELATIONSHIP()
);
#19=(
REPRESENTATION_RELATIONSHIP(' ',' ',#628,#626)
REPRESENTATION_RELATIONSHIP_WITH_TRANSFORMATION(#23)
SHAPE_REPRESENTATION_RELATIONSHIP()
);
#20=(
REPRESENTATION_RELATIONSHIP(' ',' ',#629,#626)
REPRESENTATION_RELATIONSHIP_WITH_TRANSFORMATION(#24)
SHAPE_REPRESENTATION_RELATIONSHIP()
);
#21=(
REPRESENTATION_RELATIONSHIP(' ',' ',#626,#625)
REPRESENTATION_RELATIONSHIP_WITH_TRANSFORMATION(#25)
SHAPE_REPRESENTATION_RELATIONSHIP()
);
#22=ITEM_DEFINED_TRANSFORMATION(' ',' ',#630,#646);
#23=ITEM_DEFINED_TRANSFORMATION(' ',' ',#630,#652);
#24=ITEM_DEFINED_TRANSFORMATION(' ',' ',#630,#677);
#25=ITEM_DEFINED_TRANSFORMATION(' ',' ',#630,#678);
#26=SHAPE_REPRESENTATION_RELATIONSHIP('','',#627,#29);
#27=SHAPE_REPRESENTATION_RELATIONSHIP('','',#628,#30);
#28=SHAPE_REPRESENTATION_RELATIONSHIP('','',#629,#31);
#29=ADVANCED_BREP_SHAPE_REPRESENTATION('',(#617),#1001);
#30=ADVANCED_BREP_SHAPE_REPRESENTATION('',(#618),#1002);
#31=ADVANCED_BREP_SHAPE_REPRESENTATION('',(#619),#1003);
#32=LINE('',#854,#92);
#33=LINE('',#857,#93);
#34=LINE('',#859,#94);
#35=LINE('',#861,#95);
#36=LINE('',#863,#96);
#37=LINE('',#865,#97);
#38=LINE('',#867,#98);
#39=LINE('',#869,#99);
#40=LINE('',#871,#100);
#41=LINE('',#873,#101);
#42=LINE('',#875,#102);
#43=LINE('',#876,#103);
#44=LINE('',#889,#104);
#45=LINE('',#892,#105);
#46=LINE('',#894,#106);
#47=LINE('',#896,#107);
#48=LINE('',#898,#108);
#49=LINE('',#900,#109);
#50=LINE('',#902,#110);
#51=LINE('',#904,#111);
#52=LINE('',#906,#112);
#53=LINE('',#908,#113);
#54=LINE('',#910,#114);
#55=LINE('',#912,#115);
#56=LINE('',#914,#116);
#57=LINE('',#917,#117);
#58=LINE('',#918,#118);
#59=LINE('',#920,#119);
#60=LINE('',#922,#120);
#61=LINE('',#924,#121);
#62=LINE('',#926,#122);
#63=LINE('',#928,#123);
#64=LINE('',#930,#124);
#65=LINE('',#932,#125);
#66=LINE('',#934,#126);
#67=LINE('',#936,#127);
#68=LINE('',#938,#128);
#69=LINE('',#940,#129);
#70=LINE('',#942,#130);
#71=LINE('',#944,#131);
#72=LINE('',#946,#132);
#73=LINE('',#948,#133);
#74=LINE('',#950,#134);
#75=LINE('',#952,#135);
#76=LINE('',#955,#136);
#77=LINE('',#956,#137);
#78=LINE('',#958,#138);
#79=LINE('',#970,#139);
#80=LINE('',#973,#140);
#81=LINE('',#975,#141);
#82=LINE('',#977,#142);
#83=LINE('',#979,#143);
#84=LINE('',#981,#144);
#85=LINE('',#983,#145);
#86=LINE('',#985,#146);
#87=LINE('',#987,#147);
#88=LINE('',#988,#148);
#89=LINE('',#990,#149);
#90=LINE('',#992,#150);
#91=LINE('',#993,#151);
#92=VECTOR('',#701,100.);
#93=VECTOR('',#702,100.);
#94=VECTOR('',#703,100.);
#95=VECTOR('',#704,100.);
#96=VECTOR('',#707,100.);
#97=VECTOR('',#708,100.);
#98=VECTOR('',#709,100.);
#99=VECTOR('',#712,100.);
#100=VECTOR('',#713,100.);
#101=VECTOR('',#714,100.);
#102=VECTOR('',#717,100.);
#103=VECTOR('',#718,100.);
#104=VECTOR('',#739,100.);
#105=VECTOR('',#740,100.);
#106=VECTOR('',#741,100.);
#107=VECTOR('',#742,100.);
#108=VECTOR('',#743,100.);
#109=VECTOR('',#744,100.);
#110=VECTOR('',#745,100.);
#111=VECTOR('',#746,100.);
#112=VECTOR('',#747,100.);
#113=VECTOR('',#748,100.);
#114=VECTOR('',#749,100.);
#115=VECTOR('',#750,100.);
#116=VECTOR('',#753,100.);
#117=VECTOR('',#754,100.);
#118=VECTOR('',#755,100.);
#119=VECTOR('',#758,100.);
#120=VECTOR('',#759,100.);
#121=VECTOR('',#762,100.);
#122=VECTOR('',#763,100.);
#123=VECTOR('',#766,100.);
#124=VECTOR('',#767,100.);
#125=VECTOR('',#770,100.);
#126=VECTOR('',#771,100.);
#127=VECTOR('',#774,100.);
#128=VECTOR('',#775,100.);
#129=VECTOR('',#778,100.);
#130=VECTOR('',#779,100.);
#131=VECTOR('',#782,100.);
#132=VECTOR('',#783,100.);
#133=VECTOR('',#786,100.);
#134=VECTOR('',#787,100.);
#135=VECTOR('',#790,100.);
#136=VECTOR('',#791,100.);
#137=VECTOR('',#792,100.);
#138=VECTOR('',#795,100.);
#139=VECTOR('',#810,100.);
#140=VECTOR('',#811,100.);
#141=VECTOR('',#812,100.);
#142=VECTOR('',#813,100.);
#143=VECTOR('',#816,100.);
#144=VECTOR('',#817,100.);
#145=VECTOR('',#818,100.);
#146=VECTOR('',#821,100.);
#147=VECTOR('',#822,100.);
#148=VECTOR('',#823,100.);
#149=VECTOR('',#824,100.);
#150=VECTOR('',#827,100.);
#151=VECTOR('',#828,100.);
#152=PLANE('',#640);
#153=PLANE('',#641);
#154=PLANE('',#642);
#155=PLANE('',#643);
#156=PLANE('',#644);
#157=PLANE('',#645);
#158=PLANE('',#647);
#159=PLANE('',#649);
#160=PLANE('',#653);
#161=PLANE('',#654);
#162=PLANE('',#655);
#163=PLANE('',#656);
#164=PLANE('',#657);
#165=PLANE('',#658);
#166=PLANE('',#659);
#167=PLANE('',#660);
#168=PLANE('',#661);
#169=PLANE('',#662);
#170=PLANE('',#663);
#171=PLANE('',#664);
#172=PLANE('',#671);
#173=PLANE('',#672);
#174=PLANE('',#673);
#175=PLANE('',#674);
#176=PLANE('',#675);
#177=PLANE('',#676);
#178=ORIENTED_EDGE('',*,*,#322,.F.);
#179=ORIENTED_EDGE('',*,*,#323,.T.);
#180=ORIENTED_EDGE('',*,*,#324,.F.);
#181=ORIENTED_EDGE('',*,*,#325,.T.);
#182=ORIENTED_EDGE('',*,*,#326,.F.);
#183=ORIENTED_EDGE('',*,*,#327,.T.);
#184=ORIENTED_EDGE('',*,*,#328,.T.);
#185=ORIENTED_EDGE('',*,*,#329,.F.);
#186=ORIENTED_EDGE('',*,*,#330,.F.);
#187=ORIENTED_EDGE('',*,*,#331,.T.);
#188=ORIENTED_EDGE('',*,*,#332,.T.);
#189=ORIENTED_EDGE('',*,*,#331,.F.);
#190=ORIENTED_EDGE('',*,*,#333,.F.);
#191=ORIENTED_EDGE('',*,*,#334,.T.);
#192=ORIENTED_EDGE('',*,*,#322,.T.);
#193=ORIENTED_EDGE('',*,*,#335,.T.);
#194=ORIENTED_EDGE('',*,*,#334,.F.);
#195=ORIENTED_EDGE('',*,*,#336,.F.);
#196=ORIENTED_EDGE('',*,*,#337,.T.);
#197=ORIENTED_EDGE('',*,*,#338,.T.);
#198=ORIENTED_EDGE('',*,*,#337,.F.);
#199=ORIENTED_EDGE('',*,*,#339,.F.);
#200=ORIENTED_EDGE('',*,*,#329,.T.);
#201=ORIENTED_EDGE('',*,*,#323,.F.);
#202=ORIENTED_EDGE('',*,*,#324,.T.);
#203=ORIENTED_EDGE('',*,*,#338,.F.);
#204=ORIENTED_EDGE('',*,*,#328,.F.);
#205=ORIENTED_EDGE('',*,*,#332,.F.);
#206=ORIENTED_EDGE('',*,*,#335,.F.);
#207=ORIENTED_EDGE('',*,*,#326,.T.);
#208=ORIENTED_EDGE('',*,*,#325,.F.);
#209=ORIENTED_EDGE('',*,*,#327,.F.);
#210=ORIENTED_EDGE('',*,*,#339,.T.);
#211=ORIENTED_EDGE('',*,*,#336,.T.);
#212=ORIENTED_EDGE('',*,*,#333,.T.);
#213=ORIENTED_EDGE('',*,*,#330,.T.);
#214=ORIENTED_EDGE('',*,*,#340,.F.);
#215=ORIENTED_EDGE('',*,*,#341,.T.);
#216=ORIENTED_EDGE('',*,*,#340,.T.);
#217=ORIENTED_EDGE('',*,*,#341,.F.);
#218=ORIENTED_EDGE('',*,*,#342,.T.);
#219=ORIENTED_EDGE('',*,*,#343,.T.);
#220=ORIENTED_EDGE('',*,*,#344,.T.);
#221=ORIENTED_EDGE('',*,*,#345,.T.);
#222=ORIENTED_EDGE('',*,*,#346,.T.);
#223=ORIENTED_EDGE('',*,*,#347,.T.);
#224=ORIENTED_EDGE('',*,*,#348,.T.);
#225=ORIENTED_EDGE('',*,*,#349,.T.);
#226=ORIENTED_EDGE('',*,*,#350,.T.);
#227=ORIENTED_EDGE('',*,*,#351,.T.);
#228=ORIENTED_EDGE('',*,*,#352,.T.);
#229=ORIENTED_EDGE('',*,*,#353,.T.);
#230=ORIENTED_EDGE('',*,*,#354,.T.);
#231=ORIENTED_EDGE('',*,*,#355,.F.);
#232=ORIENTED_EDGE('',*,*,#353,.F.);
#233=ORIENTED_EDGE('',*,*,#356,.T.);
#234=ORIENTED_EDGE('',*,*,#357,.T.);
#235=ORIENTED_EDGE('',*,*,#356,.F.);
#236=ORIENTED_EDGE('',*,*,#352,.F.);
#237=ORIENTED_EDGE('',*,*,#358,.T.);
#238=ORIENTED_EDGE('',*,*,#359,.T.);
#239=ORIENTED_EDGE('',*,*,#358,.F.);
#240=ORIENTED_EDGE('',*,*,#351,.F.);
#241=ORIENTED_EDGE('',*,*,#360,.T.);
#242=ORIENTED_EDGE('',*,*,#361,.T.);
#243=ORIENTED_EDGE('',*,*,#360,.F.);
#244=ORIENTED_EDGE('',*,*,#350,.F.);
#245=ORIENTED_EDGE('',*,*,#362,.T.);
#246=ORIENTED_EDGE('',*,*,#363,.T.);
#247=ORIENTED_EDGE('',*,*,#362,.F.);
#248=ORIENTED_EDGE('',*,*,#349,.F.);
#249=ORIENTED_EDGE('',*,*,#364,.T.);
#250=ORIENTED_EDGE('',*,*,#365,.T.);
#251=ORIENTED_EDGE('',*,*,#364,.F.);
#252=ORIENTED_EDGE('',*,*,#348,.F.);
#253=ORIENTED_EDGE('',*,*,#366,.T.);
#254=ORIENTED_EDGE('',*,*,#367,.T.);
#255=ORIENTED_EDGE('',*,*,#366,.F.);
#256=ORIENTED_EDGE('',*,*,#347,.F.);
#257=ORIENTED_EDGE('',*,*,#368,.T.);
#258=ORIENTED_EDGE('',*,*,#369,.T.);
#259=ORIENTED_EDGE('',*,*,#368,.F.);
#260=ORIENTED_EDGE('',*,*,#346,.F.);
#261=ORIENTED_EDGE('',*,*,#370,.T.);
#262=ORIENTED_EDGE('',*,*,#371,.T.);
#263=ORIENTED_EDGE('',*,*,#370,.F.);
#264=ORIENTED_EDGE('',*,*,#345,.F.);
#265=ORIENTED_EDGE('',*,*,#372,.T.);
#266=ORIENTED_EDGE('',*,*,#373,.T.);
#267=ORIENTED_EDGE('',*,*,#374,.F.);
#268=ORIENTED_EDGE('',*,*,#343,.F.);
#269=ORIENTED_EDGE('',*,*,#375,.T.);
#270=ORIENTED_EDGE('',*,*,#376,.T.);
#271=ORIENTED_EDGE('',*,*,#375,.F.);
#272=ORIENTED_EDGE('',*,*,#342,.F.);
#273=ORIENTED_EDGE('',*,*,#355,.T.);
#274=ORIENTED_EDGE('',*,*,#377,.F.);
#275=ORIENTED_EDGE('',*,*,#378,.T.);
#276=ORIENTED_EDGE('',*,*,#379,.F.);
#277=ORIENTED_EDGE('',*,*,#380,.T.);
#278=ORIENTED_EDGE('',*,*,#381,.T.);
#279=ORIENTED_EDGE('',*,*,#382,.F.);
#280=ORIENTED_EDGE('',*,*,#383,.F.);
#281=ORIENTED_EDGE('',*,*,#384,.T.);
#282=ORIENTED_EDGE('',*,*,#385,.T.);
#283=ORIENTED_EDGE('',*,*,#384,.F.);
#284=ORIENTED_EDGE('',*,*,#386,.F.);
#285=ORIENTED_EDGE('',*,*,#387,.T.);
#286=ORIENTED_EDGE('',*,*,#388,.T.);
#287=ORIENTED_EDGE('',*,*,#387,.F.);
#288=ORIENTED_EDGE('',*,*,#389,.F.);
#289=ORIENTED_EDGE('',*,*,#372,.F.);
#290=ORIENTED_EDGE('',*,*,#344,.F.);
#291=ORIENTED_EDGE('',*,*,#374,.T.);
#292=ORIENTED_EDGE('',*,*,#390,.F.);
#293=ORIENTED_EDGE('',*,*,#391,.T.);
#294=ORIENTED_EDGE('',*,*,#392,.T.);
#295=ORIENTED_EDGE('',*,*,#391,.F.);
#296=ORIENTED_EDGE('',*,*,#393,.F.);
#297=ORIENTED_EDGE('',*,*,#382,.T.);
#298=ORIENTED_EDGE('',*,*,#377,.T.);
#299=ORIENTED_EDGE('',*,*,#392,.F.);
#300=ORIENTED_EDGE('',*,*,#381,.F.);
#301=ORIENTED_EDGE('',*,*,#385,.F.);
#302=ORIENTED_EDGE('',*,*,#388,.F.);
#303=ORIENTED_EDGE('',*,*,#379,.T.);
#304=ORIENTED_EDGE('',*,*,#371,.F.);
#305=ORIENTED_EDGE('',*,*,#389,.T.);
#306=ORIENTED_EDGE('',*,*,#386,.T.);
#307=ORIENTED_EDGE('',*,*,#383,.T.);
#308=ORIENTED_EDGE('',*,*,#393,.T.);
#309=ORIENTED_EDGE('',*,*,#390,.T.);
#310=ORIENTED_EDGE('',*,*,#373,.F.);
#311=ORIENTED_EDGE('',*,*,#376,.F.);
#312=ORIENTED_EDGE('',*,*,#354,.F.);
#313=ORIENTED_EDGE('',*,*,#357,.F.);
#314=ORIENTED_EDGE('',*,*,#359,.F.);
#315=ORIENTED_EDGE('',*,*,#361,.F.);
#316=ORIENTED_EDGE('',*,*,#363,.F.);
#317=ORIENTED_EDGE('',*,*,#365,.F.);
#318=ORIENTED_EDGE('',*,*,#367,.F.);
#319=ORIENTED_EDGE('',*,*,#369,.F.);
#320=ORIENTED_EDGE('',*,*,#380,.F.);
#321=ORIENTED_EDGE('',*,*,#378,.F.);
#322=EDGE_CURVE('',#394,#394,#446,.T.);
#323=EDGE_CURVE('',#395,#395,#447,.T.);
#324=EDGE_CURVE('',#396,#396,#448,.T.);
#325=EDGE_CURVE('',#397,#397,#449,.T.);
#326=EDGE_CURVE('',#398,#398,#450,.T.);
#327=EDGE_CURVE('',#399,#399,#451,.T.);
#328=EDGE_CURVE('',#400,#401,#32,.T.);
#329=EDGE_CURVE('',#402,#401,#33,.T.);
#330=EDGE_CURVE('',#403,#402,#34,.T.);
#331=EDGE_CURVE('',#403,#400,#35,.T.);
#332=EDGE_CURVE('',#404,#400,#36,.T.);
#333=EDGE_CURVE('',#405,#403,#37,.T.);
#334=EDGE_CURVE('',#405,#404,#38,.T.);
#335=EDGE_CURVE('',#406,#404,#39,.T.);
#336=EDGE_CURVE('',#407,#405,#40,.T.);
#337=EDGE_CURVE('',#407,#406,#41,.T.);
#338=EDGE_CURVE('',#401,#406,#42,.T.);
#339=EDGE_CURVE('',#402,#407,#43,.T.);
#340=EDGE_CURVE('',#408,#408,#452,.T.);
#341=EDGE_CURVE('',#409,#409,#453,.T.);
#342=EDGE_CURVE('',#410,#411,#44,.T.);
#343=EDGE_CURVE('',#411,#412,#45,.T.);
#344=EDGE_CURVE('',#412,#413,#46,.T.);
#345=EDGE_CURVE('',#413,#414,#47,.T.);
#346=EDGE_CURVE('',#414,#415,#48,.T.);
#347=EDGE_CURVE('',#415,#416,#49,.T.);
#348=EDGE_CURVE('',#416,#417,#50,.T.);
#349=EDGE_CURVE('',#417,#418,#51,.T.);
#350=EDGE_CURVE('',#418,#419,#52,.T.);
#351=EDGE_CURVE('',#419,#420,#53,.T.);
#352=EDGE_CURVE('',#420,#421,#54,.T.);
#353=EDGE_CURVE('',#421,#410,#55,.T.);
#354=EDGE_CURVE('',#422,#423,#56,.T.);
#355=EDGE_CURVE('',#410,#423,#57,.T.);
#356=EDGE_CURVE('',#421,#422,#58,.T.);
#357=EDGE_CURVE('',#424,#422,#59,.T.);
#358=EDGE_CURVE('',#420,#424,#60,.T.);
#359=EDGE_CURVE('',#425,#424,#61,.T.);
#360=EDGE_CURVE('',#419,#425,#62,.T.);
#361=EDGE_CURVE('',#426,#425,#63,.T.);
#362=EDGE_CURVE('',#418,#426,#64,.T.);
#363=EDGE_CURVE('',#427,#426,#65,.T.);
#364=EDGE_CURVE('',#417,#427,#66,.T.);
#365=EDGE_CURVE('',#428,#427,#67,.T.);
#366=EDGE_CURVE('',#416,#428,#68,.T.);
#367=EDGE_CURVE('',#429,#428,#69,.T.);
#368=EDGE_CURVE('',#415,#429,#70,.T.);
#369=EDGE_CURVE('',#430,#429,#71,.T.);
#370=EDGE_CURVE('',#414,#430,#72,.T.);
#371=EDGE_CURVE('',#431,#430,#73,.T.);
#372=EDGE_CURVE('',#413,#431,#74,.T.);
#373=EDGE_CURVE('',#432,#433,#75,.T.);
#374=EDGE_CURVE('',#412,#433,#76,.T.);
#375=EDGE_CURVE('',#411,#432,#77,.T.);
#376=EDGE_CURVE('',#423,#432,#78,.T.);
#377=EDGE_CURVE('',#434,#434,#454,.T.);
#378=EDGE_CURVE('',#435,#435,#455,.T.);
#379=EDGE_CURVE('',#436,#436,#456,.T.);
#380=EDGE_CURVE('',#437,#437,#457,.T.);
#381=EDGE_CURVE('',#438,#439,#79,.T.);
#382=EDGE_CURVE('',#440,#439,#80,.T.);
#383=EDGE_CURVE('',#441,#440,#81,.T.);
#384=EDGE_CURVE('',#441,#438,#82,.T.);
#385=EDGE_CURVE('',#442,#438,#83,.T.);
#386=EDGE_CURVE('',#443,#441,#84,.T.);
#387=EDGE_CURVE('',#443,#442,#85,.T.);
#388=EDGE_CURVE('',#444,#442,#86,.T.);
#389=EDGE_CURVE('',#431,#443,#87,.T.);
#390=EDGE_CURVE('',#445,#433,#88,.T.);
#391=EDGE_CURVE('',#445,#444,#89,.T.);
#392=EDGE_CURVE('',#439,#444,#90,.T.);
#393=EDGE_CURVE('',#440,#445,#91,.T.);
#394=VERTEX_POINT('',#840);
#395=VERTEX_POINT('',#842);
#396=VERTEX_POINT('',#845);
#397=VERTEX_POINT('',#847);
#398=VERTEX_POINT('',#850);
#399=VERTEX_POINT('',#852);
#400=VERTEX_POINT('',#855);
#401=VERTEX_POINT('',#856);
#402=VERTEX_POINT('',#858);
#403=VERTEX_POINT('',#860);
#404=VERTEX_POINT('',#864);
#405=VERTEX_POINT('',#866);
#406=VERTEX_POINT('',#870);
#407=VERTEX_POINT('',#872);
#408=VERTEX_POINT('',#882);
#409=VERTEX_POINT('',#885);
#410=VERTEX_POINT('',#890);
#411=VERTEX_POINT('',#891);
#412=VERTEX_POINT('',#893);
#413=VERTEX_POINT('',#895);
#414=VERTEX_POINT('',#897);
#415=VERTEX_POINT('',#899);
#416=VERTEX_POINT('',#901);
#417=VERTEX_POINT('',#903);
#418=VERTEX_POINT('',#905);
#419=VERTEX_POINT('',#907);
#420=VERTEX_POINT('',#909);
#421=VERTEX_POINT('',#911);
#422=VERTEX_POINT('',#915);
#423=VERTEX_POINT('',#916);
#424=VERTEX_POINT('',#921);
#425=VERTEX_POINT('',#925);
#426=VERTEX_POINT('',#929);
#427=VERTEX_POINT('',#933);
#428=VERTEX_POINT('',#937);
#429=VERTEX_POINT('',#941);
#430=VERTEX_POINT('',#945);
#431=VERTEX_POINT('',#949);
#432=VERTEX_POINT('',#953);
#433=VERTEX_POINT('',#954);
#434=VERTEX_POINT('',#961);
#435=VERTEX_POINT('',#963);
#436=VERTEX_POINT('',#966);
#437=VERTEX_POINT('',#968);
#438=VERTEX_POINT('',#971);
#439=VERTEX_POINT('',#972);
#440=VERTEX_POINT('',#974);
#441=VERTEX_POINT('',#976);
#442=VERTEX_POINT('',#980);
#443=VERTEX_POINT('',#982);
#444=VERTEX_POINT('',#986);
#445=VERTEX_POINT('',#989);
#446=CIRCLE('',#632,0.25);
#447=CIRCLE('',#633,0.25);
#448=CIRCLE('',#635,0.2);
#449=CIRCLE('',#636,0.2);
#450=CIRCLE('',#638,0.2);
#451=CIRCLE('',#639,0.2);
#452=CIRCLE('',#648,0.25);
#453=CIRCLE('',#650,0.25);
#454=CIRCLE('',#666,0.2);
#455=CIRCLE('',#667,0.2);
#456=CIRCLE('',#669,0.2);
#457=CIRCLE('',#670,0.2);
#458=EDGE_LOOP('',(#178));
#459=EDGE_LOOP('',(#179));
#460=EDGE_LOOP('',(#180));
#461=EDGE_LOOP('',(#181));
#462=EDGE_LOOP('',(#182));
#463=EDGE_LOOP('',(#183));
#464=EDGE_LOOP('',(#184,#185,#186,#187));
#465=EDGE_LOOP('',(#188,#189,#190,#191));
#466=EDGE_LOOP('',(#192));
#467=EDGE_LOOP('',(#193,#194,#195,#196));
#468=EDGE_LOOP('',(#197,#198,#199,#200));
#469=EDGE_LOOP('',(#201));
#470=EDGE_LOOP('',(#202));
#471=EDGE_LOOP('',(#203,#204,#205,#206));
#472=EDGE_LOOP('',(#207));
#473=EDGE_LOOP('',(#208));
#474=EDGE_LOOP('',(#209));
#475=EDGE_LOOP('',(#210,#211,#212,#213));
#476=EDGE_LOOP('',(#214));
#477=EDGE_LOOP('',(#215));
#478=EDGE_LOOP('',(#216));
#479=EDGE_LOOP('',(#217));
#480=EDGE_LOOP('',(#218,#219,#220,#221,#222,#223,#224,#225,#226,#227,#228,
#229));
#481=EDGE_LOOP('',(#230,#231,#232,#233));
#482=EDGE_LOOP('',(#234,#235,#236,#237));
#483=EDGE_LOOP('',(#238,#239,#240,#241));
#484=EDGE_LOOP('',(#242,#243,#244,#245));
#485=EDGE_LOOP('',(#246,#247,#248,#249));
#486=EDGE_LOOP('',(#250,#251,#252,#253));
#487=EDGE_LOOP('',(#254,#255,#256,#257));
#488=EDGE_LOOP('',(#258,#259,#260,#261));
#489=EDGE_LOOP('',(#262,#263,#264,#265));
#490=EDGE_LOOP('',(#266,#267,#268,#269));
#491=EDGE_LOOP('',(#270,#271,#272,#273));
#492=EDGE_LOOP('',(#274));
#493=EDGE_LOOP('',(#275));
#494=EDGE_LOOP('',(#276));
#495=EDGE_LOOP('',(#277));
#496=EDGE_LOOP('',(#278,#279,#280,#281));
#497=EDGE_LOOP('',(#282,#283,#284,#285));
#498=EDGE_LOOP('',(#286,#287,#288,#289,#290,#291,#292,#293));
#499=EDGE_LOOP('',(#294,#295,#296,#297));
#500=EDGE_LOOP('',(#298));
#501=EDGE_LOOP('',(#299,#300,#301,#302));
#502=EDGE_LOOP('',(#303));
#503=EDGE_LOOP('',(#304,#305,#306,#307,#308,#309,#310,#311,#312,#313,#314,
#315,#316,#317,#318,#319));
#504=EDGE_LOOP('',(#320));
#505=EDGE_LOOP('',(#321));
#506=FACE_BOUND('',#458,.T.);
#507=FACE_BOUND('',#459,.T.);
#508=FACE_BOUND('',#460,.T.);
#509=FACE_BOUND('',#461,.T.);
#510=FACE_BOUND('',#462,.T.);
#511=FACE_BOUND('',#463,.T.);
#512=FACE_BOUND('',#464,.T.);
#513=FACE_BOUND('',#465,.T.);
#514=FACE_BOUND('',#466,.T.);
#515=FACE_BOUND('',#467,.T.);
#516=FACE_BOUND('',#468,.T.);
#517=FACE_BOUND('',#469,.T.);
#518=FACE_BOUND('',#470,.T.);
#519=FACE_BOUND('',#471,.T.);
#520=FACE_BOUND('',#472,.T.);
#521=FACE_BOUND('',#473,.T.);
#522=FACE_BOUND('',#474,.T.);
#523=FACE_BOUND('',#475,.T.);
#524=FACE_BOUND('',#476,.T.);
#525=FACE_BOUND('',#477,.T.);
#526=FACE_BOUND('',#478,.T.);
#527=FACE_BOUND('',#479,.T.);
#528=FACE_BOUND('',#480,.T.);
#529=FACE_BOUND('',#481,.T.);
#530=FACE_BOUND('',#482,.T.);
#531=FACE_BOUND('',#483,.T.);
#532=FACE_BOUND('',#484,.T.);
#533=FACE_BOUND('',#485,.T.);
#534=FACE_BOUND('',#486,.T.);
#535=FACE_BOUND('',#487,.T.);
#536=FACE_BOUND('',#488,.T.);
#537=FACE_BOUND('',#489,.T.);
#538=FACE_BOUND('',#490,.T.);
#539=FACE_BOUND('',#491,.T.);
#540=FACE_BOUND('',#492,.T.);
#541=FACE_BOUND('',#493,.T.);
#542=FACE_BOUND('',#494,.T.);
#543=FACE_BOUND('',#495,.T.);
#544=FACE_BOUND('',#496,.T.);
#545=FACE_BOUND('',#497,.T.);
#546=FACE_BOUND('',#498,.T.);
#547=FACE_BOUND('',#499,.T.);
#548=FACE_BOUND('',#500,.T.);
#549=FACE_BOUND('',#501,.T.);
#550=FACE_BOUND('',#502,.T.);
#551=FACE_BOUND('',#503,.T.);
#552=FACE_BOUND('',#504,.T.);
#553=FACE_BOUND('',#505,.T.);
#554=CYLINDRICAL_SURFACE('',#631,0.25);
#555=CYLINDRICAL_SURFACE('',#634,0.2);
#556=CYLINDRICAL_SURFACE('',#637,0.2);
#557=CYLINDRICAL_SURFACE('',#651,0.25);
#558=CYLINDRICAL_SURFACE('',#665,0.2);
#559=CYLINDRICAL_SURFACE('',#668,0.2);
#560=ADVANCED_FACE('',(#506,#507),#554,.F.);
#561=ADVANCED_FACE('',(#508,#509),#555,.F.);
#562=ADVANCED_FACE('',(#510,#511),#556,.F.);
#563=ADVANCED_FACE('',(#512),#152,.F.);
#564=ADVANCED_FACE('',(#513,#514),#153,.F.);
#565=ADVANCED_FACE('',(#515),#154,.F.);
#566=ADVANCED_FACE('',(#516,#517),#155,.F.);
#567=ADVANCED_FACE('',(#518,#519,#520),#156,.T.);
#568=ADVANCED_FACE('',(#521,#522,#523),#157,.F.);
#569=ADVANCED_FACE('',(#524),#158,.F.);
#570=ADVANCED_FACE('',(#525),#159,.T.);
#571=ADVANCED_FACE('',(#526,#527),#557,.T.);
#572=ADVANCED_FACE('',(#528),#160,.F.);
#573=ADVANCED_FACE('',(#529),#161,.F.);
#574=ADVANCED_FACE('',(#530),#162,.F.);
#575=ADVANCED_FACE('',(#531),#163,.F.);
#576=ADVANCED_FACE('',(#532),#164,.F.);
#577=ADVANCED_FACE('',(#533),#165,.F.);
#578=ADVANCED_FACE('',(#534),#166,.F.);
#579=ADVANCED_FACE('',(#535),#167,.F.);
#580=ADVANCED_FACE('',(#536),#168,.F.);
#581=ADVANCED_FACE('',(#537),#169,.F.);
#582=ADVANCED_FACE('',(#538),#170,.F.);
#583=ADVANCED_FACE('',(#539),#171,.F.);
#584=ADVANCED_FACE('',(#540,#541),#558,.F.);
#585=ADVANCED_FACE('',(#542,#543),#559,.F.);
#586=ADVANCED_FACE('',(#544),#172,.F.);
#587=ADVANCED_FACE('',(#545),#173,.F.);
#588=ADVANCED_FACE('',(#546),#174,.F.);
#589=ADVANCED_FACE('',(#547),#175,.F.);
#590=ADVANCED_FACE('',(#548,#549,#550),#176,.T.);
#591=ADVANCED_FACE('',(#551,#552,#553),#177,.F.);
#592=CLOSED_SHELL('',(#560,#561,#562,#563,#564,#565,#566,#567,#568));
#593=CLOSED_SHELL('',(#569,#570,#571));
#594=CLOSED_SHELL('',(#572,#573,#574,#575,#576,#577,#578,#579,#580,#581,
#582,#583,#584,#585,#586,#587,#588,#589,#590,#591));
#595=STYLED_ITEM('',(#598),#617);
#596=STYLED_ITEM('',(#599),#618);
#597=STYLED_ITEM('',(#600),#619);
#598=PRESENTATION_STYLE_ASSIGNMENT((#601));
#599=PRESENTATION_STYLE_ASSIGNMENT((#602));
#600=PRESENTATION_STYLE_ASSIGNMENT((#603));
#601=SURFACE_STYLE_USAGE(.BOTH.,#604);
#602=SURFACE_STYLE_USAGE(.BOTH.,#605);
#603=SURFACE_STYLE_USAGE(.BOTH.,#606);
#604=SURFACE_SIDE_STYLE('',(#607));
#605=SURFACE_SIDE_STYLE('',(#608));
#606=SURFACE_SIDE_STYLE('',(#609));
#607=SURFACE_STYLE_FILL_AREA(#610);
#608=SURFACE_STYLE_FILL_AREA(#611);
#609=SURFACE_STYLE_FILL_AREA(#612);
#610=FILL_AREA_STYLE('',(#613));
#611=FILL_AREA_STYLE('',(#614));
#612=FILL_AREA_STYLE('',(#615));
#613=FILL_AREA_STYLE_COLOUR('',#616);
#614=FILL_AREA_STYLE_COLOUR('',#616);
#615=FILL_AREA_STYLE_COLOUR('',#616);
#616=COLOUR_RGB('',0.796078431372549,0.823529411764706,0.937254901960784);
#617=MANIFOLD_SOLID_BREP('panel_base',#592);
#618=MANIFOLD_SOLID_BREP('hing_rod',#593);
#619=MANIFOLD_SOLID_BREP('LDR_sensor_base',#594);
#620=SHAPE_DEFINITION_REPRESENTATION(#1012,#625);
#621=SHAPE_DEFINITION_REPRESENTATION(#1013,#626);
#622=SHAPE_DEFINITION_REPRESENTATION(#1014,#627);
#623=SHAPE_DEFINITION_REPRESENTATION(#1016,#628);
#624=SHAPE_DEFINITION_REPRESENTATION(#1018,#629);
#625=SHAPE_REPRESENTATION('Elevator',(#630,#678),#999);
#626=SHAPE_REPRESENTATION('Elevator <1>',(#630,#646,#652,#677),#1000);
#627=SHAPE_REPRESENTATION('panel_base',(#630),#1001);
#628=SHAPE_REPRESENTATION('hing_rod',(#630),#1002);
#629=SHAPE_REPRESENTATION('LDR_sensor_base',(#630),#1003);
#630=AXIS2_PLACEMENT_3D('',#837,#679,#680);
#631=AXIS2_PLACEMENT_3D('',#838,#681,#682);
#632=AXIS2_PLACEMENT_3D('',#839,#683,#684);
#633=AXIS2_PLACEMENT_3D('',#841,#685,#686);
#634=AXIS2_PLACEMENT_3D('',#843,#687,#688);
#635=AXIS2_PLACEMENT_3D('',#844,#689,#690);
#636=AXIS2_PLACEMENT_3D('',#846,#691,#692);
#637=AXIS2_PLACEMENT_3D('',#848,#693,#694);
#638=AXIS2_PLACEMENT_3D('',#849,#695,#696);
#639=AXIS2_PLACEMENT_3D('',#851,#697,#698);
#640=AXIS2_PLACEMENT_3D('',#853,#699,#700);
#641=AXIS2_PLACEMENT_3D('',#862,#705,#706);
#642=AXIS2_PLACEMENT_3D('',#868,#710,#711);
#643=AXIS2_PLACEMENT_3D('',#874,#715,#716);
#644=AXIS2_PLACEMENT_3D('',#877,#719,#720);
#645=AXIS2_PLACEMENT_3D('',#878,#721,#722);
#646=AXIS2_PLACEMENT_3D('',#879,#723,#724);
#647=AXIS2_PLACEMENT_3D('',#880,#725,#726);
#648=AXIS2_PLACEMENT_3D('',#881,#727,#728);
#649=AXIS2_PLACEMENT_3D('',#883,#729,#730);
#650=AXIS2_PLACEMENT_3D('',#884,#731,#732);
#651=AXIS2_PLACEMENT_3D('',#886,#733,#734);
#652=AXIS2_PLACEMENT_3D('',#887,#735,#736);
#653=AXIS2_PLACEMENT_3D('',#888,#737,#738);
#654=AXIS2_PLACEMENT_3D('',#913,#751,#752);
#655=AXIS2_PLACEMENT_3D('',#919,#756,#757);
#656=AXIS2_PLACEMENT_3D('',#923,#760,#761);
#657=AXIS2_PLACEMENT_3D('',#927,#764,#765);
#658=AXIS2_PLACEMENT_3D('',#931,#768,#769);
#659=AXIS2_PLACEMENT_3D('',#935,#772,#773);
#660=AXIS2_PLACEMENT_3D('',#939,#776,#777);
#661=AXIS2_PLACEMENT_3D('',#943,#780,#781);
#662=AXIS2_PLACEMENT_3D('',#947,#784,#785);
#663=AXIS2_PLACEMENT_3D('',#951,#788,#789);
#664=AXIS2_PLACEMENT_3D('',#957,#793,#794);
#665=AXIS2_PLACEMENT_3D('',#959,#796,#797);
#666=AXIS2_PLACEMENT_3D('',#960,#798,#799);
#667=AXIS2_PLACEMENT_3D('',#962,#800,#801);
#668=AXIS2_PLACEMENT_3D('',#964,#802,#803);
#669=AXIS2_PLACEMENT_3D('',#965,#804,#805);
#670=AXIS2_PLACEMENT_3D('',#967,#806,#807);
#671=AXIS2_PLACEMENT_3D('',#969,#808,#809);
#672=AXIS2_PLACEMENT_3D('',#978,#814,#815);
#673=AXIS2_PLACEMENT_3D('',#984,#819,#820);
#674=AXIS2_PLACEMENT_3D('',#991,#825,#826);
#675=AXIS2_PLACEMENT_3D('',#994,#829,#830);
#676=AXIS2_PLACEMENT_3D('',#995,#831,#832);
#677=AXIS2_PLACEMENT_3D('',#996,#833,#834);
#678=AXIS2_PLACEMENT_3D('',#997,#835,#836);
#679=DIRECTION('',(0.,0.,1.));
#680=DIRECTION('',(1.,0.,0.));
#681=DIRECTION('',(1.,0.,0.));
#682=DIRECTION('',(0.,0.,-1.));
#683=DIRECTION('',(1.,0.,0.));
#684=DIRECTION('',(0.,0.,-1.));
#685=DIRECTION('',(1.,0.,0.));
#686=DIRECTION('',(0.,0.,-1.));
#687=DIRECTION('',(0.,0.,-1.));
#688=DIRECTION('',(-1.,0.,0.));
#689=DIRECTION('',(0.,0.,1.));
#690=DIRECTION('',(-1.,0.,0.));
#691=DIRECTION('',(0.,0.,1.));
#692=DIRECTION('',(-1.,0.,0.));
#693=DIRECTION('',(0.,0.,-1.));
#694=DIRECTION('',(-1.,0.,0.));
#695=DIRECTION('',(0.,0.,1.));
#696=DIRECTION('',(1.,0.,0.));
#697=DIRECTION('',(0.,0.,1.));
#698=DIRECTION('',(1.,0.,0.));
#699=DIRECTION('',(0.,1.,0.));
#700=DIRECTION('',(0.,0.,1.));
#701=DIRECTION('',(1.,0.,0.));
#702=DIRECTION('',(0.,0.,-1.));
#703=DIRECTION('',(1.,0.,0.));
#704=DIRECTION('',(0.,0.,-1.));
#705=DIRECTION('',(1.,0.,0.));
#706=DIRECTION('',(0.,0.,-1.));
#707=DIRECTION('',(0.,-1.,0.));
#708=DIRECTION('',(0.,-1.,0.));
#709=DIRECTION('',(0.,0.,-1.));
#710=DIRECTION('',(0.,-1.,0.));
#711=DIRECTION('',(0.,0.,-1.));
#712=DIRECTION('',(-1.,0.,0.));
#713=DIRECTION('',(-1.,0.,0.));
#714=DIRECTION('',(0.,0.,-1.));
#715=DIRECTION('',(-1.,0.,0.));
#716=DIRECTION('',(0.,0.,1.));
#717=DIRECTION('',(0.,1.,0.));
#718=DIRECTION('',(0.,1.,0.));
#719=DIRECTION('',(0.,0.,-1.));
#720=DIRECTION('',(-1.,0.,0.));
#721=DIRECTION('',(0.,0.,-1.));
#722=DIRECTION('',(-1.,0.,0.));
#723=DIRECTION('',(-0.999990172924997,-0.004071695316345,-0.00175366778089349));
#724=DIRECTION('',(0.00175747562942479,-0.000931810221254874,-0.999998021502605));
#725=DIRECTION('',(0.,1.,0.));
#726=DIRECTION('',(0.,0.,1.));
#727=DIRECTION('',(0.,1.,0.));
#728=DIRECTION('',(0.,0.,1.));
#729=DIRECTION('',(0.,1.,0.));
#730=DIRECTION('',(0.,0.,1.));
#731=DIRECTION('',(0.,1.,0.));
#732=DIRECTION('',(0.,0.,1.));
#733=DIRECTION('',(0.,-1.,0.));
#734=DIRECTION('',(0.,0.,-1.));
#735=DIRECTION('',(0.00407005317493719,-0.999991276475431,0.000938956969574851));
#736=DIRECTION('',(0.999990172924997,0.00407169531633869,0.00175366778089764));
#737=DIRECTION('',(0.,-1.,0.));
#738=DIRECTION('',(0.,0.,-1.));
#739=DIRECTION('',(-1.,0.,3.46944695195361E-16));
#740=DIRECTION('',(-3.46944695195361E-16,0.,-1.));
#741=DIRECTION('',(-1.,0.,0.));
#742=DIRECTION('',(0.,0.,1.));
#743=DIRECTION('',(-1.,0.,0.));
#744=DIRECTION('',(0.,0.,1.));
#745=DIRECTION('',(1.,0.,-2.60208521396521E-16));
#746=DIRECTION('',(4.33680868994202E-16,0.,1.));
#747=DIRECTION('',(1.,0.,-1.62630325872826E-16));
#748=DIRECTION('',(8.67361737988404E-17,0.,-1.));
#749=DIRECTION('',(1.,0.,-8.67361737988404E-17));
#750=DIRECTION('',(-4.33680868994202E-16,0.,-1.));
#751=DIRECTION('',(-1.,0.,0.));
#752=DIRECTION('',(0.,0.,1.));
#753=DIRECTION('',(-4.33680868994202E-16,0.,-1.));
#754=DIRECTION('',(0.,-1.,0.));
#755=DIRECTION('',(0.,-1.,0.));
#756=DIRECTION('',(0.,0.,-1.));
#757=DIRECTION('',(-1.,0.,0.));
#758=DIRECTION('',(1.,0.,-8.67361737988404E-17));
#759=DIRECTION('',(0.,-1.,0.));
#760=DIRECTION('',(-1.,0.,-8.67361737988404E-17));
#761=DIRECTION('',(-8.67361737988404E-17,0.,1.));
#762=DIRECTION('',(8.67361737988404E-17,0.,-1.));
#763=DIRECTION('',(0.,-1.,0.));
#764=DIRECTION('',(0.,0.,-1.));
#765=DIRECTION('',(-1.,0.,0.));
#766=DIRECTION('',(1.,0.,-1.62630325872826E-16));
#767=DIRECTION('',(0.,-1.,0.));
#768=DIRECTION('',(1.,0.,0.));
#769=DIRECTION('',(0.,0.,-1.));
#770=DIRECTION('',(4.33680868994202E-16,0.,1.));
#771=DIRECTION('',(0.,-1.,0.));
#772=DIRECTION('',(0.,0.,-1.));
#773=DIRECTION('',(-1.,0.,0.));
#774=DIRECTION('',(1.,0.,-2.60208521396521E-16));
#775=DIRECTION('',(0.,-1.,0.));
#776=DIRECTION('',(1.,0.,0.));
#777=DIRECTION('',(0.,0.,-1.));
#778=DIRECTION('',(0.,0.,1.));
#779=DIRECTION('',(0.,-1.,0.));
#780=DIRECTION('',(0.,0.,1.));
#781=DIRECTION('',(1.,0.,0.));
#782=DIRECTION('',(-1.,0.,0.));
#783=DIRECTION('',(0.,-1.,0.));
#784=DIRECTION('',(1.,0.,0.));
#785=DIRECTION('',(0.,0.,-1.));
#786=DIRECTION('',(0.,0.,1.));
#787=DIRECTION('',(0.,-1.,0.));
#788=DIRECTION('',(-1.,0.,-8.67361737988404E-17));
#789=DIRECTION('',(-8.67361737988404E-17,0.,1.));
#790=DIRECTION('',(-3.46944695195361E-16,0.,-1.));
#791=DIRECTION('',(0.,-1.,0.));
#792=DIRECTION('',(0.,-1.,0.));
#793=DIRECTION('',(0.,0.,1.));
#794=DIRECTION('',(1.,0.,0.));
#795=DIRECTION('',(-1.,0.,3.46944695195361E-16));
#796=DIRECTION('',(0.,-1.,0.));
#797=DIRECTION('',(0.,0.,-1.));
#798=DIRECTION('',(0.,1.,0.));
#799=DIRECTION('',(0.,0.,-1.));
#800=DIRECTION('',(0.,1.,0.));
#801=DIRECTION('',(0.,0.,-1.));
#802=DIRECTION('',(0.,-1.,0.));
#803=DIRECTION('',(0.,0.,-1.));
#804=DIRECTION('',(0.,1.,0.));
#805=DIRECTION('',(0.,0.,1.));
#806=DIRECTION('',(0.,1.,0.));
#807=DIRECTION('',(0.,0.,1.));
#808=DIRECTION('',(0.,0.,-1.));
#809=DIRECTION('',(-1.,0.,0.));
#810=DIRECTION('',(1.,0.,2.60208521396521E-16));
#811=DIRECTION('',(0.,-1.,0.));
#812=DIRECTION('',(1.,0.,2.60208521396521E-16));
#813=DIRECTION('',(0.,-1.,0.));
#814=DIRECTION('',(1.,0.,0.));
#815=DIRECTION('',(0.,0.,-1.));
#816=DIRECTION('',(0.,0.,1.));
#817=DIRECTION('',(0.,0.,1.));
#818=DIRECTION('',(0.,-1.,0.));
#819=DIRECTION('',(0.,0.,1.));
#820=DIRECTION('',(1.,0.,0.));
#821=DIRECTION('',(-1.,0.,0.));
#822=DIRECTION('',(-1.,0.,0.));
#823=DIRECTION('',(-1.,0.,0.));
#824=DIRECTION('',(0.,-1.,0.));
#825=DIRECTION('',(-1.,0.,0.));
#826=DIRECTION('',(0.,0.,1.));
#827=DIRECTION('',(-2.08166817117217E-16,0.,-1.));
#828=DIRECTION('',(-2.08166817117217E-16,0.,-1.));
#829=DIRECTION('',(0.,-1.,0.));
#830=DIRECTION('',(0.,0.,-1.));
#831=DIRECTION('',(0.,-1.,0.));
#832=DIRECTION('',(0.,0.,-1.));
#833=DIRECTION('',(-0.00407005317493727,0.999991276475431,-0.00093895696957485));
#834=DIRECTION('',(-0.00175747562941988,0.000931810221254894,0.999998021502605));
#835=DIRECTION('',(0.,0.,1.));
#836=DIRECTION('',(1.,0.,0.));
#837=CARTESIAN_POINT('',(0.,0.,0.));
#838=CARTESIAN_POINT('',(-8.3,0.,0.5));
#839=CARTESIAN_POINT('',(-7.,0.,0.5));
#840=CARTESIAN_POINT('',(-7.,0.,0.25));
#841=CARTESIAN_POINT('',(7.,0.,0.5));
#842=CARTESIAN_POINT('',(7.,0.,0.25));
#843=CARTESIAN_POINT('',(1.,1.5,1.));
#844=CARTESIAN_POINT('',(1.,1.5,0.));
#845=CARTESIAN_POINT('',(0.8,1.5,0.));
#846=CARTESIAN_POINT('',(1.,1.5,1.));
#847=CARTESIAN_POINT('',(0.8,1.5,1.));
#848=CARTESIAN_POINT('',(-1.,1.5,1.));
#849=CARTESIAN_POINT('',(-1.,1.5,0.));
#850=CARTESIAN_POINT('',(-0.8,1.5,0.));
#851=CARTESIAN_POINT('',(-1.,1.5,1.));
#852=CARTESIAN_POINT('',(-0.8,1.5,1.));
#853=CARTESIAN_POINT('',(-7.,-2.5,1.));
#854=CARTESIAN_POINT('',(-7.,-2.5,0.));
#855=CARTESIAN_POINT('',(-7.,-2.5,0.));
#856=CARTESIAN_POINT('',(7.,-2.5,0.));
#857=CARTESIAN_POINT('',(7.,-2.5,1.));
#858=CARTESIAN_POINT('',(7.,-2.5,1.));
#859=CARTESIAN_POINT('',(-7.,-2.5,1.));
#860=CARTESIAN_POINT('',(-7.,-2.5,1.));
#861=CARTESIAN_POINT('',(-7.,-2.5,1.));
#862=CARTESIAN_POINT('',(-7.,-2.5,1.));
#863=CARTESIAN_POINT('',(-7.,-2.5,0.));
#864=CARTESIAN_POINT('',(-7.,2.5,0.));
#865=CARTESIAN_POINT('',(-7.,-2.5,1.));
#866=CARTESIAN_POINT('',(-7.,2.5,1.));
#867=CARTESIAN_POINT('',(-7.,2.5,1.));
#868=CARTESIAN_POINT('',(-7.,2.5,1.));
#869=CARTESIAN_POINT('',(-7.,2.5,0.));
#870=CARTESIAN_POINT('',(7.,2.5,0.));
#871=CARTESIAN_POINT('',(-7.,2.5,1.));
#872=CARTESIAN_POINT('',(7.,2.5,1.));
#873=CARTESIAN_POINT('',(7.,2.5,1.));
#874=CARTESIAN_POINT('',(7.,-2.5,1.));
#875=CARTESIAN_POINT('',(7.,-2.5,0.));
#876=CARTESIAN_POINT('',(7.,-2.5,1.));
#877=CARTESIAN_POINT('',(0.,0.,0.));
#878=CARTESIAN_POINT('',(0.,0.,1.));
#879=CARTESIAN_POINT('',(0.515812367127326,-0.00635044433312418,0.0608946403669307));
#880=CARTESIAN_POINT('',(0.,0.,0.));
#881=CARTESIAN_POINT('',(0.,0.,0.));
#882=CARTESIAN_POINT('',(0.,0.,0.25));
#883=CARTESIAN_POINT('',(0.,4.,0.));
#884=CARTESIAN_POINT('',(0.,4.,0.));
#885=CARTESIAN_POINT('',(0.,4.,0.25));
#886=CARTESIAN_POINT('',(0.,4.,0.));
#887=CARTESIAN_POINT('',(0.00702990251771514,-0.00372724088501912,5.06000791398956));
#888=CARTESIAN_POINT('',(0.,3.3,0.));
#889=CARTESIAN_POINT('',(0.4,3.3,-1.5));
#890=CARTESIAN_POINT('',(1.4,3.3,-1.5));
#891=CARTESIAN_POINT('',(0.4,3.3,-1.5));
#892=CARTESIAN_POINT('',(0.4,3.3,-2.5));
#893=CARTESIAN_POINT('',(0.4,3.3,-2.5));
#894=CARTESIAN_POINT('',(-0.4,3.3,-2.5));
#895=CARTESIAN_POINT('',(-0.4,3.3,-2.5));
#896=CARTESIAN_POINT('',(-0.4,3.3,-1.5));
#897=CARTESIAN_POINT('',(-0.4,3.3,-1.5));
#898=CARTESIAN_POINT('',(-1.4,3.3,-1.5));
#899=CARTESIAN_POINT('',(-1.4,3.3,-1.5));
#900=CARTESIAN_POINT('',(-1.4,3.3,-0.7));
#901=CARTESIAN_POINT('',(-1.4,3.3,-0.7));
#902=CARTESIAN_POINT('',(-0.4,3.3,-0.7));
#903=CARTESIAN_POINT('',(-0.4,3.3,-0.7));
#904=CARTESIAN_POINT('',(-0.4,3.3,0.3));
#905=CARTESIAN_POINT('',(-0.4,3.3,0.3));
#906=CARTESIAN_POINT('',(0.4,3.3,0.3));
#907=CARTESIAN_POINT('',(0.4,3.3,0.3));
#908=CARTESIAN_POINT('',(0.4,3.3,-0.7));
#909=CARTESIAN_POINT('',(0.4,3.3,-0.7));
#910=CARTESIAN_POINT('',(1.4,3.3,-0.7));
#911=CARTESIAN_POINT('',(1.4,3.3,-0.7));
#912=CARTESIAN_POINT('',(1.4,3.3,-1.5));
#913=CARTESIAN_POINT('',(1.4,3.3,-1.5));
#914=CARTESIAN_POINT('',(1.4,0.8,-1.5));
#915=CARTESIAN_POINT('',(1.4,0.8,-0.7));
#916=CARTESIAN_POINT('',(1.4,0.8,-1.5));
#917=CARTESIAN_POINT('',(1.4,3.3,-1.5));
#918=CARTESIAN_POINT('',(1.4,3.3,-0.7));
#919=CARTESIAN_POINT('',(-0.4,3.3,-0.7));
#920=CARTESIAN_POINT('',(1.4,0.8,-0.7));
#921=CARTESIAN_POINT('',(0.4,0.8,-0.7));
#922=CARTESIAN_POINT('',(0.4,3.3,-0.7));
#923=CARTESIAN_POINT('',(0.4,3.3,-0.7));
#924=CARTESIAN_POINT('',(0.4,0.8,-0.7));
#925=CARTESIAN_POINT('',(0.4,0.8,0.3));
#926=CARTESIAN_POINT('',(0.4,3.3,0.3));
#927=CARTESIAN_POINT('',(0.4,3.3,0.3));
#928=CARTESIAN_POINT('',(0.4,0.8,0.3));
#929=CARTESIAN_POINT('',(-0.4,0.8,0.3));
#930=CARTESIAN_POINT('',(-0.4,3.3,0.3));
#931=CARTESIAN_POINT('',(-0.4,3.3,0.3));
#932=CARTESIAN_POINT('',(-0.4,0.8,0.3));
#933=CARTESIAN_POINT('',(-0.4,0.8,-0.7));
#934=CARTESIAN_POINT('',(-0.4,3.3,-0.7));
#935=CARTESIAN_POINT('',(-0.4,3.3,-0.7));
#936=CARTESIAN_POINT('',(-0.4,0.8,-0.7));
#937=CARTESIAN_POINT('',(-1.4,0.8,-0.7));
#938=CARTESIAN_POINT('',(-1.4,3.3,-0.7));
#939=CARTESIAN_POINT('',(-1.4,3.3,-0.7));
#940=CARTESIAN_POINT('',(-1.4,0.8,-0.7));
#941=CARTESIAN_POINT('',(-1.4,0.8,-1.5));
#942=CARTESIAN_POINT('',(-1.4,3.3,-1.5));
#943=CARTESIAN_POINT('',(-1.4,3.3,-1.5));
#944=CARTESIAN_POINT('',(-1.4,0.8,-1.5));
#945=CARTESIAN_POINT('',(-0.4,0.8,-1.5));
#946=CARTESIAN_POINT('',(-0.4,3.3,-1.5));
#947=CARTESIAN_POINT('',(-0.4,3.3,0.3));
#948=CARTESIAN_POINT('',(-0.4,0.8,-1.5));
#949=CARTESIAN_POINT('',(-0.4,0.8,-2.5));
#950=CARTESIAN_POINT('',(-0.4,3.3,-2.5));
#951=CARTESIAN_POINT('',(0.4,3.3,-0.7));
#952=CARTESIAN_POINT('',(0.4,0.8,-2.5));
#953=CARTESIAN_POINT('',(0.4,0.8,-1.5));
#954=CARTESIAN_POINT('',(0.4,0.8,-2.5));
#955=CARTESIAN_POINT('',(0.4,3.3,-2.5));
#956=CARTESIAN_POINT('',(0.4,3.3,-1.5));
#957=CARTESIAN_POINT('',(-1.4,3.3,-1.5));
#958=CARTESIAN_POINT('',(0.4,0.8,-1.5));
#959=CARTESIAN_POINT('',(1.,0.8,1.7));
#960=CARTESIAN_POINT('',(1.,0.,1.7));
#961=CARTESIAN_POINT('',(1.,0.,1.5));
#962=CARTESIAN_POINT('',(1.,0.8,1.7));
#963=CARTESIAN_POINT('',(1.,0.8,1.5));
#964=CARTESIAN_POINT('',(-1.,0.8,1.7));
#965=CARTESIAN_POINT('',(-1.,0.,1.7));
#966=CARTESIAN_POINT('',(-1.,0.,1.9));
#967=CARTESIAN_POINT('',(-1.,0.8,1.7));
#968=CARTESIAN_POINT('',(-1.,0.8,1.9));
#969=CARTESIAN_POINT('',(-2.,0.8,2.5));
#970=CARTESIAN_POINT('',(-2.,0.,2.5));
#971=CARTESIAN_POINT('',(-2.,0.,2.5));
#972=CARTESIAN_POINT('',(2.,0.,2.5));
#973=CARTESIAN_POINT('',(2.,0.8,2.5));
#974=CARTESIAN_POINT('',(2.,0.8,2.5));
#975=CARTESIAN_POINT('',(-2.,0.8,2.5));
#976=CARTESIAN_POINT('',(-2.,0.8,2.5));
#977=CARTESIAN_POINT('',(-2.,0.8,2.5));
#978=CARTESIAN_POINT('',(-2.,0.8,2.5));
#979=CARTESIAN_POINT('',(-2.,0.,2.5));
#980=CARTESIAN_POINT('',(-2.,0.,-2.5));
#981=CARTESIAN_POINT('',(-2.,0.8,2.5));
#982=CARTESIAN_POINT('',(-2.,0.8,-2.5));
#983=CARTESIAN_POINT('',(-2.,0.8,-2.5));
#984=CARTESIAN_POINT('',(-2.,0.8,-2.5));
#985=CARTESIAN_POINT('',(-2.,0.,-2.5));
#986=CARTESIAN_POINT('',(2.,0.,-2.5));
#987=CARTESIAN_POINT('',(-2.,0.8,-2.5));
#988=CARTESIAN_POINT('',(-2.,0.8,-2.5));
#989=CARTESIAN_POINT('',(2.,0.8,-2.5));
#990=CARTESIAN_POINT('',(2.,0.8,-2.5));
#991=CARTESIAN_POINT('',(2.,0.8,2.5));
#992=CARTESIAN_POINT('',(2.,0.,2.5));
#993=CARTESIAN_POINT('',(2.,0.8,2.5));
#994=CARTESIAN_POINT('',(0.,0.,0.));
#995=CARTESIAN_POINT('',(0.,0.8,0.));
#996=CARTESIAN_POINT('',(-1.27114577397786,-3.21365158062395,0.0607427006639504));
#997=CARTESIAN_POINT('',(0.,0.,0.));
#998=MECHANICAL_DESIGN_GEOMETRIC_PRESENTATION_REPRESENTATION('',(#595,#596,
#597),#999);
#999=(
GEOMETRIC_REPRESENTATION_CONTEXT(3)
GLOBAL_UNCERTAINTY_ASSIGNED_CONTEXT((#1004))
GLOBAL_UNIT_ASSIGNED_CONTEXT((#1011,#1010,#1009))
REPRESENTATION_CONTEXT('Elevator','TOP_LEVEL_ASSEMBLY_PART')
);
#1000=(
GEOMETRIC_REPRESENTATION_CONTEXT(3)
GLOBAL_UNCERTAINTY_ASSIGNED_CONTEXT((#1005))
GLOBAL_UNIT_ASSIGNED_CONTEXT((#1011,#1010,#1009))
REPRESENTATION_CONTEXT('Elevator <1>','COMPONENT_PART')
);
#1001=(
GEOMETRIC_REPRESENTATION_CONTEXT(3)
GLOBAL_UNCERTAINTY_ASSIGNED_CONTEXT((#1006))
GLOBAL_UNIT_ASSIGNED_CONTEXT((#1011,#1010,#1009))
REPRESENTATION_CONTEXT('panel_base','COMPONENT_PART')
);
#1002=(
GEOMETRIC_REPRESENTATION_CONTEXT(3)
GLOBAL_UNCERTAINTY_ASSIGNED_CONTEXT((#1007))
GLOBAL_UNIT_ASSIGNED_CONTEXT((#1011,#1010,#1009))
REPRESENTATION_CONTEXT('hing_rod','COMPONENT_PART')
);
#1003=(
GEOMETRIC_REPRESENTATION_CONTEXT(3)
GLOBAL_UNCERTAINTY_ASSIGNED_CONTEXT((#1008))
GLOBAL_UNIT_ASSIGNED_CONTEXT((#1011,#1010,#1009))
REPRESENTATION_CONTEXT('LDR_sensor_base','COMPONENT_PART')
);
#1004=UNCERTAINTY_MEASURE_WITH_UNIT(LENGTH_MEASURE(1.E-6),#1011,
'DISTANCE_ACCURACY_VALUE','Maximum Tolerance applied to model');
#1005=UNCERTAINTY_MEASURE_WITH_UNIT(LENGTH_MEASURE(1.E-6),#1011,
'DISTANCE_ACCURACY_VALUE','Maximum Tolerance applied to model');
#1006=UNCERTAINTY_MEASURE_WITH_UNIT(LENGTH_MEASURE(1.E-6),#1011,
'DISTANCE_ACCURACY_VALUE','Maximum Tolerance applied to model');
#1007=UNCERTAINTY_MEASURE_WITH_UNIT(LENGTH_MEASURE(1.E-6),#1011,
'DISTANCE_ACCURACY_VALUE','Maximum Tolerance applied to model');
#1008=UNCERTAINTY_MEASURE_WITH_UNIT(LENGTH_MEASURE(1.E-6),#1011,
'DISTANCE_ACCURACY_VALUE','Maximum Tolerance applied to model');
#1009=(
NAMED_UNIT(*)
SI_UNIT($,.STERADIAN.)
SOLID_ANGLE_UNIT()
);
#1010=(
NAMED_UNIT(*)
PLANE_ANGLE_UNIT()
SI_UNIT($,.RADIAN.)
);
#1011=(
LENGTH_UNIT()
NAMED_UNIT(*)
SI_UNIT(.CENTI.,.METRE.)
);
#1012=PRODUCT_DEFINITION_SHAPE('','',#1021);
#1013=PRODUCT_DEFINITION_SHAPE('','',#1022);
#1014=PRODUCT_DEFINITION_SHAPE('','',#1023);
#1015=PRODUCT_DEFINITION_SHAPE(' ','NAUO PRDDFN',#14);
#1016=PRODUCT_DEFINITION_SHAPE('','',#1024);
#1017=PRODUCT_DEFINITION_SHAPE(' ','NAUO PRDDFN',#15);
#1018=PRODUCT_DEFINITION_SHAPE('','',#1025);
#1019=PRODUCT_DEFINITION_SHAPE(' ','NAUO PRDDFN',#16);
#1020=PRODUCT_DEFINITION_SHAPE(' ','NAUO PRDDFN',#17);
#1021=PRODUCT_DEFINITION('','',#1031,#1026);
#1022=PRODUCT_DEFINITION('','',#1032,#1027);
#1023=PRODUCT_DEFINITION('','',#1033,#1028);
#1024=PRODUCT_DEFINITION('','',#1034,#1029);
#1025=PRODUCT_DEFINITION('','',#1035,#1030);
#1026=PRODUCT_DEFINITION_CONTEXT('',#1057,'design');
#1027=PRODUCT_DEFINITION_CONTEXT('',#1057,'design');
#1028=PRODUCT_DEFINITION_CONTEXT('',#1057,'design');
#1029=PRODUCT_DEFINITION_CONTEXT('',#1057,'design');
#1030=PRODUCT_DEFINITION_CONTEXT('',#1057,'design');
#1031=PRODUCT_DEFINITION_FORMATION_WITH_SPECIFIED_SOURCE('','',#1041,
 .NOT_KNOWN.);
#1032=PRODUCT_DEFINITION_FORMATION_WITH_SPECIFIED_SOURCE('','',#1042,
 .NOT_KNOWN.);
#1033=PRODUCT_DEFINITION_FORMATION_WITH_SPECIFIED_SOURCE('','',#1043,
 .NOT_KNOWN.);
#1034=PRODUCT_DEFINITION_FORMATION_WITH_SPECIFIED_SOURCE('','',#1044,
 .NOT_KNOWN.);
#1035=PRODUCT_DEFINITION_FORMATION_WITH_SPECIFIED_SOURCE('','',#1045,
 .NOT_KNOWN.);
#1036=PRODUCT_RELATED_PRODUCT_CATEGORY('','',(#1041));
#1037=PRODUCT_RELATED_PRODUCT_CATEGORY('','',(#1042));
#1038=PRODUCT_RELATED_PRODUCT_CATEGORY('','',(#1043));
#1039=PRODUCT_RELATED_PRODUCT_CATEGORY('','',(#1044));
#1040=PRODUCT_RELATED_PRODUCT_CATEGORY('','',(#1045));
#1041=PRODUCT('Elevator','Elevator','Elevator',(#1051));
#1042=PRODUCT('Elevator <1>','Elevator <1>','Elevator <1>',(#1052));
#1043=PRODUCT('panel_base','panel_base','panel_base',(#1053));
#1044=PRODUCT('hing_rod','hing_rod','hing_rod',(#1054));
#1045=PRODUCT('LDR_sensor_base','LDR_sensor_base','LDR_sensor_base',(#1055));
#1046=PRODUCT_CATEGORY('','');
#1047=PRODUCT_CATEGORY('','');
#1048=PRODUCT_CATEGORY('','');
#1049=PRODUCT_CATEGORY('','');
#1050=PRODUCT_CATEGORY('','');
#1051=PRODUCT_CONTEXT('',#1057,'mechanical');
#1052=PRODUCT_CONTEXT('',#1057,'mechanical');
#1053=PRODUCT_CONTEXT('',#1057,'mechanical');
#1054=PRODUCT_CONTEXT('',#1057,'mechanical');
#1055=PRODUCT_CONTEXT('',#1057,'mechanical');
#1056=APPLICATION_PROTOCOL_DEFINITION('international standard',
'ap242_managed_model_based_3d_engineering',2020,#1057);
#1057=APPLICATION_CONTEXT('managed model based 3d engineering');
ENDSEC;
END-ISO-10303-21;
